{
copyright = "Made by Hank Gillette. PC version created with Fontographer 3.2.";
customParameters = (
{
name = vendorID;
value = Alts;
},
{
name = glyphOrder;
value = (
    ".notdef",
    uni0000,
    uni000D,
    space,
    exclam,
    quotedbl,
    numbersign,
    dollar,
    percent,
    ampersand,
    quotesingle,
    parenleft,
    parenright,
    asterisk,
    plus,
    comma,
    hyphen,
    period,
    slash,
    zero,
    one,
    two,
    three,
    four,
    five,
    six,
    seven,
    eight,
    nine,
    colon,
    semicolon,
    less,
    equal,
    greater,
    question,
    at,
    A,
    B,
    C,
    D,
    E,
    F,
    G,
    H,
    I,
    J,
    K,
    L,
    M,
    N,
    O,
    P,
    Q,
    R,
    S,
    T,
    U,
    V,
    W,
    X,
    Y,
    Z,
    bracketleft,
    backslash,
    bracketright,
    asciicircum,
    underscore,
    grave,
    a,
    b,
    c,
    d,
    e,
    f,
    g,
    h,
    i,
    j,
    k,
    l,
    m,
    n,
    o,
    p,
    q,
    r,
    s,
    t,
    u,
    v,
    w,
    x,
    y,
    z,
    braceleft,
    bar,
    braceright,
    asciitilde,
    dagger,
    degree,
    cent,
    sterling,
    section,
    bullet,
    paragraph,
    registered,
    copyright,
    trademark,
    acute,
    dieresis,
    notequal,
    AE,
    Oslash,
    infinity,
    plusminus,
    lessequal,
    greaterequal,
    yen,
    integral,
    ordfeminine,
    ordmasculine,
    ae,
    oslash,
    questiondown,
    exclamdown,
    logicalnot,
    florin,
    approxequal,
    guillemotleft,
    guillemotright,
    ellipsis,
    uni00A0,
    OE,
    oe,
    endash,
    emdash,
    quotedblleft,
    quotedblright,
    quoteleft,
    quoteright,
    divide,
    lozenge,
    fraction,
    currency,
    guilsinglleft,
    guilsinglright,
    fi,
    fl,
    daggerdbl,
    periodcentered,
    perthousand,
    apple,
    dotlessi,
    circumflex,
    tilde,
    macron,
    breve,
    dotaccent,
    ring,
    hungarumlaut,
    caron
);
}
);

glyphs = (
{
glyphname = .notdef;
layers = (
{
layerId = "40D00E06-06D8-47EA-A1ED-37FDE38D6C1B";
name = Light;
paths = (
{
closed = 1;
nodes = (
"48 0 LINE",
"48 773 LINE",
"725 773 LINE",
"725 0 LINE"
);
},
{
closed = 1;
nodes = (
"677 48 LINE",
"677 725 LINE",
"96 725 LINE",
"96 48 LINE"
);
}
);
width = 773;
}
);
},
{
glyphname = exclam;
layers = (
{
layerId = "40D00E06-06D8-47EA-A1ED-37FDE38D6C1B";
name = Light;
paths = (
{
closed = 1;
nodes = (
"115 213 LINE SMOOTH",
"115 198 OFFCURVE",
"104 190 OFFCURVE",
"92 190 CURVE SMOOTH",
"76 190 OFFCURVE",
"68 198 OFFCURVE",
"68 213 CURVE SMOOTH",
"68 628 LINE SMOOTH",
"68 643 OFFCURVE",
"79 651 OFFCURVE",
"92 651 CURVE SMOOTH",
"104 651 OFFCURVE",
"115 643 OFFCURVE",
"115 628 CURVE SMOOTH"
);
},
{
closed = 1;
nodes = (
"140 17 OFFCURVE",
"116 -8 OFFCURVE",
"91 -8 CURVE SMOOTH",
"68 -8 OFFCURVE",
"48 18 OFFCURVE",
"48 49 CURVE SMOOTH",
"48 82 OFFCURVE",
"69 105 OFFCURVE",
"94 105 CURVE SMOOTH",
"118 105 OFFCURVE",
"140 77 OFFCURVE",
"140 46 CURVE SMOOTH"
);
}
);
width = 183;
}
);
unicode = 0021;
},
{
glyphname = quotedbl;
layers = (
{
layerId = "40D00E06-06D8-47EA-A1ED-37FDE38D6C1B";
name = Light;
paths = (
{
closed = 1;
nodes = (
"232 449 LINE SMOOTH",
"232 436 OFFCURVE",
"221 427 OFFCURVE",
"209 427 CURVE SMOOTH",
"193 427 OFFCURVE",
"185 434 OFFCURVE",
"185 449 CURVE SMOOTH",
"185 627 LINE SMOOTH",
"185 643 OFFCURVE",
"202 649 OFFCURVE",
"209 649 CURVE SMOOTH",
"224 649 OFFCURVE",
"232 638 OFFCURVE",
"232 627 CURVE SMOOTH"
);
},
{
closed = 1;
nodes = (
"82 449 LINE SMOOTH",
"82 436 OFFCURVE",
"71 427 OFFCURVE",
"59 427 CURVE SMOOTH",
"43 427 OFFCURVE",
"35 434 OFFCURVE",
"35 449 CURVE SMOOTH",
"35 627 LINE SMOOTH",
"35 643 OFFCURVE",
"52 649 OFFCURVE",
"59 649 CURVE SMOOTH",
"74 649 OFFCURVE",
"82 638 OFFCURVE",
"82 627 CURVE SMOOTH"
);
}
);
width = 259;
}
);
unicode = 0022;
},
{
glyphname = numbersign;
layers = (
{
layerId = "40D00E06-06D8-47EA-A1ED-37FDE38D6C1B";
name = Light;
paths = (
{
closed = 1;
nodes = (
"442 455 LINE",
"373 276 LINE",
"490 276 LINE SMOOTH",
"506 276 OFFCURVE",
"515 266 OFFCURVE",
"515 253 CURVE SMOOTH",
"515 238 OFFCURVE",
"507 231 OFFCURVE",
"490 231 CURVE SMOOTH",
"354 231 LINE",
"266 2 LINE",
"262 -7 OFFCURVE",
"255 -12 OFFCURVE",
"246 -12 CURVE SMOOTH",
"229 -12 OFFCURVE",
"221 -4 OFFCURVE",
"221 12 CURVE SMOOTH",
"221 15 OFFCURVE",
"221 18 OFFCURVE",
"222 20 CURVE",
"303 231 LINE",
"199 231 LINE",
"111 2 LINE",
"107 -7 OFFCURVE",
"100 -11 OFFCURVE",
"91 -11 CURVE SMOOTH",
"75 -11 OFFCURVE",
"61 4 OFFCURVE",
"66 20 CURVE",
"148 231 LINE",
"42 231 LINE SMOOTH",
"27 231 OFFCURVE",
"17 242 OFFCURVE",
"17 253 CURVE SMOOTH",
"17 268 OFFCURVE",
"25 276 OFFCURVE",
"42 276 CURVE SMOOTH",
"166 276 LINE",
"236 455 LINE",
"122 455 LINE SMOOTH",
"106 455 OFFCURVE",
"98 463 OFFCURVE",
"98 478 CURVE SMOOTH",
"98 493 OFFCURVE",
"106 501 OFFCURVE",
"122 501 CURVE SMOOTH",
"254 501 LINE",
"307 638 LINE",
"311 647 OFFCURVE",
"318 652 OFFCURVE",
"328 652 CURVE SMOOTH",
"344 652 OFFCURVE",
"357 639 OFFCURVE",
"352 624 CURVE",
"305 501 LINE",
"409 501 LINE",
"463 638 LINE",
"466 648 OFFCURVE",
"473 653 OFFCURVE",
"483 653 CURVE SMOOTH",
"498 653 OFFCURVE",
"512 638 OFFCURVE",
"507 622 CURVE",
"460 501 LINE",
"571 501 LINE SMOOTH",
"584 501 OFFCURVE",
"593 490 OFFCURVE",
"593 478 CURVE SMOOTH",
"593 465 OFFCURVE",
"586 455 OFFCURVE",
"571 455 CURVE SMOOTH"
);
},
{
closed = 1;
nodes = (
"391 455 LINE",
"287 455 LINE",
"218 276 LINE",
"322 276 LINE"
);
}
);
width = 613;
}
);
unicode = 0023;
},
{
glyphname = dollar;
layers = (
{
layerId = "40D00E06-06D8-47EA-A1ED-37FDE38D6C1B";
name = Light;
paths = (
{
closed = 1;
nodes = (
"271 -53 LINE SMOOTH",
"271 -68 OFFCURVE",
"263 -76 OFFCURVE",
"247 -76 CURVE SMOOTH",
"231 -76 OFFCURVE",
"223 -68 OFFCURVE",
"223 -53 CURVE SMOOTH",
"223 669 LINE SMOOTH",
"223 685 OFFCURVE",
"231 693 OFFCURVE",
"247 693 CURVE SMOOTH",
"263 693 OFFCURVE",
"271 685 OFFCURVE",
"271 669 CURVE SMOOTH"
);
},
{
closed = 1;
nodes = (
"391 529 OFFCURVE",
"395 523 OFFCURVE",
"395 515 CURVE SMOOTH",
"395 502 OFFCURVE",
"380 492 OFFCURVE",
"372 492 CURVE SMOOTH",
"368 492 OFFCURVE",
"359 496 OFFCURVE",
"344 505 CURVE SMOOTH",
"315 522 OFFCURVE",
"266 537 OFFCURVE",
"225 537 CURVE SMOOTH",
"129 537 OFFCURVE",
"61 452 OFFCURVE",
"61 377 CURVE SMOOTH",
"61 340 OFFCURVE",
"80 313 OFFCURVE",
"116 313 CURVE SMOOTH",
"140 313 OFFCURVE",
"172 325 OFFCURVE",
"211 352 CURVE",
"261 381 OFFCURVE",
"304 396 OFFCURVE",
"341 396 CURVE SMOOTH",
"406 396 OFFCURVE",
"439 348 OFFCURVE",
"439 277 CURVE SMOOTH",
"439 160 OFFCURVE",
"352 30 OFFCURVE",
"233 30 CURVE SMOOTH",
"172 30 OFFCURVE",
"101 66 OFFCURVE",
"62 106 CURVE",
"42 125 OFFCURVE",
"32 138 OFFCURVE",
"32 143 CURVE SMOOTH",
"32 155 OFFCURVE",
"43 167 OFFCURVE",
"58 167 CURVE SMOOTH",
"63 167 OFFCURVE",
"68 165 OFFCURVE",
"73 161 CURVE",
"130 102 OFFCURVE",
"184 78 OFFCURVE",
"235 78 CURVE SMOOTH",
"330 78 OFFCURVE",
"401 184 OFFCURVE",
"401 277 CURVE SMOOTH",
"401 325 OFFCURVE",
"381 356 OFFCURVE",
"340 356 CURVE SMOOTH",
"312 356 OFFCURVE",
"283 345 OFFCURVE",
"238 314 CURVE",
"186 283 OFFCURVE",
"145 271 OFFCURVE",
"110 271 CURVE SMOOTH",
"51 271 OFFCURVE",
"20 313 OFFCURVE",
"20 373 CURVE SMOOTH",
"20 474 OFFCURVE",
"105 583 OFFCURVE",
"226 583 CURVE SMOOTH",
"277 583 OFFCURVE",
"325 569 OFFCURVE",
"384 533 CURVE SMOOTH"
);
}
);
width = 475;
}
);
unicode = 0024;
},
{
glyphname = percent;
layers = (
{
layerId = "40D00E06-06D8-47EA-A1ED-37FDE38D6C1B";
name = Light;
paths = (
{
closed = 1;
nodes = (
"219 432 OFFCURVE",
"167 393 OFFCURVE",
"115 393 CURVE SMOOTH",
"83 393 OFFCURVE",
"45 409 OFFCURVE",
"25 447 CURVE",
"14 466 OFFCURVE",
"9 486 OFFCURVE",
"9 507 CURVE SMOOTH",
"9 559 OFFCURVE",
"36 610 OFFCURVE",
"81 645 CURVE SMOOTH",
"103 662 OFFCURVE",
"127 671 OFFCURVE",
"153 671 CURVE SMOOTH",
"181 671 OFFCURVE",
"219 659 OFFCURVE",
"242 620 CURVE SMOOTH",
"253 600 OFFCURVE",
"259 578 OFFCURVE",
"259 554 CURVE SMOOTH",
"259 529 OFFCURVE",
"254 505 OFFCURVE",
"244 484 CURVE SMOOTH"
);
},
{
closed = 1;
nodes = (
"186 4 LINE",
"183 -7 OFFCURVE",
"177 -12 OFFCURVE",
"166 -12 CURVE SMOOTH",
"150 -12 OFFCURVE",
"137 2 OFFCURVE",
"141 19 CURVE",
"346 648 LINE",
"349 659 OFFCURVE",
"355 664 OFFCURVE",
"366 664 CURVE SMOOTH",
"381 664 OFFCURVE",
"395 650 OFFCURVE",
"391 634 CURVE"
);
},
{
closed = 1;
nodes = (
"507 25 OFFCURVE",
"454 -14 OFFCURVE",
"402 -14 CURVE SMOOTH",
"388 -14 OFFCURVE",
"373 -11 OFFCURVE",
"358 -5 CURVE",
"318 16 OFFCURVE",
"297 57 OFFCURVE",
"297 101 CURVE SMOOTH",
"297 153 OFFCURVE",
"324 205 OFFCURVE",
"369 239 CURVE SMOOTH",
"392 256 OFFCURVE",
"416 264 OFFCURVE",
"443 264 CURVE SMOOTH",
"470 264 OFFCURVE",
"509 252 OFFCURVE",
"531 212 CURVE SMOOTH",
"542 192 OFFCURVE",
"547 170 OFFCURVE",
"547 146 CURVE SMOOTH",
"547 121 OFFCURVE",
"542 98 OFFCURVE",
"532 77 CURVE SMOOTH"
);
},
{
closed = 1;
nodes = (
"184 467 OFFCURVE",
"147 439 OFFCURVE",
"115 439 CURVE SMOOTH",
"96 439 OFFCURVE",
"56 445 OFFCURVE",
"56 504 CURVE SMOOTH",
"56 525 OFFCURVE",
"63 549 OFFCURVE",
"75 573 CURVE",
"47 579 LINE",
"47 564 LINE",
"69 562 LINE",
"89 599 OFFCURVE",
"120 625 OFFCURVE",
"152 625 CURVE SMOOTH",
"168 625 OFFCURVE",
"189 620 OFFCURVE",
"202 597 CURVE",
"208 585 OFFCURVE",
"211 571 OFFCURVE",
"211 556 CURVE SMOOTH",
"211 537 OFFCURVE",
"207 519 OFFCURVE",
"199 502 CURVE"
);
},
{
closed = 1;
nodes = (
"472 59 OFFCURVE",
"436 32 OFFCURVE",
"403 32 CURVE SMOOTH",
"384 32 OFFCURVE",
"363 40 OFFCURVE",
"352 60 CURVE",
"347 70 OFFCURVE",
"344 82 OFFCURVE",
"344 97 CURVE SMOOTH",
"344 118 OFFCURVE",
"351 143 OFFCURVE",
"363 167 CURVE",
"335 173 LINE",
"335 157 LINE",
"356 153 LINE",
"376 190 OFFCURVE",
"408 218 OFFCURVE",
"440 218 CURVE SMOOTH",
"456 218 OFFCURVE",
"477 212 OFFCURVE",
"490 188 CURVE SMOOTH",
"497 176 OFFCURVE",
"500 162 OFFCURVE",
"500 147 CURVE SMOOTH",
"500 128 OFFCURVE",
"496 111 OFFCURVE",
"488 95 CURVE"
);
}
);
width = 608;
}
);
unicode = 0025;
},
{
glyphname = ampersand;
layers = (
{
layerId = "40D00E06-06D8-47EA-A1ED-37FDE38D6C1B";
name = Light;
paths = (
{
closed = 1;
nodes = (
"495 13 LINE",
"464 16 LINE",
"463 16 OFFCURVE",
"444 44 OFFCURVE",
"405 101 CURVE SMOOTH",
"327 214 OFFCURVE",
"224 366 OFFCURVE",
"196 419 CURVE",
"214 433 LINE",
"226 421 LINE",
"207 404 LINE",
"167 449 OFFCURVE",
"150 493 OFFCURVE",
"150 532 CURVE SMOOTH",
"150 608 OFFCURVE",
"224 662 OFFCURVE",
"299 662 CURVE SMOOTH",
"358 662 OFFCURVE",
"400 629 OFFCURVE",
"400 564 CURVE SMOOTH",
"400 471 OFFCURVE",
"261 422 OFFCURVE",
"154 370 CURVE",
"96 331 OFFCURVE",
"67 278 OFFCURVE",
"67 211 CURVE SMOOTH",
"67 91 OFFCURVE",
"102 38 OFFCURVE",
"159 38 CURVE SMOOTH",
"252 38 OFFCURVE",
"410 206 OFFCURVE",
"439 270 CURVE SMOOTH",
"453 302 OFFCURVE",
"465 318 OFFCURVE",
"474 318 CURVE SMOOTH",
"490 318 OFFCURVE",
"504 305 OFFCURVE",
"499 289 CURVE",
"448 169 OFFCURVE",
"262 -6 OFFCURVE",
"143 -6 CURVE SMOOTH",
"68 -6 OFFCURVE",
"21 59 OFFCURVE",
"21 211 CURVE SMOOTH",
"21 304 OFFCURVE",
"68 363 OFFCURVE",
"122 396 CURVE SMOOTH",
"149 412 OFFCURVE",
"185 430 OFFCURVE",
"230 449 CURVE",
"237 441 LINE",
"239 437 LINE SMOOTH",
"276 368 OFFCURVE",
"382 212 OFFCURVE",
"482 69 CURVE",
"508 97 LINE",
"513 102 OFFCURVE",
"518 105 OFFCURVE",
"525 105 CURVE SMOOTH",
"537 105 OFFCURVE",
"550 94 OFFCURVE",
"550 81 CURVE SMOOTH",
"550 76 OFFCURVE",
"548 71 OFFCURVE",
"545 68 CURVE"
);
}
);
width = 584;
}
);
unicode = 0026;
},
{
glyphname = quotesingle;
layers = (
{
layerId = "40D00E06-06D8-47EA-A1ED-37FDE38D6C1B";
name = Light;
paths = (
{
closed = 1;
nodes = (
"79 447 LINE SMOOTH",
"79 434 OFFCURVE",
"68 425 OFFCURVE",
"56 425 CURVE SMOOTH",
"40 425 OFFCURVE",
"32 432 OFFCURVE",
"32 447 CURVE SMOOTH",
"32 631 LINE SMOOTH",
"32 646 OFFCURVE",
"40 653 OFFCURVE",
"56 653 CURVE SMOOTH",
"71 653 OFFCURVE",
"79 646 OFFCURVE",
"79 631 CURVE SMOOTH"
);
}
);
width = 106;
}
);
unicode = 0027;
},
{
glyphname = parenleft;
layers = (
{
layerId = "40D00E06-06D8-47EA-A1ED-37FDE38D6C1B";
name = Light;
paths = (
{
closed = 1;
nodes = (
"274 -191 OFFCURVE",
"276 -196 OFFCURVE",
"276 -201 CURVE SMOOTH",
"276 -213 OFFCURVE",
"264 -223 OFFCURVE",
"251 -223 CURVE SMOOTH",
"244 -223 OFFCURVE",
"225 -205 OFFCURVE",
"192 -169 CURVE SMOOTH",
"127 -98 OFFCURVE",
"68 39 OFFCURVE",
"68 223 CURVE SMOOTH",
"68 398 OFFCURVE",
"127 527 OFFCURVE",
"193 600 CURVE SMOOTH",
"226 637 OFFCURVE",
"245 655 OFFCURVE",
"250 655 CURVE SMOOTH",
"263 655 OFFCURVE",
"276 644 OFFCURVE",
"276 631 CURVE SMOOTH",
"276 627 OFFCURVE",
"261 608 OFFCURVE",
"231 574 CURVE SMOOTH",
"171 505 OFFCURVE",
"115 386 OFFCURVE",
"115 223 CURVE SMOOTH",
"115 50 OFFCURVE",
"154 -58 OFFCURVE",
"270 -186 CURVE"
);
}
);
width = 307;
}
);
unicode = 0028;
},
{
glyphname = parenright;
layers = (
{
layerId = "40D00E06-06D8-47EA-A1ED-37FDE38D6C1B";
name = Light;
paths = (
{
closed = 1;
nodes = (
"235 40 OFFCURVE",
"177 -97 OFFCURVE",
"111 -169 CURVE SMOOTH",
"78 -205 OFFCURVE",
"58 -223 OFFCURVE",
"51 -223 CURVE SMOOTH",
"39 -223 OFFCURVE",
"26 -212 OFFCURVE",
"26 -200 CURVE SMOOTH",
"26 -196 OFFCURVE",
"41 -177 OFFCURVE",
"72 -143 CURVE SMOOTH",
"132 -75 OFFCURVE",
"187 52 OFFCURVE",
"187 223 CURVE SMOOTH",
"187 388 OFFCURVE",
"133 503 OFFCURVE",
"72 573 CURVE SMOOTH",
"41 608 OFFCURVE",
"26 627 OFFCURVE",
"26 632 CURVE SMOOTH",
"26 644 OFFCURVE",
"39 655 OFFCURVE",
"51 655 CURVE SMOOTH",
"57 655 OFFCURVE",
"76 637 OFFCURVE",
"109 600 CURVE SMOOTH",
"174 527 OFFCURVE",
"235 396 OFFCURVE",
"235 223 CURVE SMOOTH"
);
}
);
width = 279;
}
);
unicode = 0029;
},
{
glyphname = asterisk;
layers = (
{
layerId = "40D00E06-06D8-47EA-A1ED-37FDE38D6C1B";
name = Light;
paths = (
{
closed = 1;
nodes = (
"273 458 LINE",
"276 455 OFFCURVE",
"278 450 OFFCURVE",
"278 445 CURVE SMOOTH",
"278 437 OFFCURVE",
"270 424 OFFCURVE",
"253 424 CURVE SMOOTH",
"246 424 OFFCURVE",
"241 427 OFFCURVE",
"237 432 CURVE",
"68 627 LINE",
"65 630 OFFCURVE",
"63 635 OFFCURVE",
"63 640 CURVE SMOOTH",
"63 652 OFFCURVE",
"74 663 OFFCURVE",
"87 663 CURVE SMOOTH",
"94 663 OFFCURVE",
"99 660 OFFCURVE",
"104 653 CURVE"
);
},
{
closed = 1;
nodes = (
"52 502 LINE",
"35 502 OFFCURVE",
"26 510 OFFCURVE",
"26 526 CURVE SMOOTH",
"26 538 OFFCURVE",
"33 544 OFFCURVE",
"46 544 CURVE",
"295 584 LINE",
"310 584 OFFCURVE",
"320 571 OFFCURVE",
"320 560 CURVE SMOOTH",
"320 548 OFFCURVE",
"314 542 OFFCURVE",
"301 542 CURVE"
);
},
{
closed = 1;
nodes = (
"107 435 LINE",
"104 430 OFFCURVE",
"98 427 OFFCURVE",
"91 427 CURVE SMOOTH",
"79 427 OFFCURVE",
"66 438 OFFCURVE",
"66 451 CURVE SMOOTH",
"66 456 OFFCURVE",
"67 459 OFFCURVE",
"70 462 CURVE",
"242 650 LINE",
"246 655 OFFCURVE",
"251 657 OFFCURVE",
"257 657 CURVE SMOOTH",
"270 657 OFFCURVE",
"284 645 OFFCURVE",
"284 633 CURVE SMOOTH",
"284 630 OFFCURVE",
"282 626 OFFCURVE",
"279 621 CURVE"
);
}
);
width = 360;
}
);
unicode = 002A;
},
{
glyphname = plus;
layers = (
{
layerId = "40D00E06-06D8-47EA-A1ED-37FDE38D6C1B";
name = Light;
paths = (
{
closed = 1;
nodes = (
"44 194 LINE SMOOTH",
"28 194 OFFCURVE",
"22 209 OFFCURVE",
"22 216 CURVE SMOOTH",
"22 229 OFFCURVE",
"29 239 OFFCURVE",
"44 239 CURVE SMOOTH",
"452 239 LINE SMOOTH",
"471 239 OFFCURVE",
"475 227 OFFCURVE",
"475 216 CURVE SMOOTH",
"475 201 OFFCURVE",
"467 194 OFFCURVE",
"452 194 CURVE SMOOTH"
);
},
{
closed = 1;
nodes = (
"276 13 LINE SMOOTH",
"276 -2 OFFCURVE",
"268 -10 OFFCURVE",
"253 -10 CURVE SMOOTH",
"241 -10 OFFCURVE",
"229 0 OFFCURVE",
"229 13 CURVE SMOOTH",
"229 403 LINE SMOOTH",
"229 419 OFFCURVE",
"246 425 OFFCURVE",
"253 425 CURVE SMOOTH",
"268 425 OFFCURVE",
"276 414 OFFCURVE",
"276 403 CURVE SMOOTH"
);
}
);
width = 499;
}
);
unicode = 002B;
},
{
glyphname = comma;
layers = (
{
layerId = "40D00E06-06D8-47EA-A1ED-37FDE38D6C1B";
name = Light;
paths = (
{
closed = 1;
nodes = (
"154 16 OFFCURVE",
"154 10 OFFCURVE",
"154 3 CURVE SMOOTH",
"154 -22 OFFCURVE",
"146 -47 OFFCURVE",
"119 -69 CURVE SMOOTH",
"92 -91 OFFCURVE",
"75 -98 OFFCURVE",
"47 -98 CURVE",
"23 -99 OFFCURVE",
"9 -89 OFFCURVE",
"9 -73 CURVE SMOOTH",
"9 -59 OFFCURVE",
"19 -50 OFFCURVE",
"39 -46 CURVE",
"50 -42 OFFCURVE",
"62 -38 OFFCURVE",
"74 -35 CURVE",
"80 -32 OFFCURVE",
"85 -26 OFFCURVE",
"88 -18 CURVE",
"56 -22 OFFCURVE",
"35 -3 OFFCURVE",
"35 26 CURVE",
"36 30 OFFCURVE",
"36 33 OFFCURVE",
"36 35 CURVE",
"40 68 OFFCURVE",
"61 86 OFFCURVE",
"90 86 CURVE SMOOTH",
"143 86 OFFCURVE",
"153 51 OFFCURVE",
"153 19 CURVE"
);
}
);
width = 185;
}
);
unicode = 002C;
},
{
glyphname = hyphen;
layers = (
{
layerId = "40D00E06-06D8-47EA-A1ED-37FDE38D6C1B";
name = Light;
paths = (
{
closed = 1;
nodes = (
"36 233 LINE",
"17 233 OFFCURVE",
"8 238 OFFCURVE",
"8 249 CURVE SMOOTH",
"8 258 OFFCURVE",
"16 263 OFFCURVE",
"33 263 CURVE",
"253 274 LINE",
"272 274 OFFCURVE",
"281 269 OFFCURVE",
"281 258 CURVE SMOOTH",
"281 249 OFFCURVE",
"273 245 OFFCURVE",
"256 245 CURVE"
);
}
);
width = 294;
}
);
unicode = 002D;
},
{
glyphname = period;
layers = (
{
layerId = "40D00E06-06D8-47EA-A1ED-37FDE38D6C1B";
name = Light;
paths = (
{
closed = 1;
nodes = (
"133 17 OFFCURVE",
"109 -1 OFFCURVE",
"81 -1 CURVE SMOOTH",
"54 -1 OFFCURVE",
"34 18 OFFCURVE",
"34 43 CURVE SMOOTH",
"34 66 OFFCURVE",
"57 82 OFFCURVE",
"84 82 CURVE SMOOTH",
"112 82 OFFCURVE",
"133 64 OFFCURVE",
"133 40 CURVE SMOOTH"
);
}
);
width = 166;
}
);
unicode = 002E;
},
{
glyphname = slash;
layers = (
{
layerId = "40D00E06-06D8-47EA-A1ED-37FDE38D6C1B";
name = Light;
paths = (
{
closed = 1;
nodes = (
"72 15 LINE SMOOTH",
"69 5 OFFCURVE",
"62 0 OFFCURVE",
"51 0 CURVE SMOOTH",
"36 0 OFFCURVE",
"23 13 OFFCURVE",
"28 29 CURVE SMOOTH",
"230 638 LINE",
"233 649 OFFCURVE",
"240 654 OFFCURVE",
"251 654 CURVE SMOOTH",
"267 654 OFFCURVE",
"279 641 OFFCURVE",
"274 624 CURVE SMOOTH"
);
}
);
width = 307;
}
);
unicode = 002F;
},
{
glyphname = zero;
layers = (
{
layerId = "40D00E06-06D8-47EA-A1ED-37FDE38D6C1B";
name = Light;
paths = (
{
closed = 1;
nodes = (
"573 205 OFFCURVE",
"412 -11 OFFCURVE",
"216 -11 CURVE SMOOTH",
"91 -11 OFFCURVE",
"21 127 OFFCURVE",
"21 272 CURVE SMOOTH",
"21 439 OFFCURVE",
"165 637 OFFCURVE",
"346 637 CURVE SMOOTH",
"486 637 OFFCURVE",
"573 538 OFFCURVE",
"573 373 CURVE SMOOTH"
);
},
{
closed = 1;
nodes = (
"525 516 OFFCURVE",
"459 592 OFFCURVE",
"346 592 CURVE SMOOTH",
"195 592 OFFCURVE",
"68 415 OFFCURVE",
"68 272 CURVE SMOOTH",
"68 149 OFFCURVE",
"124 35 OFFCURVE",
"216 35 CURVE SMOOTH",
"381 35 OFFCURVE",
"525 228 OFFCURVE",
"525 373 CURVE SMOOTH"
);
}
);
width = 599;
}
);
unicode = 0030;
},
{
glyphname = one;
layers = (
{
layerId = "40D00E06-06D8-47EA-A1ED-37FDE38D6C1B";
name = Light;
paths = (
{
closed = 1;
nodes = (
"199 13 LINE SMOOTH",
"199 -2 OFFCURVE",
"191 -10 OFFCURVE",
"175 -10 CURVE SMOOTH",
"159 -10 OFFCURVE",
"151 -2 OFFCURVE",
"151 13 CURVE SMOOTH",
"151 577 LINE",
"66 495 LINE SMOOTH",
"62 491 OFFCURVE",
"57 489 OFFCURVE",
"50 489 CURVE SMOOTH",
"38 489 OFFCURVE",
"26 499 OFFCURVE",
"26 512 CURVE SMOOTH",
"26 517 OFFCURVE",
"28 522 OFFCURVE",
"33 527 CURVE SMOOTH",
"165 653 LINE",
"199 640 LINE"
);
}
);
width = 264;
}
);
unicode = 0031;
},
{
glyphname = two;
layers = (
{
layerId = "40D00E06-06D8-47EA-A1ED-37FDE38D6C1B";
name = Light;
paths = (
{
closed = 1;
nodes = (
"469 389 OFFCURVE",
"392 332 OFFCURVE",
"221 196 CURVE SMOOTH",
"136 127 OFFCURVE",
"88 77 OFFCURVE",
"79 44 CURVE",
"420 44 LINE",
"420 119 LINE SMOOTH",
"420 135 OFFCURVE",
"428 143 OFFCURVE",
"444 143 CURVE SMOOTH",
"459 143 OFFCURVE",
"467 135 OFFCURVE",
"467 119 CURVE SMOOTH",
"467 17 LINE",
"448 -2 LINE",
"48 -2 LINE",
"30 18 LINE",
"30 109 OFFCURVE",
"193 226 OFFCURVE",
"320 330 CURVE",
"389 392 OFFCURVE",
"423 447 OFFCURVE",
"423 494 CURVE SMOOTH",
"423 574 OFFCURVE",
"358 619 OFFCURVE",
"274 619 CURVE SMOOTH",
"169 619 OFFCURVE",
"74 549 OFFCURVE",
"74 429 CURVE SMOOTH",
"74 414 OFFCURVE",
"63 406 OFFCURVE",
"51 406 CURVE SMOOTH",
"35 406 OFFCURVE",
"27 414 OFFCURVE",
"27 429 CURVE SMOOTH",
"27 577 OFFCURVE",
"142 663 OFFCURVE",
"273 663 CURVE SMOOTH",
"382 663 OFFCURVE",
"469 601 OFFCURVE",
"469 494 CURVE SMOOTH"
);
}
);
width = 536;
}
);
unicode = 0032;
},
{
glyphname = three;
layers = (
{
layerId = "40D00E06-06D8-47EA-A1ED-37FDE38D6C1B";
name = Light;
paths = (
{
closed = 1;
nodes = (
"548 110 OFFCURVE",
"390 -11 OFFCURVE",
"222 -11 CURVE SMOOTH",
"62 -11 OFFCURVE",
"30 73 OFFCURVE",
"30 181 CURVE SMOOTH",
"30 190 OFFCURVE",
"27 203 OFFCURVE",
"46 203 CURVE",
"61 205 LINE",
"77 205 OFFCURVE",
"85 194 OFFCURVE",
"85 182 CURVE SMOOTH",
"85 167 OFFCURVE",
"77 159 OFFCURVE",
"61 159 CURVE SMOOTH",
"48 159 OFFCURVE",
"42 161 OFFCURVE",
"42 166 CURVE SMOOTH",
"42 171 OFFCURVE",
"48 177 OFFCURVE",
"55 182 CURVE",
"64 184 OFFCURVE",
"70 185 OFFCURVE",
"73 185 CURVE",
"76 184 OFFCURVE",
"77 183 OFFCURVE",
"77 181 CURVE SMOOTH",
"77 86 OFFCURVE",
"93 35 OFFCURVE",
"222 35 CURVE SMOOTH",
"366 35 OFFCURVE",
"500 136 OFFCURVE",
"500 263 CURVE SMOOTH",
"500 374 OFFCURVE",
"436 418 OFFCURVE",
"348 418 CURVE SMOOTH",
"279 418 OFFCURVE",
"207 386 OFFCURVE",
"198 367 CURVE",
"193 358 OFFCURVE",
"189 353 OFFCURVE",
"184 353 CURVE SMOOTH",
"171 353 OFFCURVE",
"153 367 OFFCURVE",
"153 378 CURVE SMOOTH",
"153 381 OFFCURVE",
"154 383 OFFCURVE",
"156 385 CURVE",
"415 600 LINE",
"415 609 LINE",
"121 609 LINE",
"121 518 LINE SMOOTH",
"121 503 OFFCURVE",
"110 495 OFFCURVE",
"98 495 CURVE SMOOTH",
"82 495 OFFCURVE",
"74 503 OFFCURVE",
"74 518 CURVE SMOOTH",
"74 632 LINE SMOOTH",
"74 647 OFFCURVE",
"82 654 OFFCURVE",
"97 654 CURVE SMOOTH",
"438 654 LINE SMOOTH",
"454 654 OFFCURVE",
"462 647 OFFCURVE",
"462 632 CURVE SMOOTH",
"462 589 LINE SMOOTH",
"462 584 OFFCURVE",
"458 578 OFFCURVE",
"453 573 CURVE",
"319 460 LINE",
"332 462 OFFCURVE",
"345 463 OFFCURVE",
"358 463 CURVE SMOOTH",
"467 463 OFFCURVE",
"548 403 OFFCURVE",
"548 263 CURVE SMOOTH"
);
}
);
width = 570;
}
);
unicode = 0033;
},
{
glyphname = four;
layers = (
{
layerId = "40D00E06-06D8-47EA-A1ED-37FDE38D6C1B";
name = Light;
paths = (
{
closed = 1;
nodes = (
"15 194 LINE",
"-4 228 LINE",
"357 653 LINE",
"393 638 LINE",
"393 16 LINE SMOOTH",
"393 1 OFFCURVE",
"385 -7 OFFCURVE",
"369 -7 CURVE SMOOTH",
"353 -7 OFFCURVE",
"345 1 OFFCURVE",
"345 16 CURVE SMOOTH",
"345 566 LINE",
"76 248 LINE",
"520 318 LINE",
"535 318 OFFCURVE",
"545 305 OFFCURVE",
"545 293 CURVE SMOOTH",
"545 280 OFFCURVE",
"538 274 OFFCURVE",
"525 274 CURVE"
);
}
);
width = 570;
}
);
unicode = 0034;
},
{
glyphname = five;
layers = (
{
layerId = "40D00E06-06D8-47EA-A1ED-37FDE38D6C1B";
name = Light;
paths = (
{
closed = 1;
nodes = (
"514 111 OFFCURVE",
"362 -6 OFFCURVE",
"199 -6 CURVE SMOOTH",
"115 -6 OFFCURVE",
"40 54 OFFCURVE",
"32 146 CURVE",
"32 161 OFFCURVE",
"43 170 OFFCURVE",
"58 170 CURVE SMOOTH",
"71 170 OFFCURVE",
"78 163 OFFCURVE",
"78 149 CURVE",
"87 80 OFFCURVE",
"135 41 OFFCURVE",
"199 41 CURVE SMOOTH",
"336 41 OFFCURVE",
"467 137 OFFCURVE",
"467 274 CURVE SMOOTH",
"467 375 OFFCURVE",
"391 422 OFFCURVE",
"288 422 CURVE SMOOTH",
"145 422 OFFCURVE",
"104 362 OFFCURVE",
"76 314 CURVE",
"34 321 LINE",
"30 597 LINE",
"47 612 LINE",
"444 648 LINE",
"460 648 OFFCURVE",
"468 640 OFFCURVE",
"468 624 CURVE SMOOTH",
"468 611 OFFCURVE",
"461 604 OFFCURVE",
"447 604 CURVE",
"77 571 LINE",
"78 396 LINE",
"122 436 OFFCURVE",
"191 467 OFFCURVE",
"288 467 CURVE SMOOTH",
"413 467 OFFCURVE",
"514 405 OFFCURVE",
"514 274 CURVE SMOOTH"
);
}
);
width = 541;
}
);
unicode = 0035;
},
{
glyphname = six;
layers = (
{
layerId = "40D00E06-06D8-47EA-A1ED-37FDE38D6C1B";
name = Light;
paths = (
{
closed = 1;
nodes = (
"139 90 OFFCURVE",
"206 43 OFFCURVE",
"285 43 CURVE SMOOTH",
"420 43 OFFCURVE",
"534 137 OFFCURVE",
"534 258 CURVE SMOOTH",
"534 330 OFFCURVE",
"478 353 OFFCURVE",
"393 353 CURVE SMOOTH",
"304 353 OFFCURVE",
"200 297 OFFCURVE",
"103 161 CURVE"
);
},
{
closed = 1;
nodes = (
"166 318 OFFCURVE",
"266 398 OFFCURVE",
"393 398 CURVE SMOOTH",
"498 398 OFFCURVE",
"581 361 OFFCURVE",
"581 258 CURVE SMOOTH",
"581 110 OFFCURVE",
"445 -3 OFFCURVE",
"285 -3 CURVE SMOOTH",
"141 -3 OFFCURVE",
"30 125 OFFCURVE",
"30 266 CURVE SMOOTH",
"30 438 OFFCURVE",
"200 655 OFFCURVE",
"365 655 CURVE SMOOTH",
"428 655 OFFCURVE",
"494 620 OFFCURVE",
"523 581 CURVE SMOOTH",
"538 562 OFFCURVE",
"545 550 OFFCURVE",
"545 546 CURVE SMOOTH",
"545 533 OFFCURVE",
"533 523 OFFCURVE",
"521 523 CURVE SMOOTH",
"513 523 OFFCURVE",
"503 531 OFFCURVE",
"491 548 CURVE SMOOTH",
"467 580 OFFCURVE",
"414 611 OFFCURVE",
"365 611 CURVE SMOOTH",
"228 611 OFFCURVE",
"77 418 OFFCURVE",
"77 266 CURVE SMOOTH",
"77 249 OFFCURVE",
"79 231 OFFCURVE",
"83 213 CURVE"
);
}
);
width = 613;
}
);
unicode = 0036;
},
{
glyphname = seven;
layers = (
{
layerId = "40D00E06-06D8-47EA-A1ED-37FDE38D6C1B";
name = Light;
paths = (
{
closed = 1;
nodes = (
"432 636 LINE",
"429 609 OFFCURVE",
"397 540 OFFCURVE",
"334 429 CURVE SMOOTH",
"271 318 OFFCURVE",
"226 233 OFFCURVE",
"197 176 CURVE SMOOTH",
"168 118 OFFCURVE",
"153 65 OFFCURVE",
"153 18 CURVE SMOOTH",
"153 -7 OFFCURVE",
"141 -10 OFFCURVE",
"132 -10 CURVE SMOOTH",
"123 -10 OFFCURVE",
"107 -6 OFFCURVE",
"107 13 CURVE",
"118 110 OFFCURVE",
"181 232 OFFCURVE",
"285 421 CURVE SMOOTH",
"336 515 OFFCURVE",
"367 575 OFFCURVE",
"376 601 CURVE",
"79 566 LINE",
"79 509 LINE SMOOTH",
"79 494 OFFCURVE",
"68 486 OFFCURVE",
"56 486 CURVE SMOOTH",
"40 486 OFFCURVE",
"32 494 OFFCURVE",
"32 509 CURVE SMOOTH",
"32 592 LINE",
"47 606 LINE",
"186 622 OFFCURVE",
"343 641 OFFCURVE",
"410 653 CURVE"
);
}
);
width = 460;
}
);
unicode = 0037;
},
{
glyphname = eight;
layers = (
{
layerId = "40D00E06-06D8-47EA-A1ED-37FDE38D6C1B";
name = Light;
paths = (
{
closed = 1;
nodes = (
"576 357 OFFCURVE",
"583 329 OFFCURVE",
"583 302 CURVE SMOOTH",
"583 226 OFFCURVE",
"530 156 OFFCURVE",
"455 96 CURVE SMOOTH",
"379 36 OFFCURVE",
"274 0 OFFCURVE",
"187 0 CURVE SMOOTH",
"136 0 OFFCURVE",
"102 8 OFFCURVE",
"71 41 CURVE SMOOTH",
"39 73 OFFCURVE",
"21 115 OFFCURVE",
"21 158 CURVE SMOOTH",
"21 231 OFFCURVE",
"78 304 OFFCURVE",
"174 359 CURVE",
"139 370 OFFCURVE",
"114 393 OFFCURVE",
"104 429 CURVE SMOOTH",
"99 446 OFFCURVE",
"96 463 OFFCURVE",
"96 478 CURVE SMOOTH",
"96 545 OFFCURVE",
"136 596 OFFCURVE",
"217 638 CURVE SMOOTH",
"257 659 OFFCURVE",
"299 669 OFFCURVE",
"344 669 CURVE SMOOTH",
"399 669 OFFCURVE",
"440 649 OFFCURVE",
"456 618 CURVE",
"471 586 OFFCURVE",
"474 571 OFFCURVE",
"474 550 CURVE SMOOTH",
"474 505 OFFCURVE",
"450 466 OFFCURVE",
"410 433 CURVE",
"483 433 OFFCURVE",
"538 423 OFFCURVE",
"562 384 CURVE"
);
},
{
closed = 1;
nodes = (
"408 615 OFFCURVE",
"380 625 OFFCURVE",
"345 625 CURVE SMOOTH",
"269 625 OFFCURVE",
"144 566 OFFCURVE",
"144 478 CURVE SMOOTH",
"144 459 OFFCURVE",
"146 427 OFFCURVE",
"170 411 CURVE",
"182 402 OFFCURVE",
"201 398 OFFCURVE",
"228 398 CURVE SMOOTH",
"233 398 OFFCURVE",
"239 398 OFFCURVE",
"244 398 CURVE",
"250 399 OFFCURVE",
"254 400 OFFCURVE",
"257 400 CURVE",
"290 412 LINE",
"362 443 OFFCURVE",
"426 492 OFFCURVE",
"426 551 CURVE SMOOTH",
"426 565 OFFCURVE",
"423 579 OFFCURVE",
"416 592 CURVE"
);
},
{
closed = 1;
nodes = (
"512 382 OFFCURVE",
"486 390 OFFCURVE",
"446 390 CURVE SMOOTH",
"395 390 OFFCURVE",
"350 382 OFFCURVE",
"299 367 CURVE",
"278 360 LINE",
"150 307 OFFCURVE",
"70 233 OFFCURVE",
"70 158 CURVE SMOOTH",
"70 126 OFFCURVE",
"84 95 OFFCURVE",
"112 65 CURVE",
"125 50 OFFCURVE",
"149 42 OFFCURVE",
"184 42 CURVE SMOOTH",
"261 42 OFFCURVE",
"358 75 OFFCURVE",
"422 130 CURVE",
"494 186 OFFCURVE",
"536 238 OFFCURVE",
"536 301 CURVE SMOOTH",
"536 321 OFFCURVE",
"531 342 OFFCURVE",
"520 363 CURVE"
);
}
);
width = 599;
}
);
unicode = 0038;
},
{
glyphname = nine;
layers = (
{
layerId = "40D00E06-06D8-47EA-A1ED-37FDE38D6C1B";
name = Light;
paths = (
{
closed = 1;
nodes = (
"461 568 OFFCURVE",
"403 610 OFFCURVE",
"299 610 CURVE SMOOTH",
"206 610 OFFCURVE",
"107 527 OFFCURVE",
"107 436 CURVE SMOOTH",
"107 367 OFFCURVE",
"181 304 OFFCURVE",
"260 304 CURVE SMOOTH",
"367 304 OFFCURVE",
"478 384 OFFCURVE",
"489 499 CURVE"
);
},
{
closed = 1;
nodes = (
"508 403 LINE",
"460 314 OFFCURVE",
"356 258 OFFCURVE",
"260 258 CURVE SMOOTH",
"155 258 OFFCURVE",
"60 341 OFFCURVE",
"60 436 CURVE SMOOTH",
"60 553 OFFCURVE",
"179 656 OFFCURVE",
"299 656 CURVE SMOOTH",
"490 656 OFFCURVE",
"555 534 OFFCURVE",
"555 375 CURVE SMOOTH",
"555 154 OFFCURVE",
"401 -12 OFFCURVE",
"241 -12 CURVE SMOOTH",
"156 -12 OFFCURVE",
"80 37 OFFCURVE",
"36 140 CURVE",
"31 156 OFFCURVE",
"45 172 OFFCURVE",
"61 172 CURVE SMOOTH",
"70 172 OFFCURVE",
"77 167 OFFCURVE",
"80 157 CURVE",
"115 73 OFFCURVE",
"173 34 OFFCURVE",
"245 34 CURVE SMOOTH",
"378 34 OFFCURVE",
"509 178 OFFCURVE",
"509 375 CURVE"
);
}
);
width = 580;
}
);
unicode = 0039;
},
{
glyphname = colon;
layers = (
{
layerId = "40D00E06-06D8-47EA-A1ED-37FDE38D6C1B";
name = Light;
paths = (
{
closed = 1;
nodes = (
"158 336 OFFCURVE",
"133 313 OFFCURVE",
"106 313 CURVE SMOOTH",
"79 313 OFFCURVE",
"59 337 OFFCURVE",
"59 366 CURVE SMOOTH",
"59 397 OFFCURVE",
"81 416 OFFCURVE",
"109 416 CURVE SMOOTH",
"134 416 OFFCURVE",
"158 391 OFFCURVE",
"158 363 CURVE SMOOTH"
);
},
{
closed = 1;
nodes = (
"158 21 OFFCURVE",
"133 -2 OFFCURVE",
"106 -2 CURVE SMOOTH",
"79 -2 OFFCURVE",
"59 22 OFFCURVE",
"59 51 CURVE SMOOTH",
"59 80 OFFCURVE",
"82 101 OFFCURVE",
"109 101 CURVE SMOOTH",
"137 101 OFFCURVE",
"158 78 OFFCURVE",
"158 49 CURVE SMOOTH"
);
}
);
width = 189;
}
);
unicode = 003A;
},
{
glyphname = semicolon;
layers = (
{
layerId = "40D00E06-06D8-47EA-A1ED-37FDE38D6C1B";
name = Light;
paths = (
{
closed = 1;
nodes = (
"150 336 OFFCURVE",
"126 314 OFFCURVE",
"98 314 CURVE SMOOTH",
"70 314 OFFCURVE",
"51 339 OFFCURVE",
"51 368 CURVE SMOOTH",
"51 395 OFFCURVE",
"74 418 OFFCURVE",
"101 418 CURVE SMOOTH",
"128 418 OFFCURVE",
"150 394 OFFCURVE",
"150 365 CURVE SMOOTH"
);
},
{
closed = 1;
nodes = (
"172 27 OFFCURVE",
"172 22 OFFCURVE",
"172 19 CURVE SMOOTH",
"172 -10 OFFCURVE",
"163 -38 OFFCURVE",
"136 -62 CURVE SMOOTH",
"108 -87 OFFCURVE",
"93 -93 OFFCURVE",
"64 -93 CURVE SMOOTH",
"40 -93 OFFCURVE",
"26 -81 OFFCURVE",
"26 -65 CURVE SMOOTH",
"26 -51 OFFCURVE",
"36 -42 OFFCURVE",
"56 -37 CURVE",
"77 -30 OFFCURVE",
"90 -26 OFFCURVE",
"94 -23 CURVE",
"97 -21 OFFCURVE",
"101 -16 OFFCURVE",
"104 -7 CURVE",
"72 -11 OFFCURVE",
"49 15 OFFCURVE",
"53 50 CURVE",
"53 87 OFFCURVE",
"76 105 OFFCURVE",
"108 105 CURVE SMOOTH",
"148 105 OFFCURVE",
"171 80 OFFCURVE",
"171 33 CURVE"
);
}
);
width = 185;
}
);
unicode = 003B;
},
{
glyphname = less;
layers = (
{
layerId = "40D00E06-06D8-47EA-A1ED-37FDE38D6C1B";
name = Light;
paths = (
{
closed = 1;
nodes = (
"423 35 LINE",
"431 32 OFFCURVE",
"435 26 OFFCURVE",
"435 17 CURVE SMOOTH",
"435 4 OFFCURVE",
"425 -7 OFFCURVE",
"412 -7 CURVE SMOOTH",
"409 -7 OFFCURVE",
"405 -6 OFFCURVE",
"400 -3 CURVE",
"30 198 LINE",
"30 230 LINE",
"401 416 LINE SMOOTH",
"405 418 OFFCURVE",
"409 419 OFFCURVE",
"413 419 CURVE SMOOTH",
"425 419 OFFCURVE",
"436 407 OFFCURVE",
"436 395 CURVE SMOOTH",
"436 387 OFFCURVE",
"432 381 OFFCURVE",
"423 376 CURVE",
"95 212 LINE"
);
}
);
width = 479;
}
);
unicode = 003C;
},
{
glyphname = equal;
layers = (
{
layerId = "40D00E06-06D8-47EA-A1ED-37FDE38D6C1B";
name = Light;
paths = (
{
closed = 1;
nodes = (
"47 301 LINE SMOOTH",
"30 301 OFFCURVE",
"22 308 OFFCURVE",
"22 322 CURVE SMOOTH",
"22 337 OFFCURVE",
"30 344 OFFCURVE",
"47 344 CURVE SMOOTH",
"443 344 LINE SMOOTH",
"456 344 OFFCURVE",
"468 339 OFFCURVE",
"468 322 CURVE SMOOTH",
"468 308 OFFCURVE",
"460 301 OFFCURVE",
"443 301 CURVE SMOOTH"
);
},
{
closed = 1;
nodes = (
"53 128 LINE SMOOTH",
"36 128 OFFCURVE",
"28 135 OFFCURVE",
"28 149 CURVE SMOOTH",
"28 164 OFFCURVE",
"36 171 OFFCURVE",
"53 171 CURVE SMOOTH",
"449 171 LINE SMOOTH",
"462 171 OFFCURVE",
"474 166 OFFCURVE",
"474 149 CURVE SMOOTH",
"474 135 OFFCURVE",
"466 128 OFFCURVE",
"449 128 CURVE SMOOTH"
);
}
);
width = 499;
}
);
unicode = 003D;
},
{
glyphname = greater;
layers = (
{
layerId = "40D00E06-06D8-47EA-A1ED-37FDE38D6C1B";
name = Light;
paths = (
{
closed = 1;
nodes = (
"473 197 LINE",
"97 3 LINE",
"94 2 OFFCURVE",
"91 1 OFFCURVE",
"86 1 CURVE SMOOTH",
"73 1 OFFCURVE",
"62 14 OFFCURVE",
"62 27 CURVE SMOOTH",
"62 35 OFFCURVE",
"66 41 OFFCURVE",
"74 44 CURVE",
"404 213 LINE",
"78 376 LINE",
"69 381 OFFCURVE",
"65 387 OFFCURVE",
"65 395 CURVE SMOOTH",
"65 408 OFFCURVE",
"75 418 OFFCURVE",
"88 418 CURVE SMOOTH",
"91 418 OFFCURVE",
"95 417 OFFCURVE",
"99 415 CURVE SMOOTH",
"473 229 LINE"
);
}
);
width = 499;
}
);
unicode = 003E;
},
{
glyphname = question;
layers = (
{
layerId = "40D00E06-06D8-47EA-A1ED-37FDE38D6C1B";
name = Light;
paths = (
{
closed = 1;
nodes = (
"400 503 OFFCURVE",
"375 469 OFFCURVE",
"324 427 CURVE",
"229 356 OFFCURVE",
"107 273 OFFCURVE",
"110 234 CURVE",
"110 198 OFFCURVE",
"133 183 OFFCURVE",
"166 183 CURVE SMOOTH",
"202 183 OFFCURVE",
"235 203 OFFCURVE",
"226 223 CURVE",
"226 238 OFFCURVE",
"240 248 OFFCURVE",
"255 248 CURVE SMOOTH",
"266 248 OFFCURVE",
"272 243 OFFCURVE",
"272 232 CURVE",
"273 230 OFFCURVE",
"273 228 OFFCURVE",
"273 226 CURVE SMOOTH",
"273 224 OFFCURVE",
"273 222 OFFCURVE",
"273 221 CURVE SMOOTH",
"273 177 OFFCURVE",
"216 141 OFFCURVE",
"157 141 CURVE SMOOTH",
"105 141 OFFCURVE",
"64 171 OFFCURVE",
"64 234 CURVE SMOOTH",
"64 261 OFFCURVE",
"89 296 OFFCURVE",
"139 338 CURVE",
"231 407 OFFCURVE",
"354 491 OFFCURVE",
"354 530 CURVE SMOOTH",
"354 571 OFFCURVE",
"301 622 OFFCURVE",
"240 622 CURVE SMOOTH",
"185 622 OFFCURVE",
"124 579 OFFCURVE",
"95 529 CURVE SMOOTH",
"80 504 OFFCURVE",
"69 491 OFFCURVE",
"61 491 CURVE SMOOTH",
"48 491 OFFCURVE",
"34 500 OFFCURVE",
"34 515 CURVE SMOOTH",
"34 517 OFFCURVE",
"35 520 OFFCURVE",
"36 524 CURVE",
"93 624 OFFCURVE",
"165 668 OFFCURVE",
"234 668 CURVE SMOOTH",
"322 668 OFFCURVE",
"400 594 OFFCURVE",
"400 530 CURVE SMOOTH"
);
},
{
closed = 1;
nodes = (
"211 30 OFFCURVE",
"186 7 OFFCURVE",
"159 7 CURVE SMOOTH",
"131 7 OFFCURVE",
"112 32 OFFCURVE",
"112 61 CURVE SMOOTH",
"112 90 OFFCURVE",
"134 112 OFFCURVE",
"162 112 CURVE SMOOTH",
"189 112 OFFCURVE",
"211 86 OFFCURVE",
"211 58 CURVE SMOOTH"
);
}
);
width = 427;
}
);
unicode = 003F;
},
{
glyphname = at;
layers = (
{
layerId = "40D00E06-06D8-47EA-A1ED-37FDE38D6C1B";
name = Light;
paths = (
{
closed = 1;
nodes = (
"459 322 OFFCURVE",
"462 327 OFFCURVE",
"468 330 CURVE",
"499 381 OFFCURVE",
"514 426 OFFCURVE",
"514 465 CURVE SMOOTH",
"514 481 OFFCURVE",
"510 492 OFFCURVE",
"502 498 CURVE",
"495 505 OFFCURVE",
"486 509 OFFCURVE",
"474 509 CURVE SMOOTH",
"433 509 OFFCURVE",
"370 463 OFFCURVE",
"319 408 CURVE",
"263 355 OFFCURVE",
"208 265 OFFCURVE",
"208 216 CURVE SMOOTH",
"208 198 OFFCURVE",
"215 187 OFFCURVE",
"230 182 CURVE",
"243 175 OFFCURVE",
"257 172 OFFCURVE",
"272 172 CURVE SMOOTH",
"321 172 OFFCURVE",
"369 213 OFFCURVE",
"412 259 CURVE SMOOTH",
"433 282 OFFCURVE",
"449 300 OFFCURVE",
"459 315 CURVE"
);
},
{
closed = 1;
nodes = (
"501 267 OFFCURVE",
"499 227 OFFCURVE",
"499 218 CURVE SMOOTH",
"499 181 OFFCURVE",
"500 169 OFFCURVE",
"507 140 CURVE",
"525 129 OFFCURVE",
"542 123 OFFCURVE",
"558 123 CURVE SMOOTH",
"629 123 OFFCURVE",
"658 255 OFFCURVE",
"658 378 CURVE SMOOTH",
"658 510 OFFCURVE",
"604 609 OFFCURVE",
"468 609 CURVE SMOOTH",
"265 609 OFFCURVE",
"74 425 OFFCURVE",
"74 237 CURVE SMOOTH",
"74 134 OFFCURVE",
"149 42 OFFCURVE",
"254 42 CURVE SMOOTH",
"300 42 OFFCURVE",
"337 51 OFFCURVE",
"364 70 CURVE SMOOTH",
"391 88 OFFCURVE",
"407 97 OFFCURVE",
"411 97 CURVE SMOOTH",
"423 97 OFFCURVE",
"433 85 OFFCURVE",
"433 73 CURVE SMOOTH",
"433 65 OFFCURVE",
"424 55 OFFCURVE",
"406 43 CURVE SMOOTH",
"370 18 OFFCURVE",
"306 -5 OFFCURVE",
"253 -5 CURVE SMOOTH",
"122 -5 OFFCURVE",
"27 110 OFFCURVE",
"27 237 CURVE SMOOTH",
"27 452 OFFCURVE",
"237 654 OFFCURVE",
"468 654 CURVE SMOOTH",
"632 654 OFFCURVE",
"706 529 OFFCURVE",
"706 378 CURVE SMOOTH",
"706 283 OFFCURVE",
"692 209 OFFCURVE",
"663 158 CURVE SMOOTH",
"634 107 OFFCURVE",
"600 81 OFFCURVE",
"560 81 CURVE SMOOTH",
"532 81 OFFCURVE",
"507 89 OFFCURVE",
"472 110 CURVE",
"465 118 LINE",
"456 147 OFFCURVE",
"453 186 OFFCURVE",
"453 233 CURVE",
"368 148 OFFCURVE",
"322 128 OFFCURVE",
"270 128 CURVE SMOOTH",
"250 128 OFFCURVE",
"230 132 OFFCURVE",
"210 141 CURVE",
"181 158 OFFCURVE",
"169 182 OFFCURVE",
"169 217 CURVE SMOOTH",
"169 284 OFFCURVE",
"221 372 OFFCURVE",
"284 439 CURVE",
"349 503 OFFCURVE",
"417 551 OFFCURVE",
"477 551 CURVE SMOOTH",
"498 551 OFFCURVE",
"516 545 OFFCURVE",
"533 532 CURVE",
"548 517 OFFCURVE",
"556 494 OFFCURVE",
"556 463 CURVE SMOOTH",
"556 415 OFFCURVE",
"536 357 OFFCURVE",
"504 302 CURVE"
);
}
);
width = 752;
}
);
unicode = 0040;
},
{
glyphname = A;
layers = (
{
layerId = "40D00E06-06D8-47EA-A1ED-37FDE38D6C1B";
name = Light;
paths = (
{
closed = 1;
nodes = (
"584 22 LINE",
"589 3 OFFCURVE",
"576 -10 OFFCURVE",
"560 -10 CURVE SMOOTH",
"550 -10 OFFCURVE",
"543 -5 OFFCURVE",
"539 4 CURVE",
"423 311 LINE",
"213 311 LINE",
"79 5 LINE",
"76 -4 OFFCURVE",
"70 -9 OFFCURVE",
"60 -9 CURVE SMOOTH",
"44 -9 OFFCURVE",
"30 6 OFFCURVE",
"35 23 CURVE",
"173 339 LINE",
"176 347 LINE",
"309 651 LINE",
"347 649 LINE",
"461 347 LINE",
"464 342 OFFCURVE",
"465 337 OFFCURVE",
"465 333 CURVE"
);
},
{
closed = 1;
nodes = (
"405 356 LINE",
"325 569 LINE",
"232 356 LINE"
);
}
);
width = 603;
}
);
unicode = 0041;
},
{
glyphname = B;
layers = (
{
layerId = "40D00E06-06D8-47EA-A1ED-37FDE38D6C1B";
name = Light;
paths = (
{
closed = 1;
nodes = (
"539 315 OFFCURVE",
"540 308 OFFCURVE",
"540 303 CURVE SMOOTH",
"540 187 OFFCURVE",
"381 92 OFFCURVE",
"226 33 CURVE SMOOTH",
"148 4 OFFCURVE",
"104 -11 OFFCURVE",
"94 -11 CURVE",
"71 9 LINE",
"71 640 LINE SMOOTH",
"71 655 OFFCURVE",
"77 662 OFFCURVE",
"88 662 CURVE SMOOTH",
"99 662 OFFCURVE",
"108 656 OFFCURVE",
"115 644 CURVE",
"117 631 LINE",
"174 654 OFFCURVE",
"265 678 OFFCURVE",
"332 678 CURVE SMOOTH",
"396 678 OFFCURVE",
"442 655 OFFCURVE",
"451 627 CURVE SMOOTH",
"455 613 OFFCURVE",
"457 604 OFFCURVE",
"457 599 CURVE SMOOTH",
"457 594 OFFCURVE",
"457 589 OFFCURVE",
"457 584 CURVE SMOOTH",
"457 525 OFFCURVE",
"426 479 OFFCURVE",
"371 443 CURVE",
"456 443 OFFCURVE",
"518 407 OFFCURVE",
"538 326 CURVE"
);
},
{
closed = 1;
nodes = (
"409 630 OFFCURVE",
"386 641 OFFCURVE",
"349 641 CURVE SMOOTH",
"297 641 OFFCURVE",
"226 622 OFFCURVE",
"118 582 CURVE",
"118 396 LINE",
"290 436 OFFCURVE",
"412 493 OFFCURVE",
"412 582 CURVE SMOOTH",
"412 589 OFFCURVE",
"411 597 OFFCURVE",
"409 605 CURVE"
);
},
{
closed = 1;
nodes = (
"483 377 OFFCURVE",
"435 400 OFFCURVE",
"366 400 CURVE SMOOTH",
"325 400 OFFCURVE",
"281 393 OFFCURVE",
"232 380 CURVE SMOOTH",
"183 367 OFFCURVE",
"145 356 OFFCURVE",
"118 349 CURVE",
"118 47 LINE",
"297 102 OFFCURVE",
"495 187 OFFCURVE",
"495 295 CURVE SMOOTH",
"495 302 OFFCURVE",
"494 310 OFFCURVE",
"492 318 CURVE"
);
}
);
width = 570;
}
);
unicode = 0042;
},
{
glyphname = C;
layers = (
{
layerId = "40D00E06-06D8-47EA-A1ED-37FDE38D6C1B";
name = Light;
paths = (
{
closed = 1;
nodes = (
"499 539 OFFCURVE",
"487 524 OFFCURVE",
"471 524 CURVE SMOOTH",
"460 524 OFFCURVE",
"453 529 OFFCURVE",
"450 540 CURVE",
"430 595 OFFCURVE",
"376 619 OFFCURVE",
"331 619 CURVE",
"326 618 OFFCURVE",
"322 618 OFFCURVE",
"320 618 CURVE",
"177 601 OFFCURVE",
"61 480 OFFCURVE",
"61 283 CURVE SMOOTH",
"61 144 OFFCURVE",
"106 35 OFFCURVE",
"217 35 CURVE SMOOTH",
"301 35 OFFCURVE",
"399 112 OFFCURVE",
"430 163 CURVE SMOOTH",
"445 188 OFFCURVE",
"455 203 OFFCURVE",
"458 206 CURVE SMOOTH",
"461 209 OFFCURVE",
"465 210 OFFCURVE",
"470 210 CURVE SMOOTH",
"483 210 OFFCURVE",
"495 200 OFFCURVE",
"495 187 CURVE SMOOTH",
"495 182 OFFCURVE",
"486 166 OFFCURVE",
"469 137 CURVE SMOOTH",
"434 79 OFFCURVE",
"320 -11 OFFCURVE",
"217 -11 CURVE SMOOTH",
"76 -11 OFFCURVE",
"14 124 OFFCURVE",
"14 283 CURVE SMOOTH",
"14 503 OFFCURVE",
"170 647 OFFCURVE",
"255 656 CURVE SMOOTH",
"298 661 OFFCURVE",
"323 663 OFFCURVE",
"331 663 CURVE SMOOTH",
"395 663 OFFCURVE",
"467 631 OFFCURVE",
"494 556 CURVE"
);
}
);
width = 524;
}
);
unicode = 0043;
},
{
glyphname = D;
layers = (
{
layerId = "40D00E06-06D8-47EA-A1ED-37FDE38D6C1B";
name = Light;
paths = (
{
closed = 1;
nodes = (
"540 465 OFFCURVE",
"543 440 OFFCURVE",
"543 415 CURVE SMOOTH",
"543 256 OFFCURVE",
"384 126 OFFCURVE",
"230 48 CURVE SMOOTH",
"153 9 OFFCURVE",
"109 -11 OFFCURVE",
"98 -11 CURVE",
"71 7 LINE",
"71 618 LINE SMOOTH",
"71 633 OFFCURVE",
"82 641 OFFCURVE",
"95 641 CURVE SMOOTH",
"107 641 OFFCURVE",
"118 633 OFFCURVE",
"118 618 CURVE",
"118 630 LINE",
"162 653 OFFCURVE",
"235 677 OFFCURVE",
"300 677 CURVE SMOOTH",
"403 677 OFFCURVE",
"489 627 OFFCURVE",
"533 490 CURVE"
);
},
{
closed = 1;
nodes = (
"455 588 OFFCURVE",
"386 630 OFFCURVE",
"301 630 CURVE SMOOTH",
"234 630 OFFCURVE",
"173 607 OFFCURVE",
"118 580 CURVE",
"118 49 LINE",
"218 90 OFFCURVE",
"338 154 OFFCURVE",
"429 253 CURVE SMOOTH",
"474 302 OFFCURVE",
"497 356 OFFCURVE",
"497 414 CURVE SMOOTH",
"497 437 OFFCURVE",
"494 458 OFFCURVE",
"487 479 CURVE"
);
}
);
width = 565;
}
);
unicode = 0044;
},
{
glyphname = E;
layers = (
{
layerId = "40D00E06-06D8-47EA-A1ED-37FDE38D6C1B";
name = Light;
paths = (
{
closed = 1;
nodes = (
"89 -8 LINE",
"68 12 LINE",
"68 565 LINE",
"48 563 LINE",
"35 563 OFFCURVE",
"25 575 OFFCURVE",
"25 588 CURVE SMOOTH",
"25 602 OFFCURVE",
"32 609 OFFCURVE",
"45 609 CURVE",
"68 611 LINE",
"68 622 LINE SMOOTH",
"68 635 OFFCURVE",
"77 642 OFFCURVE",
"92 642 CURVE SMOOTH",
"103 642 OFFCURVE",
"115 638 OFFCURVE",
"115 622 CURVE SMOOTH",
"115 617 LINE",
"440 651 LINE",
"455 651 OFFCURVE",
"465 638 OFFCURVE",
"465 627 CURVE SMOOTH",
"465 614 OFFCURVE",
"458 607 OFFCURVE",
"444 607 CURVE",
"115 571 LINE",
"115 380 LINE",
"405 401 LINE",
"418 401 OFFCURVE",
"428 389 OFFCURVE",
"428 377 CURVE SMOOTH",
"428 363 OFFCURVE",
"421 356 OFFCURVE",
"408 356 CURVE",
"115 334 LINE",
"115 42 LINE",
"476 78 LINE",
"491 78 OFFCURVE",
"501 65 OFFCURVE",
"501 54 CURVE SMOOTH",
"501 41 OFFCURVE",
"494 34 OFFCURVE",
"480 34 CURVE"
);
}
);
width = 523;
}
);
unicode = 0045;
},
{
glyphname = F;
layers = (
{
layerId = "40D00E06-06D8-47EA-A1ED-37FDE38D6C1B";
name = Light;
paths = (
{
closed = 1;
nodes = (
"118 576 LINE",
"118 381 LINE",
"403 401 LINE",
"418 401 OFFCURVE",
"427 389 OFFCURVE",
"427 376 CURVE SMOOTH",
"427 364 OFFCURVE",
"421 355 OFFCURVE",
"405 355 CURVE",
"118 335 LINE",
"118 27 LINE SMOOTH",
"118 11 OFFCURVE",
"107 3 OFFCURVE",
"95 3 CURVE SMOOTH",
"79 3 OFFCURVE",
"71 11 OFFCURVE",
"71 27 CURVE SMOOTH",
"71 571 LINE",
"48 569 LINE",
"33 569 OFFCURVE",
"24 581 OFFCURVE",
"24 594 CURVE SMOOTH",
"24 607 OFFCURVE",
"31 614 OFFCURVE",
"44 614 CURVE",
"71 617 LINE",
"71 632 LINE SMOOTH",
"71 646 OFFCURVE",
"79 653 OFFCURVE",
"95 653 CURVE SMOOTH",
"110 653 OFFCURVE",
"118 646 OFFCURVE",
"118 632 CURVE SMOOTH",
"118 621 LINE",
"450 651 LINE",
"465 651 OFFCURVE",
"473 640 OFFCURVE",
"473 627 CURVE SMOOTH",
"473 614 OFFCURVE",
"466 607 OFFCURVE",
"452 607 CURVE"
);
}
);
width = 483;
}
);
unicode = 0046;
},
{
glyphname = G;
layers = (
{
layerId = "40D00E06-06D8-47EA-A1ED-37FDE38D6C1B";
name = Light;
paths = (
{
closed = 1;
nodes = (
"655 353 LINE",
"656 341 OFFCURVE",
"658 325 OFFCURVE",
"658 321 CURVE SMOOTH",
"658 248 OFFCURVE",
"637 168 OFFCURVE",
"546 88 CURVE SMOOTH",
"455 8 OFFCURVE",
"334 -14 OFFCURVE",
"286 -14 CURVE SMOOTH",
"145 -14 OFFCURVE",
"24 91 OFFCURVE",
"24 258 CURVE SMOOTH",
"24 501 OFFCURVE",
"210 667 OFFCURVE",
"405 667 CURVE SMOOTH",
"494 667 OFFCURVE",
"576 626 OFFCURVE",
"606 585 CURVE SMOOTH",
"621 564 OFFCURVE",
"628 552 OFFCURVE",
"628 548 CURVE SMOOTH",
"628 536 OFFCURVE",
"616 526 OFFCURVE",
"604 526 CURVE SMOOTH",
"596 526 OFFCURVE",
"580 542 OFFCURVE",
"557 574 CURVE SMOOTH",
"533 606 OFFCURVE",
"482 622 OFFCURVE",
"405 622 CURVE SMOOTH",
"236 622 OFFCURVE",
"70 475 OFFCURVE",
"70 256 CURVE SMOOTH",
"70 119 OFFCURVE",
"169 33 OFFCURVE",
"285 33 CURVE SMOOTH",
"322 33 OFFCURVE",
"481 58 OFFCURVE",
"556 163 CURVE SMOOTH",
"593 216 OFFCURVE",
"612 267 OFFCURVE",
"612 318 CURVE",
"367 266 LINE",
"351 266 OFFCURVE",
"340 279 OFFCURVE",
"340 294 CURVE SMOOTH",
"340 305 OFFCURVE",
"346 311 OFFCURVE",
"358 311 CURVE",
"637 371 LINE"
);
}
);
width = 690;
}
);
unicode = 0047;
},
{
glyphname = H;
layers = (
{
layerId = "40D00E06-06D8-47EA-A1ED-37FDE38D6C1B";
name = Light;
paths = (
{
closed = 1;
nodes = (
"474 12 LINE SMOOTH",
"474 -3 OFFCURVE",
"463 -11 OFFCURVE",
"451 -11 CURVE SMOOTH",
"435 -11 OFFCURVE",
"427 -3 OFFCURVE",
"427 12 CURVE SMOOTH",
"427 328 LINE",
"83 328 LINE",
"83 9 LINE SMOOTH",
"83 -6 OFFCURVE",
"72 -14 OFFCURVE",
"60 -14 CURVE SMOOTH",
"44 -14 OFFCURVE",
"36 -6 OFFCURVE",
"36 9 CURVE SMOOTH",
"36 619 LINE SMOOTH",
"36 635 OFFCURVE",
"53 641 OFFCURVE",
"60 641 CURVE SMOOTH",
"75 641 OFFCURVE",
"83 630 OFFCURVE",
"83 619 CURVE SMOOTH",
"83 373 LINE",
"427 373 LINE",
"427 619 LINE SMOOTH",
"427 635 OFFCURVE",
"444 641 OFFCURVE",
"451 641 CURVE SMOOTH",
"466 641 OFFCURVE",
"474 630 OFFCURVE",
"474 619 CURVE SMOOTH"
);
}
);
width = 504;
}
);
unicode = 0048;
},
{
glyphname = I;
layers = (
{
layerId = "40D00E06-06D8-47EA-A1ED-37FDE38D6C1B";
name = Light;
paths = (
{
closed = 1;
nodes = (
"121 612 LINE",
"121 9 LINE",
"74 -6 LINE",
"74 599 LINE",
"50 593 LINE",
"33 588 OFFCURVE",
"21 600 OFFCURVE",
"21 616 CURVE SMOOTH",
"21 627 OFFCURVE",
"27 635 OFFCURVE",
"39 639 CURVE",
"138 667 LINE SMOOTH",
"154 671 OFFCURVE",
"166 657 OFFCURVE",
"166 641 CURVE SMOOTH",
"166 630 OFFCURVE",
"160 623 OFFCURVE",
"149 621 CURVE"
);
},
{
closed = 1;
nodes = (
"89 -1 LINE",
"52 -11 LINE",
"151 19 LINE",
"111 6 LINE"
);
}
);
width = 192;
}
);
unicode = 0049;
},
{
glyphname = J;
layers = (
{
layerId = "40D00E06-06D8-47EA-A1ED-37FDE38D6C1B";
name = Light;
paths = (
{
closed = 1;
nodes = (
"426 194 LINE SMOOTH",
"426 77 OFFCURVE",
"311 -11 OFFCURVE",
"186 -11 CURVE SMOOTH",
"95 -11 OFFCURVE",
"24 41 OFFCURVE",
"24 149 CURVE SMOOTH",
"24 162 OFFCURVE",
"25 177 OFFCURVE",
"27 192 CURVE",
"27 206 OFFCURVE",
"34 213 OFFCURVE",
"48 213 CURVE SMOOTH",
"65 213 OFFCURVE",
"73 205 OFFCURVE",
"73 188 CURVE",
"72 173 OFFCURVE",
"71 163 OFFCURVE",
"71 156 CURVE SMOOTH",
"71 72 OFFCURVE",
"118 35 OFFCURVE",
"186 35 CURVE SMOOTH",
"286 35 OFFCURVE",
"379 105 OFFCURVE",
"379 194 CURVE SMOOTH",
"379 632 LINE SMOOTH",
"379 646 OFFCURVE",
"387 653 OFFCURVE",
"403 653 CURVE SMOOTH",
"418 653 OFFCURVE",
"426 646 OFFCURVE",
"426 632 CURVE SMOOTH"
);
}
);
width = 465;
}
);
unicode = 004A;
},
{
glyphname = K;
layers = (
{
layerId = "40D00E06-06D8-47EA-A1ED-37FDE38D6C1B";
name = Light;
paths = (
{
closed = 1;
nodes = (
"506 31 LINE SMOOTH",
"511 26 OFFCURVE",
"513 21 OFFCURVE",
"513 16 CURVE SMOOTH",
"513 -1 OFFCURVE",
"497 -10 OFFCURVE",
"488 -10 CURVE SMOOTH",
"484 -10 OFFCURVE",
"479 -8 OFFCURVE",
"474 -4 CURVE",
"97 357 LINE",
"97 385 LINE",
"395 647 LINE",
"399 651 OFFCURVE",
"404 653 OFFCURVE",
"409 653 CURVE SMOOTH",
"421 653 OFFCURVE",
"433 641 OFFCURVE",
"433 628 CURVE SMOOTH",
"433 622 OFFCURVE",
"430 617 OFFCURVE",
"425 612 CURVE",
"151 369 LINE"
);
},
{
closed = 1;
nodes = (
"121 13 LINE SMOOTH",
"121 -2 OFFCURVE",
"110 -10 OFFCURVE",
"98 -10 CURVE SMOOTH",
"82 -10 OFFCURVE",
"74 -2 OFFCURVE",
"74 13 CURVE SMOOTH",
"74 633 LINE SMOOTH",
"74 646 OFFCURVE",
"83 653 OFFCURVE",
"98 653 CURVE SMOOTH",
"109 653 OFFCURVE",
"121 649 OFFCURVE",
"121 633 CURVE SMOOTH"
);
}
);
width = 536;
}
);
unicode = 004B;
},
{
glyphname = L;
layers = (
{
layerId = "40D00E06-06D8-47EA-A1ED-37FDE38D6C1B";
name = Light;
paths = (
{
closed = 1;
nodes = (
"95 -11 LINE",
"74 8 LINE",
"74 633 LINE SMOOTH",
"74 646 OFFCURVE",
"83 653 OFFCURVE",
"98 653 CURVE SMOOTH",
"109 653 OFFCURVE",
"121 649 OFFCURVE",
"121 633 CURVE SMOOTH",
"121 40 LINE",
"370 76 LINE",
"385 76 OFFCURVE",
"395 63 OFFCURVE",
"395 50 CURVE SMOOTH",
"395 37 OFFCURVE",
"389 31 OFFCURVE",
"376 31 CURVE"
);
}
);
width = 431;
}
);
unicode = 004C;
},
{
glyphname = M;
layers = (
{
layerId = "40D00E06-06D8-47EA-A1ED-37FDE38D6C1B";
name = Light;
paths = (
{
closed = 1;
nodes = (
"656 12 LINE SMOOTH",
"656 -3 OFFCURVE",
"648 -11 OFFCURVE",
"632 -11 CURVE SMOOTH",
"616 -11 OFFCURVE",
"608 -3 OFFCURVE",
"608 12 CURVE SMOOTH",
"608 520 LINE",
"575 459 OFFCURVE",
"526 386 OFFCURVE",
"463 313 CURVE SMOOTH",
"400 240 OFFCURVE",
"354 145 OFFCURVE",
"354 22 CURVE",
"310 20 LINE",
"290 137 OFFCURVE",
"269 205 OFFCURVE",
"230 277 CURVE SMOOTH",
"190 349 OFFCURVE",
"154 422 OFFCURVE",
"118 506 CURVE",
"118 9 LINE SMOOTH",
"118 -6 OFFCURVE",
"107 -14 OFFCURVE",
"95 -14 CURVE SMOOTH",
"79 -14 OFFCURVE",
"71 -6 OFFCURVE",
"71 9 CURVE SMOOTH",
"71 633 LINE",
"114 642 LINE",
"121 625 OFFCURVE",
"130 603 OFFCURVE",
"141 576 CURVE SMOOTH",
"163 523 OFFCURVE",
"222 390 OFFCURVE",
"262 319 CURVE SMOOTH",
"301 247 OFFCURVE",
"311 220 OFFCURVE",
"326 163 CURVE",
"347 235 OFFCURVE",
"378 285 OFFCURVE",
"439 357 CURVE SMOOTH",
"500 428 OFFCURVE",
"562 531 OFFCURVE",
"586 582 CURVE SMOOTH",
"597 607 OFFCURVE",
"606 627 OFFCURVE",
"613 642 CURVE",
"656 633 LINE"
);
}
);
width = 709;
}
);
unicode = 004D;
},
{
glyphname = N;
layers = (
{
layerId = "40D00E06-06D8-47EA-A1ED-37FDE38D6C1B";
name = Light;
paths = (
{
closed = 1;
nodes = (
"501 3 LINE",
"457 -5 LINE",
"426 118 OFFCURVE",
"356 216 OFFCURVE",
"272 313 CURVE SMOOTH",
"187 409 OFFCURVE",
"190 413 OFFCURVE",
"115 541 CURVE",
"115 13 LINE SMOOTH",
"115 -2 OFFCURVE",
"104 -10 OFFCURVE",
"92 -10 CURVE SMOOTH",
"76 -10 OFFCURVE",
"68 -2 OFFCURVE",
"68 13 CURVE SMOOTH",
"68 632 LINE",
"106 646 LINE",
"178 522 OFFCURVE",
"215 448 OFFCURVE",
"291 360 CURVE SMOOTH",
"367 272 OFFCURVE",
"416 211 OFFCURVE",
"453 140 CURVE",
"453 624 LINE SMOOTH",
"453 640 OFFCURVE",
"470 646 OFFCURVE",
"477 646 CURVE SMOOTH",
"493 646 OFFCURVE",
"501 639 OFFCURVE",
"501 624 CURVE SMOOTH"
);
}
);
width = 527;
}
);
unicode = 004E;
},
{
glyphname = O;
layers = (
{
layerId = "40D00E06-06D8-47EA-A1ED-37FDE38D6C1B";
name = Light;
paths = (
{
closed = 1;
nodes = (
"539 180 OFFCURVE",
"383 -11 OFFCURVE",
"246 -11 CURVE SMOOTH",
"236 -11 OFFCURVE",
"213 -6 OFFCURVE",
"177 3 CURVE SMOOTH",
"104 22 OFFCURVE",
"30 139 OFFCURVE",
"30 276 CURVE SMOOTH",
"30 449 OFFCURVE",
"185 664 OFFCURVE",
"328 664 CURVE SMOOTH",
"338 664 OFFCURVE",
"361 660 OFFCURVE",
"398 653 CURVE SMOOTH",
"470 637 OFFCURVE",
"539 539 OFFCURVE",
"539 351 CURVE SMOOTH"
);
},
{
closed = 1;
nodes = (
"492 436 OFFCURVE",
"481 499 OFFCURVE",
"459 539 CURVE SMOOTH",
"437 579 OFFCURVE",
"411 603 OFFCURVE",
"380 610 CURVE SMOOTH",
"349 617 OFFCURVE",
"330 620 OFFCURVE",
"323 620 CURVE SMOOTH",
"212 620 OFFCURVE",
"77 425 OFFCURVE",
"77 276 CURVE SMOOTH",
"77 153 OFFCURVE",
"135 60 OFFCURVE",
"195 45 CURVE SMOOTH",
"224 38 OFFCURVE",
"243 34 OFFCURVE",
"251 34 CURVE SMOOTH",
"355 34 OFFCURVE",
"492 208 OFFCURVE",
"492 351 CURVE SMOOTH"
);
}
);
width = 560;
}
);
unicode = 004F;
},
{
glyphname = P;
layers = (
{
layerId = "40D00E06-06D8-47EA-A1ED-37FDE38D6C1B";
name = Light;
paths = (
{
closed = 1;
nodes = (
"533 614 OFFCURVE",
"535 601 OFFCURVE",
"535 588 CURVE SMOOTH",
"535 471 OFFCURVE",
"316 346 OFFCURVE",
"157 319 CURVE",
"157 16 LINE SMOOTH",
"157 0 OFFCURVE",
"146 -8 OFFCURVE",
"134 -8 CURVE SMOOTH",
"118 -8 OFFCURVE",
"110 0 OFFCURVE",
"110 16 CURVE SMOOTH",
"110 504 LINE",
"102 499 LINE",
"98 496 OFFCURVE",
"93 494 OFFCURVE",
"87 494 CURVE SMOOTH",
"75 494 OFFCURVE",
"65 506 OFFCURVE",
"65 518 CURVE SMOOTH",
"65 525 OFFCURVE",
"68 530 OFFCURVE",
"75 535 CURVE",
"110 558 LINE",
"110 629 LINE SMOOTH",
"110 644 OFFCURVE",
"121 652 OFFCURVE",
"134 652 CURVE SMOOTH",
"146 652 OFFCURVE",
"157 644 OFFCURVE",
"157 629 CURVE SMOOTH",
"157 586 LINE",
"242 634 OFFCURVE",
"349 676 OFFCURVE",
"425 676 CURVE SMOOTH",
"473 676 OFFCURVE",
"508 662 OFFCURVE",
"528 626 CURVE"
);
},
{
closed = 1;
nodes = (
"478 629 OFFCURVE",
"459 640 OFFCURVE",
"429 640 CURVE SMOOTH",
"365 640 OFFCURVE",
"277 596 OFFCURVE",
"157 529 CURVE",
"157 365 LINE",
"292 389 OFFCURVE",
"492 499 OFFCURVE",
"492 580 CURVE SMOOTH",
"492 589 OFFCURVE",
"490 598 OFFCURVE",
"485 607 CURVE"
);
}
);
width = 584;
}
);
unicode = 0050;
},
{
glyphname = Q;
layers = (
{
layerId = "40D00E06-06D8-47EA-A1ED-37FDE38D6C1B";
name = Light;
paths = (
{
closed = 1;
nodes = (
"574 8 LINE SMOOTH",
"578 4 OFFCURVE",
"580 -1 OFFCURVE",
"580 -6 CURVE SMOOTH",
"580 -18 OFFCURVE",
"568 -28 OFFCURVE",
"555 -28 CURVE SMOOTH",
"550 -28 OFFCURVE",
"544 -26 OFFCURVE",
"539 -22 CURVE",
"425 91 LINE",
"369 31 OFFCURVE",
"304 -6 OFFCURVE",
"244 -6 CURVE SMOOTH",
"235 -6 OFFCURVE",
"212 -1 OFFCURVE",
"176 8 CURVE SMOOTH",
"104 26 OFFCURVE",
"30 148 OFFCURVE",
"30 287 CURVE SMOOTH",
"30 460 OFFCURVE",
"180 656 OFFCURVE",
"324 656 CURVE SMOOTH",
"334 656 OFFCURVE",
"358 652 OFFCURVE",
"396 644 CURVE SMOOTH",
"471 628 OFFCURVE",
"539 548 OFFCURVE",
"539 363 CURVE SMOOTH",
"539 283 OFFCURVE",
"507 199 OFFCURVE",
"454 127 CURVE"
);
},
{
closed = 1;
nodes = (
"492 446 OFFCURVE",
"481 504 OFFCURVE",
"460 538 CURVE SMOOTH",
"417 605 OFFCURVE",
"335 611 OFFCURVE",
"318 611 CURVE SMOOTH",
"207 611 OFFCURVE",
"77 434 OFFCURVE",
"77 287 CURVE SMOOTH",
"77 166 OFFCURVE",
"135 65 OFFCURVE",
"194 50 CURVE SMOOTH",
"223 43 OFFCURVE",
"242 39 OFFCURVE",
"249 39 CURVE SMOOTH",
"293 39 OFFCURVE",
"345 73 OFFCURVE",
"390 125 CURVE",
"306 208 LINE",
"303 212 OFFCURVE",
"301 217 OFFCURVE",
"301 222 CURVE SMOOTH",
"301 234 OFFCURVE",
"313 246 OFFCURVE",
"326 246 CURVE SMOOTH",
"332 246 OFFCURVE",
"337 244 OFFCURVE",
"341 239 CURVE",
"420 162 LINE",
"463 223 OFFCURVE",
"492 296 OFFCURVE",
"492 363 CURVE SMOOTH"
);
}
);
width = 603;
}
);
unicode = 0051;
},
{
glyphname = R;
layers = (
{
layerId = "40D00E06-06D8-47EA-A1ED-37FDE38D6C1B";
name = Light;
paths = (
{
closed = 1;
nodes = (
"506 30 LINE",
"511 25 OFFCURVE",
"513 20 OFFCURVE",
"513 15 CURVE SMOOTH",
"513 -2 OFFCURVE",
"497 -11 OFFCURVE",
"488 -11 CURVE SMOOTH",
"484 -11 OFFCURVE",
"479 -9 OFFCURVE",
"474 -5 CURVE",
"113 321 LINE",
"113 18 LINE SMOOTH",
"113 2 OFFCURVE",
"102 -6 OFFCURVE",
"90 -6 CURVE SMOOTH",
"74 -6 OFFCURVE",
"66 2 OFFCURVE",
"66 18 CURVE SMOOTH",
"66 536 LINE",
"56 531 LINE SMOOTH",
"52 529 OFFCURVE",
"48 528 OFFCURVE",
"45 528 CURVE SMOOTH",
"33 528 OFFCURVE",
"23 540 OFFCURVE",
"23 553 CURVE SMOOTH",
"23 561 OFFCURVE",
"27 567 OFFCURVE",
"34 571 CURVE",
"66 587 LINE",
"66 632 LINE SMOOTH",
"66 647 OFFCURVE",
"77 655 OFFCURVE",
"90 655 CURVE SMOOTH",
"102 655 OFFCURVE",
"113 647 OFFCURVE",
"113 632 CURVE SMOOTH",
"113 609 LINE",
"185 640 OFFCURVE",
"267 664 OFFCURVE",
"332 664 CURVE SMOOTH",
"392 664 OFFCURVE",
"434 647 OFFCURVE",
"459 603 CURVE",
"464 591 OFFCURVE",
"466 578 OFFCURVE",
"466 564 CURVE SMOOTH",
"466 455 OFFCURVE",
"292 346 OFFCURVE",
"155 346 CURVE"
);
},
{
closed = 1;
nodes = (
"405 610 OFFCURVE",
"378 622 OFFCURVE",
"341 622 CURVE SMOOTH",
"277 622 OFFCURVE",
"198 593 OFFCURVE",
"113 554 CURVE",
"113 391 LINE",
"124 390 OFFCURVE",
"133 389 OFFCURVE",
"140 389 CURVE SMOOTH",
"253 389 OFFCURVE",
"423 479 OFFCURVE",
"423 556 CURVE SMOOTH",
"423 565 OFFCURVE",
"421 574 OFFCURVE",
"416 583 CURVE"
);
}
);
width = 550;
}
);
unicode = 0052;
},
{
glyphname = S;
layers = (
{
layerId = "40D00E06-06D8-47EA-A1ED-37FDE38D6C1B";
name = Light;
paths = (
{
closed = 1;
nodes = (
"523 582 OFFCURVE",
"525 577 OFFCURVE",
"525 572 CURVE SMOOTH",
"525 563 OFFCURVE",
"516 547 OFFCURVE",
"499 547 CURVE SMOOTH",
"493 547 OFFCURVE",
"488 550 OFFCURVE",
"484 555 CURVE",
"449 590 OFFCURVE",
"413 601 OFFCURVE",
"372 601 CURVE SMOOTH",
"363 601 OFFCURVE",
"354 601 OFFCURVE",
"344 600 CURVE SMOOTH",
"333 599 OFFCURVE",
"311 595 OFFCURVE",
"278 590 CURVE SMOOTH",
"211 578 OFFCURVE",
"125 500 OFFCURVE",
"125 432 CURVE SMOOTH",
"125 388 OFFCURVE",
"157 356 OFFCURVE",
"216 356 CURVE SMOOTH",
"248 356 OFFCURVE",
"263 357 OFFCURVE",
"331 385 CURVE SMOOTH",
"364 398 OFFCURVE",
"401 405 OFFCURVE",
"441 405 CURVE SMOOTH",
"537 405 OFFCURVE",
"593 344 OFFCURVE",
"593 261 CURVE SMOOTH",
"593 177 OFFCURVE",
"527 81 OFFCURVE",
"448 40 CURVE SMOOTH",
"369 -1 OFFCURVE",
"319 -12 OFFCURVE",
"268 -12 CURVE SMOOTH",
"155 -12 OFFCURVE",
"68 49 OFFCURVE",
"68 132 CURVE SMOOTH",
"68 147 OFFCURVE",
"79 155 OFFCURVE",
"92 155 CURVE SMOOTH",
"104 155 OFFCURVE",
"115 147 OFFCURVE",
"115 132 CURVE SMOOTH",
"115 79 OFFCURVE",
"183 32 OFFCURVE",
"268 32 CURVE SMOOTH",
"315 32 OFFCURVE",
"350 40 OFFCURVE",
"418 78 CURVE SMOOTH",
"486 116 OFFCURVE",
"540 195 OFFCURVE",
"540 259 CURVE SMOOTH",
"540 316 OFFCURVE",
"501 356 OFFCURVE",
"432 356 CURVE SMOOTH",
"403 356 OFFCURVE",
"367 348 OFFCURVE",
"325 331 CURVE SMOOTH",
"283 314 OFFCURVE",
"242 306 OFFCURVE",
"203 306 CURVE SMOOTH",
"116 306 OFFCURVE",
"68 356 OFFCURVE",
"68 427 CURVE SMOOTH",
"68 522 OFFCURVE",
"175 623 OFFCURVE",
"263 635 CURVE SMOOTH",
"307 641 OFFCURVE",
"334 645 OFFCURVE",
"345 646 CURVE SMOOTH",
"355 647 OFFCURVE",
"365 647 OFFCURVE",
"375 647 CURVE SMOOTH",
"428 647 OFFCURVE",
"473 632 OFFCURVE",
"520 585 CURVE SMOOTH"
);
}
);
width = 642;
}
);
unicode = 0053;
},
{
glyphname = T;
layers = (
{
layerId = "40D00E06-06D8-47EA-A1ED-37FDE38D6C1B";
name = Light;
paths = (
{
closed = 1;
nodes = (
"246 568 LINE",
"246 13 LINE SMOOTH",
"246 -2 OFFCURVE",
"235 -10 OFFCURVE",
"223 -10 CURVE SMOOTH",
"207 -10 OFFCURVE",
"199 -2 OFFCURVE",
"199 13 CURVE SMOOTH",
"199 560 LINE",
"27 529 LINE",
"12 529 OFFCURVE",
"2 542 OFFCURVE",
"2 555 CURVE SMOOTH",
"2 568 OFFCURVE",
"8 574 OFFCURVE",
"21 574 CURVE",
"203 607 LINE",
"214 614 OFFCURVE",
"226 615 OFFCURVE",
"233 612 CURVE",
"455 653 LINE",
"470 653 OFFCURVE",
"480 640 OFFCURVE",
"480 628 CURVE SMOOTH",
"480 615 OFFCURVE",
"474 609 OFFCURVE",
"461 609 CURVE"
);
}
);
width = 499;
}
);
unicode = 0054;
},
{
glyphname = U;
layers = (
{
layerId = "40D00E06-06D8-47EA-A1ED-37FDE38D6C1B";
name = Light;
paths = (
{
closed = 1;
nodes = (
"500 248 LINE SMOOTH",
"500 116 OFFCURVE",
"360 -11 OFFCURVE",
"249 -11 CURVE SMOOTH",
"108 -11 OFFCURVE",
"71 67 OFFCURVE",
"71 186 CURVE SMOOTH",
"72 626 LINE SMOOTH",
"72 642 OFFCURVE",
"89 648 OFFCURVE",
"96 648 CURVE SMOOTH",
"111 648 OFFCURVE",
"119 637 OFFCURVE",
"119 626 CURVE SMOOTH",
"118 186 LINE SMOOTH",
"118 85 OFFCURVE",
"138 35 OFFCURVE",
"249 35 CURVE SMOOTH",
"333 35 OFFCURVE",
"452 144 OFFCURVE",
"452 248 CURVE SMOOTH",
"452 627 LINE SMOOTH",
"452 642 OFFCURVE",
"463 650 OFFCURVE",
"476 650 CURVE SMOOTH",
"488 650 OFFCURVE",
"500 640 OFFCURVE",
"500 627 CURVE SMOOTH"
);
}
);
width = 547;
}
);
unicode = 0055;
},
{
glyphname = V;
layers = (
{
layerId = "40D00E06-06D8-47EA-A1ED-37FDE38D6C1B";
name = Light;
paths = (
{
closed = 1;
nodes = (
"394 496 OFFCURVE",
"307 359 OFFCURVE",
"249 217 CURVE SMOOTH",
"220 146 OFFCURVE",
"201 73 OFFCURVE",
"194 0 CURVE",
"150 0 LINE",
"141 95 OFFCURVE",
"98 268 OFFCURVE",
"50 445 CURVE SMOOTH",
"25 533 OFFCURVE",
"8 591 OFFCURVE",
"-3 619 CURVE",
"-10 640 OFFCURVE",
"9 650 OFFCURVE",
"21 650 CURVE SMOOTH",
"31 650 OFFCURVE",
"39 642 OFFCURVE",
"45 627 CURVE",
"56 596 OFFCURVE",
"103 433 OFFCURVE",
"133 314 CURVE SMOOTH",
"148 255 OFFCURVE",
"161 197 OFFCURVE",
"173 141 CURVE",
"208 262 OFFCURVE",
"263 368 OFFCURVE",
"329 480 CURVE SMOOTH",
"362 535 OFFCURVE",
"387 577 OFFCURVE",
"404 605 CURVE SMOOTH",
"421 633 OFFCURVE",
"433 647 OFFCURVE",
"441 647 CURVE SMOOTH",
"453 647 OFFCURVE",
"466 636 OFFCURVE",
"466 623 CURVE SMOOTH",
"466 620 OFFCURVE",
"465 616 OFFCURVE",
"463 613 CURVE"
);
}
);
width = 499;
}
);
unicode = 0056;
},
{
glyphname = W;
layers = (
{
layerId = "40D00E06-06D8-47EA-A1ED-37FDE38D6C1B";
name = Light;
paths = (
{
closed = 1;
nodes = (
"658 604 OFFCURVE",
"646 550 OFFCURVE",
"622 467 CURVE SMOOTH",
"574 300 OFFCURVE",
"511 92 OFFCURVE",
"502 4 CURVE",
"458 1 LINE",
"449 72 OFFCURVE",
"417 182 OFFCURVE",
"372 338 CURVE SMOOTH",
"349 415 OFFCURVE",
"335 468 OFFCURVE",
"328 497 CURVE",
"319 464 OFFCURVE",
"300 408 OFFCURVE",
"273 328 CURVE SMOOTH",
"218 167 OFFCURVE",
"191 76 OFFCURVE",
"191 0 CURVE",
"146 0 LINE",
"146 105 OFFCURVE",
"120 219 OFFCURVE",
"70 432 CURVE SMOOTH",
"45 539 OFFCURVE",
"32 602 OFFCURVE",
"32 623 CURVE SMOOTH",
"32 638 OFFCURVE",
"43 646 OFFCURVE",
"56 646 CURVE SMOOTH",
"68 646 OFFCURVE",
"79 638 OFFCURVE",
"79 623 CURVE SMOOTH",
"79 606 OFFCURVE",
"82 581 OFFCURVE",
"89 549 CURVE SMOOTH",
"96 516 OFFCURVE",
"110 453 OFFCURVE",
"131 360 CURVE SMOOTH",
"152 266 OFFCURVE",
"166 198 OFFCURVE",
"173 156 CURVE",
"180 182 OFFCURVE",
"205 260 OFFCURVE",
"246 390 CURVE SMOOTH",
"287 520 OFFCURVE",
"307 602 OFFCURVE",
"307 635 CURVE",
"354 635 LINE",
"354 558 OFFCURVE",
"425 319 OFFCURVE",
"478 132 CURVE",
"489 177 OFFCURVE",
"508 245 OFFCURVE",
"535 336 CURVE SMOOTH",
"562 427 OFFCURVE",
"581 494 OFFCURVE",
"593 538 CURVE SMOOTH",
"605 582 OFFCURVE",
"611 612 OFFCURVE",
"611 629 CURVE SMOOTH",
"611 644 OFFCURVE",
"622 652 OFFCURVE",
"635 652 CURVE SMOOTH",
"647 652 OFFCURVE",
"658 644 OFFCURVE",
"658 629 CURVE SMOOTH"
);
}
);
width = 699;
}
);
unicode = 0057;
},
{
glyphname = X;
layers = (
{
layerId = "40D00E06-06D8-47EA-A1ED-37FDE38D6C1B";
name = Light;
paths = (
{
closed = 1;
nodes = (
"416 611 OFFCURVE",
"377 540 OFFCURVE",
"345 487 CURVE SMOOTH",
"328 460 OFFCURVE",
"298 413 OFFCURVE",
"253 345 CURVE",
"297 266 OFFCURVE",
"357 155 OFFCURVE",
"385 93 CURVE SMOOTH",
"399 62 OFFCURVE",
"408 37 OFFCURVE",
"412 19 CURVE",
"412 4 OFFCURVE",
"398 -7 OFFCURVE",
"385 -7 CURVE SMOOTH",
"372 -7 OFFCURVE",
"366 -1 OFFCURVE",
"366 12 CURVE",
"358 45 OFFCURVE",
"328 109 OFFCURVE",
"297 166 CURVE SMOOTH",
"282 195 OFFCURVE",
"257 239 OFFCURVE",
"224 299 CURVE",
"171 215 OFFCURVE",
"109 117 OFFCURVE",
"84 69 CURVE SMOOTH",
"71 44 OFFCURVE",
"64 25 OFFCURVE",
"63 11 CURVE",
"63 -6 OFFCURVE",
"49 -11 OFFCURVE",
"42 -11 CURVE SMOOTH",
"25 -11 OFFCURVE",
"17 -2 OFFCURVE",
"17 15 CURVE",
"20 38 OFFCURVE",
"38 78 OFFCURVE",
"71 137 CURVE SMOOTH",
"104 195 OFFCURVE",
"146 265 OFFCURVE",
"198 347 CURVE",
"135 464 OFFCURVE",
"97 534 OFFCURVE",
"84 559 CURVE SMOOTH",
"71 584 OFFCURVE",
"61 604 OFFCURVE",
"56 620 CURVE",
"52 637 OFFCURVE",
"65 649 OFFCURVE",
"81 649 CURVE SMOOTH",
"92 649 OFFCURVE",
"98 644 OFFCURVE",
"101 633 CURVE",
"107 617 OFFCURVE",
"117 596 OFFCURVE",
"130 571 CURVE SMOOTH",
"143 546 OFFCURVE",
"175 486 OFFCURVE",
"226 392 CURVE",
"273 463 OFFCURVE",
"308 519 OFFCURVE",
"332 559 CURVE SMOOTH",
"356 598 OFFCURVE",
"368 623 OFFCURVE",
"368 632 CURVE SMOOTH",
"368 646 OFFCURVE",
"376 653 OFFCURVE",
"392 653 CURVE SMOOTH",
"408 653 OFFCURVE",
"416 646 OFFCURVE",
"416 632 CURVE SMOOTH"
);
}
);
width = 445;
}
);
unicode = 0058;
},
{
glyphname = Y;
layers = (
{
layerId = "40D00E06-06D8-47EA-A1ED-37FDE38D6C1B";
name = Light;
paths = (
{
closed = 1;
nodes = (
"334 363 LINE",
"334 13 LINE SMOOTH",
"334 -2 OFFCURVE",
"323 -10 OFFCURVE",
"311 -10 CURVE SMOOTH",
"295 -10 OFFCURVE",
"287 -2 OFFCURVE",
"287 13 CURVE SMOOTH",
"287 363 LINE",
"17 614 LINE",
"12 619 OFFCURVE",
"10 624 OFFCURVE",
"10 630 CURVE SMOOTH",
"10 642 OFFCURVE",
"22 654 OFFCURVE",
"34 654 CURVE SMOOTH",
"40 654 OFFCURVE",
"45 652 OFFCURVE",
"49 649 CURVE",
"309 405 LINE",
"563 645 LINE",
"568 649 OFFCURVE",
"573 651 OFFCURVE",
"578 651 CURVE SMOOTH",
"590 651 OFFCURVE",
"601 640 OFFCURVE",
"601 628 CURVE SMOOTH",
"601 622 OFFCURVE",
"599 617 OFFCURVE",
"594 612 CURVE SMOOTH"
);
}
);
width = 627;
}
);
unicode = 0059;
},
{
glyphname = Z;
layers = (
{
layerId = "40D00E06-06D8-47EA-A1ED-37FDE38D6C1B";
name = Light;
paths = (
{
closed = 1;
nodes = (
"476 626 LINE",
"89 37 LINE",
"412 49 LINE",
"417 90 LINE",
"417 101 OFFCURVE",
"425 107 OFFCURVE",
"437 107 CURVE SMOOTH",
"450 107 OFFCURVE",
"464 97 OFFCURVE",
"464 84 CURVE",
"454 19 LINE",
"435 7 LINE",
"40 -11 LINE",
"25 22 LINE",
"409 609 LINE",
"380 609 OFFCURVE",
"328 607 OFFCURVE",
"252 603 CURVE SMOOTH",
"176 599 OFFCURVE",
"132 597 OFFCURVE",
"120 597 CURVE",
"117 561 LINE",
"117 546 OFFCURVE",
"110 538 OFFCURVE",
"95 538 CURVE SMOOTH",
"79 538 OFFCURVE",
"71 546 OFFCURVE",
"71 563 CURVE",
"76 629 LINE",
"92 643 LINE",
"461 654 LINE"
);
}
);
width = 499;
}
);
unicode = 005A;
},
{
glyphname = bracketleft;
layers = (
{
layerId = "40D00E06-06D8-47EA-A1ED-37FDE38D6C1B";
name = Light;
paths = (
{
closed = 1;
nodes = (
"53 -217 LINE",
"32 -198 LINE",
"32 593 LINE",
"47 608 LINE",
"248 650 LINE",
"265 650 OFFCURVE",
"274 641 OFFCURVE",
"274 623 CURVE SMOOTH",
"274 611 OFFCURVE",
"268 605 OFFCURVE",
"255 605 CURVE",
"79 568 LINE",
"79 -165 LINE",
"251 -133 LINE",
"266 -133 OFFCURVE",
"276 -146 OFFCURVE",
"276 -159 CURVE SMOOTH",
"276 -172 OFFCURVE",
"270 -178 OFFCURVE",
"257 -178 CURVE"
);
}
);
width = 297;
}
);
unicode = 005B;
},
{
glyphname = backslash;
layers = (
{
layerId = "40D00E06-06D8-47EA-A1ED-37FDE38D6C1B";
name = Light;
paths = (
{
closed = 1;
nodes = (
"274 33 LINE SMOOTH",
"279 17 OFFCURVE",
"266 3 OFFCURVE",
"251 3 CURVE SMOOTH",
"240 3 OFFCURVE",
"233 9 OFFCURVE",
"230 20 CURVE",
"33 623 LINE",
"29 639 OFFCURVE",
"41 651 OFFCURVE",
"57 651 CURVE SMOOTH",
"67 651 OFFCURVE",
"74 646 OFFCURVE",
"78 635 CURVE SMOOTH"
);
}
);
width = 307;
}
);
unicode = 005C;
},
{
glyphname = bracketright;
layers = (
{
layerId = "40D00E06-06D8-47EA-A1ED-37FDE38D6C1B";
name = Light;
paths = (
{
closed = 1;
nodes = (
"281 635 LINE",
"277 -154 LINE",
"264 -172 LINE",
"54 -220 LINE",
"38 -220 OFFCURVE",
"27 -207 OFFCURVE",
"27 -192 CURVE SMOOTH",
"27 -181 OFFCURVE",
"33 -175 OFFCURVE",
"45 -175 CURVE",
"232 -133 LINE",
"232 600 LINE",
"52 565 LINE",
"37 565 OFFCURVE",
"27 578 OFFCURVE",
"27 591 CURVE SMOOTH",
"27 604 OFFCURVE",
"33 610 OFFCURVE",
"46 610 CURVE",
"258 653 LINE"
);
}
);
width = 312;
}
);
unicode = 005D;
},
{
glyphname = asciicircum;
layers = (
{
layerId = "40D00E06-06D8-47EA-A1ED-37FDE38D6C1B";
name = Light;
paths = (
{
closed = 1;
nodes = (
"426 463 LINE",
"429 458 OFFCURVE",
"431 454 OFFCURVE",
"431 451 CURVE SMOOTH",
"431 439 OFFCURVE",
"419 429 OFFCURVE",
"406 429 CURVE SMOOTH",
"399 429 OFFCURVE",
"394 432 OFFCURVE",
"389 437 CURVE",
"247 599 LINE",
"113 438 LINE",
"109 432 OFFCURVE",
"104 429 OFFCURVE",
"97 429 CURVE SMOOTH",
"85 429 OFFCURVE",
"71 441 OFFCURVE",
"71 452 CURVE SMOOTH",
"71 454 OFFCURVE",
"72 458 OFFCURVE",
"75 463 CURVE",
"230 650 LINE",
"261 650 LINE"
);
}
);
width = 470;
}
);
unicode = 005E;
},
{
glyphname = underscore;
layers = (
{
layerId = "40D00E06-06D8-47EA-A1ED-37FDE38D6C1B";
name = Light;
paths = (
{
closed = 1;
nodes = (
"14 -101 LINE SMOOTH",
"-5 -101 OFFCURVE",
"-14 -97 OFFCURVE",
"-14 -90 CURVE SMOOTH",
"-14 -83 OFFCURVE",
"-5 -79 OFFCURVE",
"14 -79 CURVE SMOOTH",
"474 -79 LINE SMOOTH",
"491 -79 OFFCURVE",
"500 -83 OFFCURVE",
"500 -90 CURVE SMOOTH",
"500 -97 OFFCURVE",
"491 -101 OFFCURVE",
"474 -101 CURVE SMOOTH"
);
}
);
width = 484;
}
);
unicode = 005F;
},
{
glyphname = grave;
layers = (
{
layerId = "40D00E06-06D8-47EA-A1ED-37FDE38D6C1B";
name = Light;
paths = (
{
closed = 1;
nodes = (
"198 540 LINE SMOOTH",
"203 536 OFFCURVE",
"206 532 OFFCURVE",
"206 527 CURVE SMOOTH",
"206 516 OFFCURVE",
"194 505 OFFCURVE",
"179 505 CURVE SMOOTH",
"174 505 OFFCURVE",
"169 506 OFFCURVE",
"166 509 CURVE",
"36 616 LINE SMOOTH",
"31 620 OFFCURVE",
"29 624 OFFCURVE",
"29 629 CURVE SMOOTH",
"29 640 OFFCURVE",
"42 651 OFFCURVE",
"55 651 CURVE SMOOTH",
"60 651 OFFCURVE",
"65 650 OFFCURVE",
"68 647 CURVE"
);
}
);
width = 226;
}
);
unicode = 0060;
},
{
glyphname = a;
layers = (
{
layerId = "40D00E06-06D8-47EA-A1ED-37FDE38D6C1B";
name = Light;
paths = (
{
closed = 1;
nodes = (
"403 13 LINE SMOOTH",
"403 -2 OFFCURVE",
"392 -10 OFFCURVE",
"379 -10 CURVE SMOOTH",
"367 -10 OFFCURVE",
"355 0 OFFCURVE",
"355 13 CURVE SMOOTH",
"355 70 LINE",
"276 18 OFFCURVE",
"202 -5 OFFCURVE",
"138 -5 CURVE SMOOTH",
"75 -5 OFFCURVE",
"32 20 OFFCURVE",
"27 56 CURVE",
"27 143 OFFCURVE",
"147 236 OFFCURVE",
"355 236 CURVE",
"355 293 LINE SMOOTH",
"355 361 OFFCURVE",
"332 406 OFFCURVE",
"276 406 CURVE SMOOTH",
"233 406 OFFCURVE",
"181 365 OFFCURVE",
"145 326 CURVE SMOOTH",
"127 306 OFFCURVE",
"115 296 OFFCURVE",
"109 296 CURVE SMOOTH",
"97 296 OFFCURVE",
"84 307 OFFCURVE",
"84 320 CURVE SMOOTH",
"84 325 OFFCURVE",
"94 339 OFFCURVE",
"113 360 CURVE SMOOTH",
"152 402 OFFCURVE",
"216 450 OFFCURVE",
"276 450 CURVE SMOOTH",
"363 450 OFFCURVE",
"403 382 OFFCURVE",
"403 293 CURVE SMOOTH"
);
},
{
closed = 1;
nodes = (
"355 190 LINE",
"265 190 OFFCURVE",
"195 175 OFFCURVE",
"144 146 CURVE SMOOTH",
"93 117 OFFCURVE",
"70 88 OFFCURVE",
"73 59 CURVE",
"71 51 OFFCURVE",
"75 44 OFFCURVE",
"85 39 CURVE SMOOTH",
"95 34 OFFCURVE",
"110 31 OFFCURVE",
"129 31 CURVE SMOOTH",
"189 31 OFFCURVE",
"270 58 OFFCURVE",
"355 125 CURVE"
);
}
);
width = 448;
}
);
unicode = 0061;
},
{
glyphname = b;
layers = (
{
layerId = "40D00E06-06D8-47EA-A1ED-37FDE38D6C1B";
name = Light;
paths = (
{
closed = 1;
nodes = (
"382 373 OFFCURVE",
"383 355 OFFCURVE",
"383 340 CURVE SMOOTH",
"383 204 OFFCURVE",
"266 98 OFFCURVE",
"151 36 CURVE SMOOTH",
"94 5 OFFCURVE",
"61 -11 OFFCURVE",
"54 -11 CURVE",
"28 7 LINE",
"28 254 LINE",
"26 257 OFFCURVE",
"25 261 OFFCURVE",
"25 265 CURVE SMOOTH",
"25 270 OFFCURVE",
"26 274 OFFCURVE",
"29 277 CURVE",
"28 275 OFFCURVE",
"28 273 OFFCURVE",
"28 271 CURVE",
"28 609 LINE SMOOTH",
"28 625 OFFCURVE",
"45 631 OFFCURVE",
"52 631 CURVE SMOOTH",
"67 631 OFFCURVE",
"75 620 OFFCURVE",
"75 609 CURVE SMOOTH",
"75 336 LINE",
"147 415 OFFCURVE",
"226 456 OFFCURVE",
"287 456 CURVE SMOOTH",
"335 456 OFFCURVE",
"368 433 OFFCURVE",
"379 386 CURVE SMOOTH"
);
},
{
closed = 1;
nodes = (
"330 405 OFFCURVE",
"314 418 OFFCURVE",
"285 418 CURVE SMOOTH",
"233 418 OFFCURVE",
"148 363 OFFCURVE",
"75 263 CURVE",
"75 50 LINE",
"196 103 OFFCURVE",
"336 204 OFFCURVE",
"336 337 CURVE SMOOTH",
"336 352 OFFCURVE",
"335 365 OFFCURVE",
"332 378 CURVE"
);
}
);
width = 411;
}
);
unicode = 0062;
},
{
glyphname = c;
layers = (
{
layerId = "40D00E06-06D8-47EA-A1ED-37FDE38D6C1B";
name = Light;
paths = (
{
closed = 1;
nodes = (
"355 56 OFFCURVE",
"253 -9 OFFCURVE",
"169 -9 CURVE SMOOTH",
"86 -9 OFFCURVE",
"30 45 OFFCURVE",
"30 173 CURVE SMOOTH",
"30 293 OFFCURVE",
"145 465 OFFCURVE",
"254 465 CURVE SMOOTH",
"299 465 OFFCURVE",
"347 432 OFFCURVE",
"368 397 CURVE SMOOTH",
"378 380 OFFCURVE",
"383 369 OFFCURVE",
"383 366 CURVE SMOOTH",
"383 353 OFFCURVE",
"371 342 OFFCURVE",
"356 342 CURVE SMOOTH",
"348 342 OFFCURVE",
"337 355 OFFCURVE",
"323 381 CURVE SMOOTH",
"308 407 OFFCURVE",
"284 420 OFFCURVE",
"251 420 CURVE SMOOTH",
"170 420 OFFCURVE",
"77 276 OFFCURVE",
"77 173 CURVE SMOOTH",
"77 80 OFFCURVE",
"116 38 OFFCURVE",
"175 38 CURVE SMOOTH",
"236 38 OFFCURVE",
"318 95 OFFCURVE",
"338 132 CURVE SMOOTH",
"347 150 OFFCURVE",
"357 159 OFFCURVE",
"366 159 CURVE SMOOTH",
"381 159 OFFCURVE",
"393 149 OFFCURVE",
"393 136 CURVE SMOOTH",
"393 135 OFFCURVE",
"392 132 OFFCURVE",
"391 128 CURVE"
);
}
);
width = 441;
}
);
unicode = 0063;
},
{
glyphname = d;
layers = (
{
layerId = "40D00E06-06D8-47EA-A1ED-37FDE38D6C1B";
name = Light;
paths = (
{
closed = 1;
nodes = (
"429 13 LINE SMOOTH",
"429 -2 OFFCURVE",
"421 -10 OFFCURVE",
"405 -10 CURVE SMOOTH",
"389 -10 OFFCURVE",
"381 -2 OFFCURVE",
"381 13 CURVE SMOOTH",
"381 159 LINE",
"318 67 OFFCURVE",
"211 -6 OFFCURVE",
"128 -6 CURVE SMOOTH",
"106 -6 OFFCURVE",
"86 -1 OFFCURVE",
"69 10 CURVE",
"38 34 OFFCURVE",
"26 67 OFFCURVE",
"26 107 CURVE SMOOTH",
"26 238 OFFCURVE",
"185 411 OFFCURVE",
"313 411 CURVE SMOOTH",
"340 411 OFFCURVE",
"365 404 OFFCURVE",
"386 389 CURVE",
"381 394 LINE",
"381 624 LINE SMOOTH",
"381 640 OFFCURVE",
"398 646 OFFCURVE",
"405 646 CURVE SMOOTH",
"421 646 OFFCURVE",
"429 639 OFFCURVE",
"429 624 CURVE SMOOTH",
"429 308 LINE",
"429 278 LINE"
);
},
{
closed = 1;
nodes = (
"381 320 LINE",
"376 334 OFFCURVE",
"368 345 OFFCURVE",
"356 353 CURVE",
"341 366 OFFCURVE",
"324 372 OFFCURVE",
"304 372 CURVE SMOOTH",
"208 372 OFFCURVE",
"63 214 OFFCURVE",
"63 113 CURVE SMOOTH",
"63 85 OFFCURVE",
"74 61 OFFCURVE",
"97 48 CURVE",
"107 39 OFFCURVE",
"121 34 OFFCURVE",
"138 34 CURVE SMOOTH",
"222 34 OFFCURVE",
"358 170 OFFCURVE",
"381 270 CURVE"
);
}
);
width = 475;
}
);
unicode = 0064;
},
{
glyphname = e;
lastChange = "2014-02-11 19:08:23 -0800";
layers = (
{
layerId = "40D00E06-06D8-47EA-A1ED-37FDE38D6C1B";
name = Light;
paths = (
{
closed = 1;
nodes = (
"88 253 LINE",
"79 224 OFFCURVE",
"74 197 OFFCURVE",
"74 171 CURVE SMOOTH",
"74 126 OFFCURVE",
"83 99 OFFCURVE",
"108 68 CURVE",
"121 47 OFFCURVE",
"154 39 OFFCURVE",
"191 39 CURVE SMOOTH",
"209 39 OFFCURVE",
"290 54 OFFCURVE",
"353 149 CURVE SMOOTH",
"371 176 OFFCURVE",
"384 185 OFFCURVE",
"389 185 CURVE SMOOTH",
"398 185 OFFCURVE",
"416 184 OFFCURVE",
"414 174 CURVE",
"378 65 OFFCURVE",
"272 0 OFFCURVE",
"176 0 CURVE SMOOTH",
"129 0 OFFCURVE",
"94 12 OFFCURVE",
"69 46 CURVE SMOOTH",
"44 80 OFFCURVE",
"29 129 OFFCURVE",
"29 178 CURVE SMOOTH",
"29 301 OFFCURVE",
"120 429 OFFCURVE",
"178 446 CURVE SMOOTH",
"198 452 OFFCURVE",
"208 456 OFFCURVE",
"231 458 CURVE",
"237 458 OFFCURVE",
"242 458 OFFCURVE",
"245 458 CURVE SMOOTH",
"313 458 OFFCURVE",
"374 416 OFFCURVE",
"402 355 CURVE",
"394 339 LINE"
);
},
{
closed = 1;
nodes = (
"340 372 LINE",
"308 408 OFFCURVE",
"254 420 OFFCURVE",
"218 413 CURVE SMOOTH",
"186 407 OFFCURVE",
"169 397 OFFCURVE",
"150 378 CURVE SMOOTH",
"139 367 OFFCURVE",
"122 346 OFFCURVE",
"105 309 CURVE"
);
}
);
width = 455;
}
);
unicode = 0065;
},
{
glyphname = f;
layers = (
{
layerId = "40D00E06-06D8-47EA-A1ED-37FDE38D6C1B";
name = Light;
paths = (
{
closed = 1;
nodes = (
"351 577 OFFCURVE",
"339 564 OFFCURVE",
"323 564 CURVE SMOOTH",
"312 564 OFFCURVE",
"304 570 OFFCURVE",
"301 582 CURVE",
"294 605 OFFCURVE",
"270 619 OFFCURVE",
"245 619 CURVE SMOOTH",
"214 619 OFFCURVE",
"190 598 OFFCURVE",
"190 561 CURVE SMOOTH",
"190 431 LINE",
"321 466 LINE",
"337 471 OFFCURVE",
"349 459 OFFCURVE",
"349 443 CURVE SMOOTH",
"349 432 OFFCURVE",
"344 425 OFFCURVE",
"333 421 CURVE",
"190 383 LINE",
"190 13 LINE SMOOTH",
"190 -2 OFFCURVE",
"179 -10 OFFCURVE",
"167 -10 CURVE SMOOTH",
"151 -10 OFFCURVE",
"143 -2 OFFCURVE",
"143 13 CURVE SMOOTH",
"143 368 LINE",
"50 344 LINE SMOOTH",
"33 339 OFFCURVE",
"21 351 OFFCURVE",
"21 367 CURVE SMOOTH",
"21 378 OFFCURVE",
"27 385 OFFCURVE",
"39 389 CURVE",
"143 417 LINE",
"143 561 LINE SMOOTH",
"143 628 OFFCURVE",
"188 666 OFFCURVE",
"243 666 CURVE SMOOTH",
"288 666 OFFCURVE",
"333 638 OFFCURVE",
"346 593 CURVE SMOOTH"
);
}
);
width = 374;
}
);
unicode = 0066;
},
{
glyphname = g;
layers = (
{
layerId = "40D00E06-06D8-47EA-A1ED-37FDE38D6C1B";
name = Light;
paths = (
{
closed = 1;
nodes = (
"392 -29 LINE SMOOTH",
"392 -126 OFFCURVE",
"324 -173 OFFCURVE",
"237 -173 CURVE SMOOTH",
"169 -173 OFFCURVE",
"104 -142 OFFCURVE",
"87 -97 CURVE",
"87 -82 OFFCURVE",
"101 -70 OFFCURVE",
"116 -70 CURVE SMOOTH",
"126 -70 OFFCURVE",
"131 -75 OFFCURVE",
"131 -86 CURVE",
"139 -113 OFFCURVE",
"182 -132 OFFCURVE",
"227 -132 CURVE SMOOTH",
"292 -132 OFFCURVE",
"346 -98 OFFCURVE",
"346 -29 CURVE",
"345 229 LINE",
"334 205 OFFCURVE",
"320 176 OFFCURVE",
"288 121 CURVE SMOOTH",
"255 65 OFFCURVE",
"173 -10 OFFCURVE",
"108 -10 CURVE SMOOTH",
"97 -10 OFFCURVE",
"87 -8 OFFCURVE",
"77 -4 CURVE",
"50 12 OFFCURVE",
"36 52 OFFCURVE",
"36 104 CURVE SMOOTH",
"36 179 OFFCURVE",
"62 264 OFFCURVE",
"105 313 CURVE SMOOTH",
"186 400 OFFCURVE",
"283 441 OFFCURVE",
"343 441 CURVE SMOOTH",
"355 441 OFFCURVE",
"364 440 OFFCURVE",
"369 437 CURVE",
"383 420 LINE",
"390 415 OFFCURVE",
"393 408 OFFCURVE",
"393 400 CURVE SMOOTH"
);
},
{
closed = 1;
nodes = (
"341 398 OFFCURVE",
"337 399 OFFCURVE",
"332 399 CURVE SMOOTH",
"291 399 OFFCURVE",
"209 360 OFFCURVE",
"141 284 CURVE",
"104 247 OFFCURVE",
"77 160 OFFCURVE",
"77 96 CURVE SMOOTH",
"77 61 OFFCURVE",
"84 41 OFFCURVE",
"98 37 CURVE",
"101 34 OFFCURVE",
"106 33 OFFCURVE",
"113 33 CURVE SMOOTH",
"153 33 OFFCURVE",
"221 95 OFFCURVE",
"266 174 CURVE SMOOTH",
"310 253 OFFCURVE",
"351 347 OFFCURVE",
"351 382 CURVE SMOOTH",
"351 391 OFFCURVE",
"349 395 OFFCURVE",
"344 395 CURVE"
);
}
);
width = 436;
}
);
unicode = 0067;
},
{
glyphname = h;
layers = (
{
layerId = "40D00E06-06D8-47EA-A1ED-37FDE38D6C1B";
name = Light;
paths = (
{
closed = 1;
nodes = (
"390 13 LINE SMOOTH",
"390 -2 OFFCURVE",
"379 -10 OFFCURVE",
"367 -10 CURVE SMOOTH",
"351 -10 OFFCURVE",
"343 -2 OFFCURVE",
"343 13 CURVE SMOOTH",
"343 333 LINE SMOOTH",
"343 397 OFFCURVE",
"324 426 OFFCURVE",
"292 426 CURVE SMOOTH",
"244 426 OFFCURVE",
"174 363 OFFCURVE",
"118 283 CURVE",
"118 13 LINE SMOOTH",
"118 -2 OFFCURVE",
"107 -10 OFFCURVE",
"95 -10 CURVE SMOOTH",
"79 -10 OFFCURVE",
"71 -2 OFFCURVE",
"71 13 CURVE SMOOTH",
"71 627 LINE SMOOTH",
"71 643 OFFCURVE",
"88 649 OFFCURVE",
"95 649 CURVE SMOOTH",
"110 649 OFFCURVE",
"118 638 OFFCURVE",
"118 627 CURVE SMOOTH",
"118 359 LINE",
"174 424 OFFCURVE",
"247 474 OFFCURVE",
"303 474 CURVE SMOOTH",
"355 474 OFFCURVE",
"389 432 OFFCURVE",
"389 333 CURVE SMOOTH"
);
}
);
width = 436;
}
);
unicode = 0068;
},
{
glyphname = i;
layers = (
{
layerId = "40D00E06-06D8-47EA-A1ED-37FDE38D6C1B";
name = Light;
paths = (
{
closed = 1;
nodes = (
"119 553 LINE SMOOTH",
"119 540 OFFCURVE",
"109 532 OFFCURVE",
"96 532 CURVE SMOOTH",
"80 532 OFFCURVE",
"72 539 OFFCURVE",
"72 553 CURVE SMOOTH",
"72 587 LINE SMOOTH",
"72 603 OFFCURVE",
"89 609 OFFCURVE",
"96 609 CURVE SMOOTH",
"111 609 OFFCURVE",
"119 598 OFFCURVE",
"119 587 CURVE SMOOTH"
);
},
{
closed = 1;
nodes = (
"121 13 LINE SMOOTH",
"121 -2 OFFCURVE",
"110 -10 OFFCURVE",
"98 -10 CURVE SMOOTH",
"82 -10 OFFCURVE",
"74 -2 OFFCURVE",
"74 13 CURVE SMOOTH",
"74 438 LINE SMOOTH",
"74 454 OFFCURVE",
"82 462 OFFCURVE",
"98 462 CURVE SMOOTH",
"113 462 OFFCURVE",
"121 454 OFFCURVE",
"121 438 CURVE SMOOTH"
);
}
);
width = 183;
}
);
unicode = 0069;
},
{
glyphname = j;
layers = (
{
layerId = "40D00E06-06D8-47EA-A1ED-37FDE38D6C1B";
name = Light;
paths = (
{
closed = 1;
nodes = (
"274 552 LINE SMOOTH",
"274 539 OFFCURVE",
"263 530 OFFCURVE",
"251 530 CURVE SMOOTH",
"235 530 OFFCURVE",
"227 537 OFFCURVE",
"227 552 CURVE SMOOTH",
"227 589 LINE SMOOTH",
"227 604 OFFCURVE",
"238 612 OFFCURVE",
"251 612 CURVE SMOOTH",
"263 612 OFFCURVE",
"274 604 OFFCURVE",
"274 589 CURVE SMOOTH"
);
},
{
closed = 1;
nodes = (
"272 -17 LINE SMOOTH",
"272 -105 OFFCURVE",
"217 -153 OFFCURVE",
"150 -153 CURVE SMOOTH",
"86 -153 OFFCURVE",
"33 -111 OFFCURVE",
"33 -43 CURVE SMOOTH",
"33 -27 OFFCURVE",
"50 -21 OFFCURVE",
"57 -21 CURVE SMOOTH",
"72 -21 OFFCURVE",
"80 -32 OFFCURVE",
"80 -43 CURVE SMOOTH",
"80 -80 OFFCURVE",
"112 -106 OFFCURVE",
"148 -106 CURVE SMOOTH",
"189 -106 OFFCURVE",
"224 -76 OFFCURVE",
"224 -17 CURVE SMOOTH",
"224 50 LINE",
"224 439 LINE SMOOTH",
"224 454 OFFCURVE",
"235 462 OFFCURVE",
"248 462 CURVE SMOOTH",
"260 462 OFFCURVE",
"272 452 OFFCURVE",
"272 439 CURVE SMOOTH",
"272 50 LINE"
);
}
);
width = 326;
}
);
unicode = 006A;
},
{
glyphname = k;
layers = (
{
layerId = "40D00E06-06D8-47EA-A1ED-37FDE38D6C1B";
name = Light;
paths = (
{
closed = 1;
nodes = (
"342 33 LINE",
"347 28 OFFCURVE",
"350 23 OFFCURVE",
"350 17 CURVE SMOOTH",
"350 4 OFFCURVE",
"338 -8 OFFCURVE",
"325 -8 CURVE SMOOTH",
"320 -8 OFFCURVE",
"315 -6 OFFCURVE",
"311 -3 CURVE",
"79 206 LINE",
"79 16 LINE SMOOTH",
"79 1 OFFCURVE",
"71 -7 OFFCURVE",
"55 -7 CURVE SMOOTH",
"39 -7 OFFCURVE",
"31 1 OFFCURVE",
"31 16 CURVE SMOOTH",
"32 622 LINE SMOOTH",
"32 637 OFFCURVE",
"43 645 OFFCURVE",
"56 645 CURVE SMOOTH",
"68 645 OFFCURVE",
"79 637 OFFCURVE",
"79 622 CURVE SMOOTH",
"79 295 LINE",
"275 462 LINE",
"279 465 OFFCURVE",
"284 467 OFFCURVE",
"291 467 CURVE SMOOTH",
"307 467 OFFCURVE",
"315 460 OFFCURVE",
"315 445 CURVE SMOOTH",
"315 439 OFFCURVE",
"312 433 OFFCURVE",
"306 427 CURVE",
"99 252 LINE"
);
}
);
width = 391;
}
);
unicode = 006B;
},
{
glyphname = l;
layers = (
{
layerId = "40D00E06-06D8-47EA-A1ED-37FDE38D6C1B";
name = Light;
paths = (
{
closed = 1;
nodes = (
"121 13 LINE SMOOTH",
"121 -2 OFFCURVE",
"110 -10 OFFCURVE",
"98 -10 CURVE SMOOTH",
"82 -10 OFFCURVE",
"74 -2 OFFCURVE",
"74 13 CURVE SMOOTH",
"74 630 LINE SMOOTH",
"74 646 OFFCURVE",
"91 652 OFFCURVE",
"98 652 CURVE SMOOTH",
"113 652 OFFCURVE",
"121 641 OFFCURVE",
"121 630 CURVE SMOOTH"
);
}
);
width = 174;
}
);
unicode = 006C;
},
{
glyphname = m;
layers = (
{
layerId = "40D00E06-06D8-47EA-A1ED-37FDE38D6C1B";
name = Light;
paths = (
{
closed = 1;
nodes = (
"620 13 LINE SMOOTH",
"620 -2 OFFCURVE",
"609 -10 OFFCURVE",
"596 -10 CURVE SMOOTH",
"584 -10 OFFCURVE",
"572 0 OFFCURVE",
"572 13 CURVE SMOOTH",
"572 359 LINE",
"573 368 OFFCURVE",
"574 375 OFFCURVE",
"574 378 CURVE SMOOTH",
"574 397 OFFCURVE",
"567 406 OFFCURVE",
"554 406 CURVE SMOOTH",
"513 406 OFFCURVE",
"403 300 OFFCURVE",
"351 228 CURVE",
"351 13 LINE SMOOTH",
"351 -2 OFFCURVE",
"343 -10 OFFCURVE",
"328 -10 CURVE SMOOTH",
"316 -10 OFFCURVE",
"304 0 OFFCURVE",
"304 13 CURVE SMOOTH",
"304 220 LINE",
"303 234 LINE",
"304 359 LINE",
"305 364 OFFCURVE",
"305 368 OFFCURVE",
"305 372 CURVE SMOOTH",
"305 375 OFFCURVE",
"305 377 OFFCURVE",
"305 378 CURVE SMOOTH",
"305 397 OFFCURVE",
"298 407 OFFCURVE",
"284 407 CURVE SMOOTH",
"241 407 OFFCURVE",
"128 296 OFFCURVE",
"79 224 CURVE",
"79 13 LINE SMOOTH",
"79 -2 OFFCURVE",
"71 -10 OFFCURVE",
"56 -10 CURVE SMOOTH",
"44 -10 OFFCURVE",
"32 0 OFFCURVE",
"32 13 CURVE SMOOTH",
"32 436 LINE SMOOTH",
"32 452 OFFCURVE",
"49 458 OFFCURVE",
"56 458 CURVE SMOOTH",
"71 458 OFFCURVE",
"79 447 OFFCURVE",
"79 436 CURVE SMOOTH",
"79 294 LINE",
"150 373 OFFCURVE",
"232 439 OFFCURVE",
"288 439 CURVE SMOOTH",
"323 439 OFFCURVE",
"345 416 OFFCURVE",
"350 359 CURVE",
"350 297 LINE",
"418 373 OFFCURVE",
"503 440 OFFCURVE",
"556 440 CURVE SMOOTH",
"591 440 OFFCURVE",
"612 416 OFFCURVE",
"619 359 CURVE"
);
}
);
width = 660;
}
);
unicode = 006D;
},
{
glyphname = n;
layers = (
{
layerId = "40D00E06-06D8-47EA-A1ED-37FDE38D6C1B";
name = Light;
paths = (
{
closed = 1;
nodes = (
"356 9 LINE SMOOTH",
"356 -6 OFFCURVE",
"348 -14 OFFCURVE",
"333 -14 CURVE SMOOTH",
"321 -14 OFFCURVE",
"309 -4 OFFCURVE",
"309 9 CURVE SMOOTH",
"309 356 LINE",
"310 361 OFFCURVE",
"310 367 OFFCURVE",
"310 374 CURVE SMOOTH",
"310 396 OFFCURVE",
"302 407 OFFCURVE",
"286 407 CURVE SMOOTH",
"239 407 OFFCURVE",
"136 308 OFFCURVE",
"84 220 CURVE",
"85 9 LINE SMOOTH",
"85 -6 OFFCURVE",
"77 -14 OFFCURVE",
"62 -14 CURVE SMOOTH",
"50 -14 OFFCURVE",
"38 -4 OFFCURVE",
"38 9 CURVE SMOOTH",
"38 224 LINE",
"38 433 LINE SMOOTH",
"38 449 OFFCURVE",
"55 455 OFFCURVE",
"62 455 CURVE SMOOTH",
"77 455 OFFCURVE",
"85 444 OFFCURVE",
"85 433 CURVE SMOOTH",
"85 298 LINE",
"150 378 OFFCURVE",
"234 442 OFFCURVE",
"289 442 CURVE SMOOTH",
"326 442 OFFCURVE",
"350 415 OFFCURVE",
"355 355 CURVE"
);
}
);
width = 389;
}
);
unicode = 006E;
},
{
glyphname = o;
layers = (
{
layerId = "40D00E06-06D8-47EA-A1ED-37FDE38D6C1B";
name = Light;
paths = (
{
closed = 1;
nodes = (
"412 386 OFFCURVE",
"429 343 OFFCURVE",
"429 294 CURVE SMOOTH",
"429 157 OFFCURVE",
"307 -5 OFFCURVE",
"179 -5 CURVE SMOOTH",
"148 -5 OFFCURVE",
"117 4 OFFCURVE",
"88 23 CURVE",
"44 55 OFFCURVE",
"24 102 OFFCURVE",
"24 157 CURVE SMOOTH",
"24 293 OFFCURVE",
"148 443 OFFCURVE",
"277 443 CURVE SMOOTH",
"312 443 OFFCURVE",
"344 434 OFFCURVE",
"379 411 CURVE"
);
},
{
closed = 1;
nodes = (
"327 393 OFFCURVE",
"301 402 OFFCURVE",
"273 402 CURVE SMOOTH",
"170 402 OFFCURVE",
"66 271 OFFCURVE",
"66 160 CURVE SMOOTH",
"66 116 OFFCURVE",
"80 83 OFFCURVE",
"116 59 CURVE",
"137 43 OFFCURVE",
"160 35 OFFCURVE",
"185 35 CURVE SMOOTH",
"284 35 OFFCURVE",
"390 180 OFFCURVE",
"390 291 CURVE SMOOTH",
"390 330 OFFCURVE",
"379 356 OFFCURVE",
"351 375 CURVE"
);
}
);
width = 460;
}
);
unicode = 006F;
},
{
glyphname = p;
layers = (
{
layerId = "40D00E06-06D8-47EA-A1ED-37FDE38D6C1B";
name = Light;
paths = (
{
closed = 1;
nodes = (
"364 408 OFFCURVE",
"372 369 OFFCURVE",
"372 332 CURVE SMOOTH",
"372 180 OFFCURVE",
"259 -4 OFFCURVE",
"143 -4 CURVE SMOOTH",
"118 -4 OFFCURVE",
"100 1 OFFCURVE",
"75 17 CURVE",
"76 -203 LINE SMOOTH",
"76 -218 OFFCURVE",
"65 -226 OFFCURVE",
"53 -226 CURVE SMOOTH",
"37 -226 OFFCURVE",
"29 -218 OFFCURVE",
"29 -203 CURVE SMOOTH",
"29 440 LINE SMOOTH",
"29 456 OFFCURVE",
"46 462 OFFCURVE",
"53 462 CURVE SMOOTH",
"68 462 OFFCURVE",
"76 451 OFFCURVE",
"76 440 CURVE SMOOTH",
"76 368 LINE",
"123 433 OFFCURVE",
"193 484 OFFCURVE",
"256 484 CURVE SMOOTH",
"291 484 OFFCURVE",
"323 468 OFFCURVE",
"348 433 CURVE"
);
},
{
closed = 1;
nodes = (
"295 433 OFFCURVE",
"278 443 OFFCURVE",
"255 443 CURVE SMOOTH",
"188 443 OFFCURVE",
"93 344 OFFCURVE",
"77 272 CURVE",
"76 269 LINE",
"76 76 LINE",
"97 49 OFFCURVE",
"121 36 OFFCURVE",
"148 36 CURVE SMOOTH",
"235 36 OFFCURVE",
"329 200 OFFCURVE",
"329 325 CURVE SMOOTH",
"329 364 OFFCURVE",
"324 385 OFFCURVE",
"308 409 CURVE"
);
}
);
width = 399;
}
);
unicode = 0070;
},
{
glyphname = q;
layers = (
{
layerId = "40D00E06-06D8-47EA-A1ED-37FDE38D6C1B";
name = Light;
paths = (
{
closed = 1;
nodes = (
"432 -220 LINE",
"399 -207 LINE",
"397 288 LINE",
"340 136 OFFCURVE",
"242 -4 OFFCURVE",
"147 -4 CURVE SMOOTH",
"116 -4 OFFCURVE",
"87 10 OFFCURVE",
"59 38 CURVE",
"35 66 OFFCURVE",
"23 106 OFFCURVE",
"23 159 CURVE SMOOTH",
"23 311 OFFCURVE",
"134 465 OFFCURVE",
"323 465 CURVE SMOOTH",
"358 465 OFFCURVE",
"379 463 OFFCURVE",
"418 454 CURVE",
"433 454 OFFCURVE",
"445 447 OFFCURVE",
"445 432 CURVE SMOOTH",
"445 -141 LINE",
"501 -86 LINE",
"505 -81 OFFCURVE",
"510 -79 OFFCURVE",
"516 -79 CURVE SMOOTH",
"529 -79 OFFCURVE",
"541 -91 OFFCURVE",
"541 -104 CURVE SMOOTH",
"541 -109 OFFCURVE",
"539 -114 OFFCURVE",
"535 -118 CURVE SMOOTH"
);
},
{
closed = 1;
nodes = (
"408 389 LINE",
"377 404 OFFCURVE",
"344 412 OFFCURVE",
"311 412 CURVE SMOOTH",
"179 412 OFFCURVE",
"65 274 OFFCURVE",
"65 154 CURVE SMOOTH",
"65 113 OFFCURVE",
"79 81 OFFCURVE",
"106 60 CURVE",
"118 57 OFFCURVE",
"129 55 OFFCURVE",
"138 55 CURVE SMOOTH",
"219 55 OFFCURVE",
"294 158 OFFCURVE",
"343 267 CURVE SMOOTH",
"367 322 OFFCURVE",
"382 363 OFFCURVE",
"388 390 CURVE"
);
}
);
width = 574;
}
);
unicode = 0071;
},
{
glyphname = r;
layers = (
{
layerId = "40D00E06-06D8-47EA-A1ED-37FDE38D6C1B";
name = Light;
paths = (
{
closed = 1;
nodes = (
"358 350 OFFCURVE",
"350 343 OFFCURVE",
"335 343 CURVE SMOOTH",
"304 343 OFFCURVE",
"313 367 OFFCURVE",
"314 384 CURVE",
"315 393 OFFCURVE",
"315 398 OFFCURVE",
"315 400 CURVE SMOOTH",
"315 416 OFFCURVE",
"313 424 OFFCURVE",
"308 424 CURVE",
"306 429 OFFCURVE",
"303 431 OFFCURVE",
"298 431 CURVE SMOOTH",
"265 431 OFFCURVE",
"189 338 OFFCURVE",
"118 257 CURVE",
"118 13 LINE SMOOTH",
"118 -2 OFFCURVE",
"107 -10 OFFCURVE",
"95 -10 CURVE SMOOTH",
"79 -10 OFFCURVE",
"71 -2 OFFCURVE",
"71 13 CURVE SMOOTH",
"71 441 LINE SMOOTH",
"71 457 OFFCURVE",
"88 463 OFFCURVE",
"95 463 CURVE SMOOTH",
"110 463 OFFCURVE",
"118 452 OFFCURVE",
"118 441 CURVE SMOOTH",
"118 325 LINE",
"172 382 OFFCURVE",
"213 421 OFFCURVE",
"241 440 CURVE SMOOTH",
"268 459 OFFCURVE",
"292 469 OFFCURVE",
"311 469 CURVE SMOOTH",
"322 469 OFFCURVE",
"331 466 OFFCURVE",
"339 461 CURVE",
"355 442 OFFCURVE",
"357 399 OFFCURVE",
"358 363 CURVE SMOOTH"
);
}
);
width = 364;
}
);
unicode = 0072;
},
{
glyphname = s;
layers = (
{
layerId = "40D00E06-06D8-47EA-A1ED-37FDE38D6C1B";
name = Light;
paths = (
{
closed = 1;
nodes = (
"369 455 OFFCURVE",
"376 449 OFFCURVE",
"376 436 CURVE SMOOTH",
"376 419 OFFCURVE",
"368 411 OFFCURVE",
"351 411 CURVE",
"321 415 OFFCURVE",
"294 417 OFFCURVE",
"270 417 CURVE SMOOTH",
"135 417 OFFCURVE",
"60 356 OFFCURVE",
"60 299 CURVE SMOOTH",
"60 271 OFFCURVE",
"76 257 OFFCURVE",
"108 257 CURVE SMOOTH",
"127 257 OFFCURVE",
"149 264 OFFCURVE",
"176 278 CURVE SMOOTH",
"228 305 OFFCURVE",
"282 319 OFFCURVE",
"322 319 CURVE SMOOTH",
"395 319 OFFCURVE",
"439 275 OFFCURVE",
"439 212 CURVE SMOOTH",
"439 156 OFFCURVE",
"402 95 OFFCURVE",
"342 56 CURVE SMOOTH",
"282 17 OFFCURVE",
"222 -5 OFFCURVE",
"167 -5 CURVE SMOOTH",
"108 -5 OFFCURVE",
"64 19 OFFCURVE",
"39 72 CURVE",
"34 89 OFFCURVE",
"46 104 OFFCURVE",
"63 104 CURVE SMOOTH",
"72 104 OFFCURVE",
"81 93 OFFCURVE",
"90 72 CURVE SMOOTH",
"99 50 OFFCURVE",
"124 39 OFFCURVE",
"167 39 CURVE SMOOTH",
"211 39 OFFCURVE",
"259 56 OFFCURVE",
"310 91 CURVE",
"357 126 OFFCURVE",
"383 169 OFFCURVE",
"383 206 CURVE SMOOTH",
"383 246 OFFCURVE",
"359 266 OFFCURVE",
"310 266 CURVE SMOOTH",
"278 266 OFFCURVE",
"244 257 OFFCURVE",
"190 233 CURVE SMOOTH",
"163 220 OFFCURVE",
"136 214 OFFCURVE",
"110 214 CURVE SMOOTH",
"54 214 OFFCURVE",
"23 249 OFFCURVE",
"23 297 CURVE SMOOTH",
"23 381 OFFCURVE",
"111 464 OFFCURVE",
"263 464 CURVE SMOOTH",
"291 464 OFFCURVE",
"322 461 OFFCURVE",
"356 455 CURVE"
);
}
);
width = 479;
}
);
unicode = 0073;
},
{
glyphname = t;
layers = (
{
layerId = "40D00E06-06D8-47EA-A1ED-37FDE38D6C1B";
name = Light;
paths = (
{
closed = 1;
nodes = (
"334 60 OFFCURVE",
"292 34 OFFCURVE",
"173 -10 CURVE",
"146 7 LINE",
"146 366 LINE",
"48 340 LINE",
"33 340 OFFCURVE",
"22 353 OFFCURVE",
"22 368 CURVE SMOOTH",
"22 380 OFFCURVE",
"28 386 OFFCURVE",
"40 386 CURVE",
"146 412 LINE",
"146 522 LINE SMOOTH",
"146 538 OFFCURVE",
"163 544 OFFCURVE",
"170 544 CURVE SMOOTH",
"185 544 OFFCURVE",
"193 533 OFFCURVE",
"193 522 CURVE SMOOTH",
"193 425 LINE",
"365 468 LINE",
"381 468 OFFCURVE",
"392 455 OFFCURVE",
"392 440 CURVE SMOOTH",
"392 429 OFFCURVE",
"386 423 OFFCURVE",
"374 423 CURVE",
"193 377 LINE",
"193 48 LINE",
"280 80 OFFCURVE",
"323 108 OFFCURVE",
"365 148 CURVE SMOOTH",
"386 167 OFFCURVE",
"399 177 OFFCURVE",
"404 177 CURVE SMOOTH",
"420 177 OFFCURVE",
"428 169 OFFCURVE",
"428 153 CURVE SMOOTH",
"428 147 OFFCURVE",
"426 142 OFFCURVE",
"421 137 CURVE"
);
}
);
width = 443;
}
);
unicode = 0074;
},
{
glyphname = u;
layers = (
{
layerId = "40D00E06-06D8-47EA-A1ED-37FDE38D6C1B";
name = Light;
paths = (
{
closed = 1;
nodes = (
"359 6 LINE SMOOTH",
"359 -7 OFFCURVE",
"348 -14 OFFCURVE",
"336 -14 CURVE SMOOTH",
"323 -14 OFFCURVE",
"312 -7 OFFCURVE",
"312 6 CURVE SMOOTH",
"312 74 LINE",
"265 23 OFFCURVE",
"195 -12 OFFCURVE",
"138 -12 CURVE SMOOTH",
"77 -12 OFFCURVE",
"38 24 OFFCURVE",
"38 104 CURVE SMOOTH",
"38 433 LINE SMOOTH",
"38 449 OFFCURVE",
"55 455 OFFCURVE",
"62 455 CURVE SMOOTH",
"77 455 OFFCURVE",
"85 444 OFFCURVE",
"85 433 CURVE SMOOTH",
"84 104 LINE SMOOTH",
"84 57 OFFCURVE",
"105 37 OFFCURVE",
"141 37 CURVE SMOOTH",
"209 37 OFFCURVE",
"312 119 OFFCURVE",
"312 174 CURVE SMOOTH",
"312 433 LINE SMOOTH",
"312 449 OFFCURVE",
"329 455 OFFCURVE",
"336 455 CURVE SMOOTH",
"351 455 OFFCURVE",
"359 444 OFFCURVE",
"359 433 CURVE SMOOTH"
);
}
);
width = 397;
}
);
unicode = 0075;
},
{
glyphname = v;
layers = (
{
layerId = "40D00E06-06D8-47EA-A1ED-37FDE38D6C1B";
name = Light;
paths = (
{
closed = 1;
nodes = (
"263 239 OFFCURVE",
"160 88 OFFCURVE",
"160 -1 CURVE",
"118 -8 LINE",
"89 77 OFFCURVE",
"63 220 OFFCURVE",
"48 320 CURVE SMOOTH",
"40 370 OFFCURVE",
"34 409 OFFCURVE",
"30 438 CURVE",
"30 453 OFFCURVE",
"43 461 OFFCURVE",
"56 461 CURVE SMOOTH",
"69 461 OFFCURVE",
"76 455 OFFCURVE",
"76 444 CURVE",
"89 347 OFFCURVE",
"105 229 OFFCURVE",
"136 101 CURVE",
"160 158 OFFCURVE",
"199 223 OFFCURVE",
"253 298 CURVE SMOOTH",
"306 373 OFFCURVE",
"337 416 OFFCURVE",
"346 429 CURVE",
"355 441 OFFCURVE",
"363 447 OFFCURVE",
"370 447 CURVE SMOOTH",
"382 447 OFFCURVE",
"395 436 OFFCURVE",
"395 424 CURVE SMOOTH",
"395 419 OFFCURVE",
"393 414 OFFCURVE",
"390 411 CURVE"
);
}
);
width = 422;
}
);
unicode = 0076;
},
{
glyphname = w;
layers = (
{
layerId = "40D00E06-06D8-47EA-A1ED-37FDE38D6C1B";
name = Light;
paths = (
{
closed = 1;
nodes = (
"533 357 OFFCURVE",
"476 239 OFFCURVE",
"430 134 CURVE SMOOTH",
"407 81 OFFCURVE",
"395 41 OFFCURVE",
"395 12 CURVE",
"353 4 LINE",
"319 105 OFFCURVE",
"285 207 OFFCURVE",
"251 308 CURVE",
"246 289 OFFCURVE",
"229 238 OFFCURVE",
"202 155 CURVE SMOOTH",
"175 72 OFFCURVE",
"159 20 OFFCURVE",
"156 0 CURVE",
"114 -3 LINE",
"79 124 OFFCURVE",
"32 381 OFFCURVE",
"32 442 CURVE SMOOTH",
"32 458 OFFCURVE",
"49 464 OFFCURVE",
"56 464 CURVE SMOOTH",
"71 464 OFFCURVE",
"79 453 OFFCURVE",
"79 442 CURVE SMOOTH",
"79 398 OFFCURVE",
"106 239 OFFCURVE",
"135 106 CURVE",
"174 219 OFFCURVE",
"226 363 OFFCURVE",
"226 452 CURVE",
"272 456 LINE",
"272 411 OFFCURVE",
"279 368 OFFCURVE",
"292 327 CURVE SMOOTH",
"305 286 OFFCURVE",
"330 213 OFFCURVE",
"367 109 CURVE",
"372 123 OFFCURVE",
"394 172 OFFCURVE",
"433 256 CURVE SMOOTH",
"472 340 OFFCURVE",
"493 403 OFFCURVE",
"498 445 CURVE",
"498 457 OFFCURVE",
"505 463 OFFCURVE",
"518 463 CURVE SMOOTH",
"533 463 OFFCURVE",
"544 455 OFFCURVE",
"544 442 CURVE"
);
}
);
width = 570;
}
);
unicode = 0077;
},
{
glyphname = x;
layers = (
{
layerId = "40D00E06-06D8-47EA-A1ED-37FDE38D6C1B";
name = Light;
paths = (
{
closed = 1;
nodes = (
"386 433 OFFCURVE",
"371 411 OFFCURVE",
"346 378 CURVE SMOOTH",
"321 344 OFFCURVE",
"289 304 OFFCURVE",
"251 257 CURVE",
"332 169 OFFCURVE",
"386 90 OFFCURVE",
"386 13 CURVE SMOOTH",
"386 -2 OFFCURVE",
"375 -10 OFFCURVE",
"363 -10 CURVE SMOOTH",
"347 -10 OFFCURVE",
"339 -2 OFFCURVE",
"339 13 CURVE SMOOTH",
"339 76 OFFCURVE",
"297 136 OFFCURVE",
"222 219 CURVE",
"181 169 OFFCURVE",
"147 125 OFFCURVE",
"118 87 CURVE SMOOTH",
"89 48 OFFCURVE",
"72 21 OFFCURVE",
"66 6 CURVE",
"63 -4 OFFCURVE",
"57 -9 OFFCURVE",
"46 -9 CURVE SMOOTH",
"33 -9 OFFCURVE",
"21 1 OFFCURVE",
"21 14 CURVE SMOOTH",
"21 17 OFFCURVE",
"23 24 OFFCURVE",
"28 35 CURVE",
"32 46 OFFCURVE",
"48 70 OFFCURVE",
"75 107 CURVE SMOOTH",
"102 144 OFFCURVE",
"141 193 OFFCURVE",
"191 254 CURVE",
"120 334 OFFCURVE",
"76 390 OFFCURVE",
"59 443 CURVE",
"59 458 OFFCURVE",
"73 468 OFFCURVE",
"88 468 CURVE SMOOTH",
"99 468 OFFCURVE",
"105 463 OFFCURVE",
"105 452 CURVE",
"117 407 OFFCURVE",
"152 367 OFFCURVE",
"221 292 CURVE",
"249 326 OFFCURVE",
"276 359 OFFCURVE",
"303 392 CURVE SMOOTH",
"330 424 OFFCURVE",
"343 443 OFFCURVE",
"343 450 CURVE SMOOTH",
"343 461 OFFCURVE",
"349 467 OFFCURVE",
"362 467 CURVE SMOOTH",
"377 467 OFFCURVE",
"389 458 OFFCURVE",
"389 443 CURVE"
);
}
);
width = 431;
}
);
unicode = 0078;
},
{
glyphname = y;
layers = (
{
layerId = "40D00E06-06D8-47EA-A1ED-37FDE38D6C1B";
name = Light;
paths = (
{
closed = 1;
nodes = (
"445 411 OFFCURVE",
"431 377 OFFCURVE",
"413 334 CURVE SMOOTH",
"376 246 OFFCURVE",
"323 123 OFFCURVE",
"278 28 CURVE",
"275 21 LINE",
"264 -1 OFFCURVE",
"252 -24 OFFCURVE",
"241 -47 CURVE SMOOTH",
"218 -94 OFFCURVE",
"216 -110 OFFCURVE",
"176 -131 CURVE SMOOTH",
"156 -142 OFFCURVE",
"135 -147 OFFCURVE",
"113 -147 CURVE SMOOTH",
"60 -147 OFFCURVE",
"19 -114 OFFCURVE",
"19 -39 CURVE SMOOTH",
"19 -23 OFFCURVE",
"36 -17 OFFCURVE",
"43 -17 CURVE SMOOTH",
"59 -17 OFFCURVE",
"67 -24 OFFCURVE",
"67 -39 CURVE SMOOTH",
"67 -82 OFFCURVE",
"88 -101 OFFCURVE",
"117 -101 CURVE SMOOTH",
"141 -101 OFFCURVE",
"163 -93 OFFCURVE",
"184 -58 CURVE SMOOTH",
"195 -41 OFFCURVE",
"210 -10 OFFCURVE",
"229 34 CURVE",
"54 433 LINE SMOOTH",
"47 450 OFFCURVE",
"61 464 OFFCURVE",
"78 464 CURVE SMOOTH",
"88 464 OFFCURVE",
"95 460 OFFCURVE",
"98 452 CURVE",
"256 92 LINE",
"271 125 OFFCURVE",
"350 308 OFFCURVE",
"378 373 CURVE SMOOTH",
"392 406 OFFCURVE",
"402 429 OFFCURVE",
"408 443 CURVE SMOOTH",
"414 457 OFFCURVE",
"422 464 OFFCURVE",
"432 464 CURVE SMOOTH",
"448 464 OFFCURVE",
"460 451 OFFCURVE",
"455 434 CURVE"
);
}
);
width = 485;
}
);
unicode = 0079;
},
{
glyphname = z;
layers = (
{
layerId = "40D00E06-06D8-47EA-A1ED-37FDE38D6C1B";
name = Light;
paths = (
{
closed = 1;
nodes = (
"394 439 LINE",
"376 413 OFFCURVE",
"356 385 OFFCURVE",
"335 354 CURVE SMOOTH",
"291 293 OFFCURVE",
"160 114 OFFCURVE",
"107 47 CURVE",
"172 52 OFFCURVE",
"233 54 OFFCURVE",
"314 54 CURVE SMOOTH",
"334 54 LINE",
"334 67 OFFCURVE",
"343 74 OFFCURVE",
"358 74 CURVE SMOOTH",
"369 74 OFFCURVE",
"381 70 OFFCURVE",
"381 54 CURVE SMOOTH",
"381 28 LINE",
"363 11 LINE",
"360 11 OFFCURVE",
"356 11 OFFCURVE",
"349 11 CURVE SMOOTH",
"342 11 OFFCURVE",
"334 11 OFFCURVE",
"324 11 CURVE SMOOTH",
"208 11 OFFCURVE",
"99 7 OFFCURVE",
"50 -9 CURVE",
"27 26 LINE",
"35 32 OFFCURVE",
"58 60 OFFCURVE",
"95 109 CURVE SMOOTH",
"170 208 OFFCURVE",
"276 355 OFFCURVE",
"317 412 CURVE",
"273 407 OFFCURVE",
"152 402 OFFCURVE",
"117 402 CURVE",
"117 385 OFFCURVE",
"106 377 OFFCURVE",
"93 377 CURVE SMOOTH",
"80 377 OFFCURVE",
"70 384 OFFCURVE",
"70 399 CURVE SMOOTH",
"70 430 LINE",
"87 446 LINE",
"188 447 OFFCURVE",
"313 448 OFFCURVE",
"369 468 CURVE"
);
}
);
width = 427;
}
);
unicode = 007A;
},
{
glyphname = braceleft;
layers = (
{
layerId = "40D00E06-06D8-47EA-A1ED-37FDE38D6C1B";
name = Light;
paths = (
{
closed = 1;
nodes = (
"213 -220 OFFCURVE",
"150 -163 OFFCURVE",
"150 58 CURVE SMOOTH",
"150 69 OFFCURVE",
"150 81 OFFCURVE",
"150 93 CURVE SMOOTH",
"150 104 OFFCURVE",
"150 116 OFFCURVE",
"151 127 CURVE",
"151 179 OFFCURVE",
"121 192 OFFCURVE",
"74 192 CURVE SMOOTH",
"69 192 OFFCURVE",
"61 192 OFFCURVE",
"51 191 CURVE SMOOTH",
"41 190 OFFCURVE",
"34 190 OFFCURVE",
"31 190 CURVE",
"31 236 LINE",
"36 236 OFFCURVE",
"42 236 OFFCURVE",
"49 236 CURVE",
"55 235 OFFCURVE",
"61 235 OFFCURVE",
"68 235 CURVE SMOOTH",
"131 235 OFFCURVE",
"149 262 OFFCURVE",
"149 307 CURVE SMOOTH",
"149 546 OFFCURVE",
"121 650 OFFCURVE",
"332 650 CURVE SMOOTH",
"348 650 OFFCURVE",
"356 642 OFFCURVE",
"356 627 CURVE SMOOTH",
"356 612 OFFCURVE",
"348 605 OFFCURVE",
"332 605 CURVE SMOOTH",
"212 605 OFFCURVE",
"195 578 OFFCURVE",
"195 439 CURVE SMOOTH",
"195 419 OFFCURVE",
"195 398 OFFCURVE",
"195 376 CURVE SMOOTH",
"195 354 OFFCURVE",
"195 331 OFFCURVE",
"196 307 CURVE",
"196 262 OFFCURVE",
"183 234 OFFCURVE",
"159 215 CURVE",
"184 198 OFFCURVE",
"199 172 OFFCURVE",
"199 127 CURVE SMOOTH",
"199 116 OFFCURVE",
"199 98 OFFCURVE",
"198 74 CURVE SMOOTH",
"197 50 OFFCURVE",
"197 32 OFFCURVE",
"197 20 CURVE SMOOTH",
"197 -107 OFFCURVE",
"223 -174 OFFCURVE",
"332 -174 CURVE SMOOTH",
"348 -174 OFFCURVE",
"356 -185 OFFCURVE",
"356 -197 CURVE SMOOTH",
"356 -212 OFFCURVE",
"348 -220 OFFCURVE",
"332 -220 CURVE SMOOTH"
);
}
);
width = 393;
}
);
unicode = 007B;
},
{
glyphname = bar;
layers = (
{
layerId = "40D00E06-06D8-47EA-A1ED-37FDE38D6C1B";
name = Light;
paths = (
{
closed = 1;
nodes = (
"92 13 LINE SMOOTH",
"92 -2 OFFCURVE",
"81 -10 OFFCURVE",
"69 -10 CURVE SMOOTH",
"53 -10 OFFCURVE",
"45 -2 OFFCURVE",
"45 13 CURVE SMOOTH",
"45 633 LINE SMOOTH",
"45 646 OFFCURVE",
"54 653 OFFCURVE",
"69 653 CURVE SMOOTH",
"80 653 OFFCURVE",
"92 649 OFFCURVE",
"92 633 CURVE SMOOTH"
);
}
);
width = 130;
}
);
unicode = 007C;
},
{
glyphname = braceright;
layers = (
{
layerId = "40D00E06-06D8-47EA-A1ED-37FDE38D6C1B";
name = Light;
paths = (
{
closed = 1;
nodes = (
"339 190 LINE",
"336 190 OFFCURVE",
"329 190 OFFCURVE",
"320 191 CURVE SMOOTH",
"310 192 OFFCURVE",
"302 192 OFFCURVE",
"296 192 CURVE SMOOTH",
"249 192 OFFCURVE",
"219 179 OFFCURVE",
"219 127 CURVE SMOOTH",
"219 116 OFFCURVE",
"219 104 OFFCURVE",
"219 93 CURVE SMOOTH",
"219 81 OFFCURVE",
"219 69 OFFCURVE",
"220 57 CURVE",
"220 -115 OFFCURVE",
"190 -220 OFFCURVE",
"37 -220 CURVE SMOOTH",
"21 -220 OFFCURVE",
"13 -212 OFFCURVE",
"13 -197 CURVE SMOOTH",
"13 -182 OFFCURVE",
"21 -174 OFFCURVE",
"37 -174 CURVE SMOOTH",
"150 -174 OFFCURVE",
"173 -101 OFFCURVE",
"173 35 CURVE SMOOTH",
"173 46 LINE SMOOTH",
"173 61 OFFCURVE",
"173 74 OFFCURVE",
"173 86 CURVE",
"172 98 OFFCURVE",
"172 108 OFFCURVE",
"172 117 CURVE SMOOTH",
"172 127 LINE SMOOTH",
"172 171 OFFCURVE",
"185 197 OFFCURVE",
"210 216 CURVE",
"189 232 OFFCURVE",
"175 263 OFFCURVE",
"175 307 CURVE SMOOTH",
"175 329 OFFCURVE",
"175 350 OFFCURVE",
"175 371 CURVE SMOOTH",
"175 391 OFFCURVE",
"175 410 OFFCURVE",
"176 429 CURVE",
"176 576 OFFCURVE",
"161 605 OFFCURVE",
"37 605 CURVE SMOOTH",
"21 605 OFFCURVE",
"13 612 OFFCURVE",
"13 627 CURVE SMOOTH",
"13 642 OFFCURVE",
"21 650 OFFCURVE",
"37 650 CURVE SMOOTH",
"246 650 OFFCURVE",
"222 534 OFFCURVE",
"222 307 CURVE SMOOTH",
"222 248 OFFCURVE",
"253 235 OFFCURVE",
"302 235 CURVE SMOOTH",
"308 235 OFFCURVE",
"314 235 OFFCURVE",
"321 235 CURVE SMOOTH",
"327 235 OFFCURVE",
"333 235 OFFCURVE",
"339 236 CURVE"
);
}
);
width = 384;
}
);
unicode = 007D;
},
{
glyphname = asciitilde;
layers = (
{
layerId = "40D00E06-06D8-47EA-A1ED-37FDE38D6C1B";
name = Light;
paths = (
{
closed = 1;
nodes = (
"467 202 OFFCURVE",
"402 154 OFFCURVE",
"330 154 CURVE SMOOTH",
"275 154 OFFCURVE",
"229 182 OFFCURVE",
"229 226 CURVE SMOOTH",
"229 253 OFFCURVE",
"203 271 OFFCURVE",
"168 271 CURVE SMOOTH",
"120 271 OFFCURVE",
"79 239 OFFCURVE",
"79 175 CURVE SMOOTH",
"79 163 OFFCURVE",
"69 155 OFFCURVE",
"56 155 CURVE SMOOTH",
"40 155 OFFCURVE",
"32 162 OFFCURVE",
"32 175 CURVE SMOOTH",
"32 263 OFFCURVE",
"94 311 OFFCURVE",
"166 311 CURVE SMOOTH",
"225 311 OFFCURVE",
"275 278 OFFCURVE",
"275 226 CURVE SMOOTH",
"275 206 OFFCURVE",
"299 191 OFFCURVE",
"330 191 CURVE SMOOTH",
"378 191 OFFCURVE",
"420 222 OFFCURVE",
"420 293 CURVE SMOOTH",
"420 308 OFFCURVE",
"428 315 OFFCURVE",
"444 315 CURVE SMOOTH",
"459 315 OFFCURVE",
"467 308 OFFCURVE",
"467 293 CURVE SMOOTH"
);
}
);
width = 499;
}
);
unicode = 007E;
},
{
glyphname = dagger;
layers = (
{
layerId = "40D00E06-06D8-47EA-A1ED-37FDE38D6C1B";
name = Light;
paths = (
{
closed = 1;
nodes = (
"237 418 LINE",
"237 13 LINE SMOOTH",
"237 -2 OFFCURVE",
"226 -10 OFFCURVE",
"214 -10 CURVE SMOOTH",
"198 -10 OFFCURVE",
"190 -2 OFFCURVE",
"190 13 CURVE SMOOTH",
"190 418 LINE",
"42 418 LINE SMOOTH",
"26 418 OFFCURVE",
"18 426 OFFCURVE",
"18 441 CURVE SMOOTH",
"18 456 OFFCURVE",
"26 464 OFFCURVE",
"42 464 CURVE SMOOTH",
"190 464 LINE",
"190 634 LINE SMOOTH",
"190 650 OFFCURVE",
"207 656 OFFCURVE",
"214 656 CURVE SMOOTH",
"229 656 OFFCURVE",
"237 645 OFFCURVE",
"237 634 CURVE SMOOTH",
"237 464 LINE",
"377 464 LINE SMOOTH",
"393 464 OFFCURVE",
"401 453 OFFCURVE",
"401 441 CURVE SMOOTH",
"401 426 OFFCURVE",
"393 418 OFFCURVE",
"377 418 CURVE SMOOTH"
);
}
);
width = 422;
}
);
unicode = 2020;
},
{
glyphname = degree;
layers = (
{
layerId = "40D00E06-06D8-47EA-A1ED-37FDE38D6C1B";
name = Light;
paths = (
{
closed = 1;
nodes = (
"234 511 OFFCURVE",
"187 471 OFFCURVE",
"130 471 CURVE SMOOTH",
"73 471 OFFCURVE",
"28 511 OFFCURVE",
"28 562 CURVE SMOOTH",
"28 613 OFFCURVE",
"73 651 OFFCURVE",
"130 651 CURVE SMOOTH",
"187 651 OFFCURVE",
"234 613 OFFCURVE",
"234 562 CURVE SMOOTH"
);
},
{
closed = 1;
nodes = (
"187 589 OFFCURVE",
"161 610 OFFCURVE",
"130 610 CURVE SMOOTH",
"99 610 OFFCURVE",
"75 589 OFFCURVE",
"75 562 CURVE SMOOTH",
"75 535 OFFCURVE",
"99 514 OFFCURVE",
"130 514 CURVE SMOOTH",
"161 514 OFFCURVE",
"187 535 OFFCURVE",
"187 562 CURVE SMOOTH"
);
}
);
width = 259;
}
);
unicode = 00B0;
},
{
glyphname = cent;
layers = (
{
layerId = "40D00E06-06D8-47EA-A1ED-37FDE38D6C1B";
name = Light;
paths = (
{
closed = 1;
nodes = (
"402 249 LINE",
"377 200 OFFCURVE",
"320 151 OFFCURVE",
"257 126 CURVE",
"257 13 LINE SMOOTH",
"257 -2 OFFCURVE",
"246 -10 OFFCURVE",
"234 -10 CURVE SMOOTH",
"218 -10 OFFCURVE",
"210 -2 OFFCURVE",
"210 13 CURVE SMOOTH",
"210 115 LINE",
"200 113 OFFCURVE",
"190 112 OFFCURVE",
"179 112 CURVE SMOOTH",
"98 112 OFFCURVE",
"41 168 OFFCURVE",
"41 295 CURVE SMOOTH",
"41 388 OFFCURVE",
"122 525 OFFCURVE",
"210 564 CURVE",
"210 634 LINE SMOOTH",
"210 650 OFFCURVE",
"227 656 OFFCURVE",
"234 656 CURVE SMOOTH",
"249 656 OFFCURVE",
"257 645 OFFCURVE",
"257 634 CURVE SMOOTH",
"257 576 LINE",
"309 576 OFFCURVE",
"360 543 OFFCURVE",
"382 505 CURVE SMOOTH",
"393 486 OFFCURVE",
"398 475 OFFCURVE",
"398 472 CURVE SMOOTH",
"398 459 OFFCURVE",
"384 449 OFFCURVE",
"371 449 CURVE SMOOTH",
"362 449 OFFCURVE",
"354 457 OFFCURVE",
"345 474 CURVE SMOOTH",
"328 507 OFFCURVE",
"292 534 OFFCURVE",
"257 530 CURVE",
"257 176 LINE",
"298 199 OFFCURVE",
"339 234 OFFCURVE",
"353 261 CURVE SMOOTH",
"360 274 OFFCURVE",
"368 281 OFFCURVE",
"377 281 CURVE SMOOTH",
"392 281 OFFCURVE",
"404 272 OFFCURVE",
"404 257 CURVE"
);
},
{
closed = 1;
nodes = (
"210 509 LINE",
"143 468 OFFCURVE",
"88 368 OFFCURVE",
"88 295 CURVE SMOOTH",
"88 198 OFFCURVE",
"124 157 OFFCURVE",
"184 157 CURVE SMOOTH",
"192 157 OFFCURVE",
"201 158 OFFCURVE",
"210 160 CURVE"
);
}
);
width = 441;
}
);
unicode = 00A2;
},
{
glyphname = sterling;
layers = (
{
layerId = "40D00E06-06D8-47EA-A1ED-37FDE38D6C1B";
name = Light;
paths = (
{
closed = 1;
nodes = (
"539 66 OFFCURVE",
"473 13 OFFCURVE",
"382 13 CURVE SMOOTH",
"357 13 OFFCURVE",
"328 20 OFFCURVE",
"295 34 CURVE",
"261 47 OFFCURVE",
"234 54 OFFCURVE",
"213 54 CURVE SMOOTH",
"170 54 OFFCURVE",
"121 39 OFFCURVE",
"44 -4 CURVE",
"25 45 LINE",
"116 60 OFFCURVE",
"187 159 OFFCURVE",
"187 319 CURVE",
"87 308 LINE",
"70 308 OFFCURVE",
"62 316 OFFCURVE",
"62 332 CURVE SMOOTH",
"62 345 OFFCURVE",
"69 351 OFFCURVE",
"83 351 CURVE",
"187 364 LINE",
"187 521 OFFCURVE",
"253 655 OFFCURVE",
"349 655 CURVE SMOOTH",
"397 655 OFFCURVE",
"453 619 OFFCURVE",
"483 583 CURVE SMOOTH",
"498 565 OFFCURVE",
"505 553 OFFCURVE",
"505 548 CURVE SMOOTH",
"505 536 OFFCURVE",
"492 525 OFFCURVE",
"480 525 CURVE SMOOTH",
"473 525 OFFCURVE",
"464 533 OFFCURVE",
"451 548 CURVE SMOOTH",
"426 578 OFFCURVE",
"384 604 OFFCURVE",
"349 604 CURVE SMOOTH",
"280 604 OFFCURVE",
"234 502 OFFCURVE",
"234 370 CURVE",
"446 394 LINE",
"461 394 OFFCURVE",
"470 382 OFFCURVE",
"470 369 CURVE SMOOTH",
"470 356 OFFCURVE",
"463 349 OFFCURVE",
"450 349 CURVE",
"235 324 LINE",
"235 232 OFFCURVE",
"214 162 OFFCURVE",
"175 98 CURVE",
"187 100 OFFCURVE",
"198 101 OFFCURVE",
"208 101 CURVE SMOOTH",
"235 101 OFFCURVE",
"266 94 OFFCURVE",
"302 79 CURVE SMOOTH",
"338 64 OFFCURVE",
"365 57 OFFCURVE",
"382 57 CURVE SMOOTH",
"446 57 OFFCURVE",
"492 93 OFFCURVE",
"492 158 CURVE SMOOTH",
"492 173 OFFCURVE",
"503 181 OFFCURVE",
"516 181 CURVE SMOOTH",
"528 181 OFFCURVE",
"539 173 OFFCURVE",
"539 158 CURVE SMOOTH"
);
}
);
width = 575;
}
);
unicode = 00A3;
},
{
glyphname = section;
layers = (
{
layerId = "40D00E06-06D8-47EA-A1ED-37FDE38D6C1B";
name = Light;
paths = (
{
closed = 1;
nodes = (
"496 206 OFFCURVE",
"502 185 OFFCURVE",
"502 161 CURVE SMOOTH",
"502 81 OFFCURVE",
"436 -3 OFFCURVE",
"351 -3 CURVE",
"312 -7 OFFCURVE",
"259 -11 OFFCURVE",
"243 -11 CURVE SMOOTH",
"162 -11 OFFCURVE",
"96 17 OFFCURVE",
"61 55 CURVE SMOOTH",
"44 74 OFFCURVE",
"35 86 OFFCURVE",
"35 91 CURVE SMOOTH",
"35 103 OFFCURVE",
"48 114 OFFCURVE",
"60 114 CURVE SMOOTH",
"67 114 OFFCURVE",
"77 106 OFFCURVE",
"92 90 CURVE SMOOTH",
"121 58 OFFCURVE",
"177 34 OFFCURVE",
"242 34 CURVE SMOOTH",
"277 34 OFFCURVE",
"317 39 OFFCURVE",
"359 45 CURVE SMOOTH",
"401 51 OFFCURVE",
"452 104 OFFCURVE",
"452 155 CURVE SMOOTH",
"452 194 OFFCURVE",
"425 220 OFFCURVE",
"364 220 CURVE SMOOTH",
"338 220 OFFCURVE",
"309 215 OFFCURVE",
"277 206 CURVE SMOOTH",
"244 196 OFFCURVE",
"216 191 OFFCURVE",
"193 191 CURVE SMOOTH",
"110 191 OFFCURVE",
"61 248 OFFCURVE",
"61 317 CURVE SMOOTH",
"61 347 OFFCURVE",
"70 374 OFFCURVE",
"88 397 CURVE",
"69 412 OFFCURVE",
"59 431 OFFCURVE",
"59 454 CURVE SMOOTH",
"59 535 OFFCURVE",
"176 633 OFFCURVE",
"305 633 CURVE SMOOTH",
"360 633 OFFCURVE",
"409 620 OFFCURVE",
"462 587 CURVE",
"470 584 OFFCURVE",
"474 578 OFFCURVE",
"474 570 CURVE SMOOTH",
"474 557 OFFCURVE",
"464 545 OFFCURVE",
"451 545 CURVE SMOOTH",
"448 545 OFFCURVE",
"440 549 OFFCURVE",
"426 557 CURVE SMOOTH",
"398 573 OFFCURVE",
"348 586 OFFCURVE",
"299 586 CURVE SMOOTH",
"195 586 OFFCURVE",
"103 519 OFFCURVE",
"103 464 CURVE SMOOTH",
"103 431 OFFCURVE",
"133 409 OFFCURVE",
"201 409 CURVE SMOOTH",
"216 409 OFFCURVE",
"237 411 OFFCURVE",
"270 416 CURVE",
"293 421 OFFCURVE",
"318 424 OFFCURVE",
"345 424 CURVE SMOOTH",
"436 424 OFFCURVE",
"504 392 OFFCURVE",
"504 311 CURVE SMOOTH",
"504 286 OFFCURVE",
"497 256 OFFCURVE",
"484 223 CURVE"
);
},
{
closed = 1;
nodes = (
"452 275 OFFCURVE",
"454 293 OFFCURVE",
"454 308 CURVE SMOOTH",
"454 360 OFFCURVE",
"415 378 OFFCURVE",
"352 378 CURVE SMOOTH",
"331 378 OFFCURVE",
"301 375 OFFCURVE",
"278 372 CURVE",
"254 368 OFFCURVE",
"208 367 OFFCURVE",
"207 367 CURVE SMOOTH",
"171 367 OFFCURVE",
"159 369 OFFCURVE",
"131 376 CURVE",
"116 359 OFFCURVE",
"109 340 OFFCURVE",
"109 317 CURVE SMOOTH",
"109 274 OFFCURVE",
"142 239 OFFCURVE",
"199 239 CURVE SMOOTH",
"215 239 OFFCURVE",
"240 244 OFFCURVE",
"274 254 CURVE SMOOTH",
"308 263 OFFCURVE",
"342 268 OFFCURVE",
"377 268 CURVE SMOOTH",
"405 268 OFFCURVE",
"424 264 OFFCURVE",
"445 256 CURVE"
);
}
);
width = 569;
}
);
unicode = 00A7;
},
{
glyphname = bullet;
layers = (
{
layerId = "40D00E06-06D8-47EA-A1ED-37FDE38D6C1B";
name = Light;
paths = (
{
closed = 1;
nodes = (
"361 415 OFFCURVE",
"378 376 OFFCURVE",
"378 336 CURVE SMOOTH",
"378 229 OFFCURVE",
"278 165 OFFCURVE",
"197 165 CURVE SMOOTH",
"130 165 OFFCURVE",
"51 208 OFFCURVE",
"51 303 CURVE SMOOTH",
"51 400 OFFCURVE",
"120 445 OFFCURVE",
"163 461 CURVE SMOOTH",
"184 469 OFFCURVE",
"206 473 OFFCURVE",
"229 473 CURVE SMOOTH",
"266 473 OFFCURVE",
"300 462 OFFCURVE",
"329 440 CURVE SMOOTH"
);
}
);
width = 431;
}
);
unicode = 2022;
},
{
glyphname = paragraph;
layers = (
{
layerId = "40D00E06-06D8-47EA-A1ED-37FDE38D6C1B";
name = Light;
paths = (
{
closed = 1;
nodes = (
"466 13 LINE SMOOTH",
"466 -2 OFFCURVE",
"455 -10 OFFCURVE",
"443 -10 CURVE SMOOTH",
"427 -10 OFFCURVE",
"419 -2 OFFCURVE",
"419 13 CURVE SMOOTH",
"419 605 LINE",
"404 602 OFFCURVE",
"381 598 OFFCURVE",
"350 589 CURVE",
"350 13 LINE SMOOTH",
"350 -2 OFFCURVE",
"339 -10 OFFCURVE",
"327 -10 CURVE SMOOTH",
"311 -10 OFFCURVE",
"303 -2 OFFCURVE",
"303 13 CURVE SMOOTH",
"303 339 LINE",
"272 333 OFFCURVE",
"242 330 OFFCURVE",
"215 330 CURVE SMOOTH",
"107 330 OFFCURVE",
"31 373 OFFCURVE",
"31 433 CURVE SMOOTH",
"31 533 OFFCURVE",
"179 598 OFFCURVE",
"320 630 CURVE SMOOTH",
"390 646 OFFCURVE",
"432 654 OFFCURVE",
"446 654 CURVE",
"466 636 LINE"
);
},
{
closed = 1;
nodes = (
"303 576 LINE",
"218 553 OFFCURVE",
"159 530 OFFCURVE",
"127 507 CURVE SMOOTH",
"94 484 OFFCURVE",
"78 459 OFFCURVE",
"78 433 CURVE",
"77 417 OFFCURVE",
"89 403 OFFCURVE",
"115 392 CURVE SMOOTH",
"140 381 OFFCURVE",
"174 375 OFFCURVE",
"215 375 CURVE SMOOTH",
"242 375 OFFCURVE",
"272 378 OFFCURVE",
"303 384 CURVE"
);
}
);
width = 508;
}
);
unicode = 00B6;
},
{
glyphname = registered;
layers = (
{
layerId = "40D00E06-06D8-47EA-A1ED-37FDE38D6C1B";
name = Light;
paths = (
{
closed = 1;
nodes = (
"699 162 OFFCURVE",
"556 13 OFFCURVE",
"348 13 CURVE SMOOTH",
"168 13 OFFCURVE",
"68 139 OFFCURVE",
"68 299 CURVE SMOOTH",
"68 491 OFFCURVE",
"208 656 OFFCURVE",
"400 656 CURVE SMOOTH",
"573 656 OFFCURVE",
"699 545 OFFCURVE",
"699 353 CURVE SMOOTH"
);
},
{
closed = 1;
nodes = (
"653 521 OFFCURVE",
"551 611 OFFCURVE",
"398 611 CURVE SMOOTH",
"238 611 OFFCURVE",
"115 466 OFFCURVE",
"115 299 CURVE SMOOTH",
"115 160 OFFCURVE",
"195 57 OFFCURVE",
"344 57 CURVE SMOOTH",
"529 57 OFFCURVE",
"653 185 OFFCURVE",
"653 353 CURVE SMOOTH"
);
},
{
closed = 1;
nodes = (
"487 176 OFFCURVE",
"463 161 OFFCURVE",
"432 161 CURVE SMOOTH",
"397 161 OFFCURVE",
"352 186 OFFCURVE",
"312 221 CURVE",
"312 145 LINE SMOOTH",
"312 130 OFFCURVE",
"301 122 OFFCURVE",
"289 122 CURVE SMOOTH",
"273 122 OFFCURVE",
"265 130 OFFCURVE",
"265 145 CURVE SMOOTH",
"265 482 LINE SMOOTH",
"265 498 OFFCURVE",
"282 504 OFFCURVE",
"289 504 CURVE SMOOTH",
"304 504 OFFCURVE",
"312 493 OFFCURVE",
"312 482 CURVE SMOOTH",
"312 469 LINE",
"361 490 OFFCURVE",
"407 507 OFFCURVE",
"447 507 CURVE SMOOTH",
"475 507 OFFCURVE",
"488 502 OFFCURVE",
"503 486 CURVE",
"508 477 OFFCURVE",
"510 466 OFFCURVE",
"510 455 CURVE SMOOTH",
"510 388 OFFCURVE",
"422 312 OFFCURVE",
"330 268 CURVE",
"367 232 OFFCURVE",
"404 205 OFFCURVE",
"429 205 CURVE SMOOTH",
"444 205 OFFCURVE",
"455 214 OFFCURVE",
"460 233 CURVE",
"464 242 OFFCURVE",
"471 246 OFFCURVE",
"480 246 CURVE SMOOTH",
"497 246 OFFCURVE",
"506 239 OFFCURVE",
"506 224 CURVE SMOOTH",
"506 222 OFFCURVE",
"505 219 OFFCURVE",
"504 215 CURVE"
);
},
{
closed = 1;
nodes = (
"461 468 OFFCURVE",
"456 471 OFFCURVE",
"448 471 CURVE SMOOTH",
"416 471 OFFCURVE",
"344 432 OFFCURVE",
"312 416 CURVE",
"312 309 LINE",
"389 346 OFFCURVE",
"469 408 OFFCURVE",
"469 447 CURVE SMOOTH",
"469 452 OFFCURVE",
"467 458 OFFCURVE",
"463 463 CURVE"
);
}
);
width = 738;
}
);
unicode = 00AE;
},
{
glyphname = copyright;
layers = (
{
layerId = "40D00E06-06D8-47EA-A1ED-37FDE38D6C1B";
name = Light;
paths = (
{
closed = 1;
nodes = (
"652 153 OFFCURVE",
"509 3 OFFCURVE",
"301 3 CURVE SMOOTH",
"121 3 OFFCURVE",
"21 129 OFFCURVE",
"21 289 CURVE SMOOTH",
"21 478 OFFCURVE",
"162 644 OFFCURVE",
"353 644 CURVE SMOOTH",
"528 644 OFFCURVE",
"652 535 OFFCURVE",
"652 342 CURVE SMOOTH"
);
},
{
closed = 1;
nodes = (
"606 510 OFFCURVE",
"504 600 OFFCURVE",
"351 600 CURVE SMOOTH",
"190 600 OFFCURVE",
"68 456 OFFCURVE",
"68 289 CURVE SMOOTH",
"68 150 OFFCURVE",
"149 48 OFFCURVE",
"297 48 CURVE SMOOTH",
"481 48 OFFCURVE",
"606 175 OFFCURVE",
"606 342 CURVE SMOOTH"
);
},
{
closed = 1;
nodes = (
"447 200 OFFCURVE",
"365 153 OFFCURVE",
"289 153 CURVE SMOOTH",
"188 153 OFFCURVE",
"145 226 OFFCURVE",
"145 299 CURVE SMOOTH",
"145 400 OFFCURVE",
"219 494 OFFCURVE",
"348 494 CURVE SMOOTH",
"379 494 OFFCURVE",
"406 491 OFFCURVE",
"429 484 CURVE SMOOTH",
"452 477 OFFCURVE",
"465 472 OFFCURVE",
"468 469 CURVE",
"471 465 OFFCURVE",
"472 460 OFFCURVE",
"472 455 CURVE SMOOTH",
"472 440 OFFCURVE",
"458 428 OFFCURVE",
"441 433 CURVE SMOOTH",
"410 443 OFFCURVE",
"380 448 OFFCURVE",
"350 448 CURVE SMOOTH",
"247 448 OFFCURVE",
"191 376 OFFCURVE",
"191 299 CURVE SMOOTH",
"191 248 OFFCURVE",
"218 198 OFFCURVE",
"290 198 CURVE SMOOTH",
"350 198 OFFCURVE",
"419 244 OFFCURVE",
"451 289 CURVE SMOOTH",
"467 312 OFFCURVE",
"479 323 OFFCURVE",
"486 323 CURVE SMOOTH",
"498 323 OFFCURVE",
"511 312 OFFCURVE",
"511 299 CURVE SMOOTH",
"511 296 OFFCURVE",
"510 292 OFFCURVE",
"507 287 CURVE"
);
}
);
width = 686;
}
);
unicode = 00A9;
},
{
glyphname = trademark;
layers = (
{
layerId = "40D00E06-06D8-47EA-A1ED-37FDE38D6C1B";
name = Light;
paths = (
{
closed = 1;
nodes = (
"697 335 LINE SMOOTH",
"697 320 OFFCURVE",
"686 312 OFFCURVE",
"674 312 CURVE SMOOTH",
"658 312 OFFCURVE",
"650 320 OFFCURVE",
"650 335 CURVE SMOOTH",
"650 535 LINE",
"543 327 LINE",
"506 327 LINE",
"390 537 LINE",
"390 335 LINE SMOOTH",
"390 320 OFFCURVE",
"379 312 OFFCURVE",
"367 312 CURVE SMOOTH",
"351 312 OFFCURVE",
"343 320 OFFCURVE",
"343 335 CURVE SMOOTH",
"343 638 LINE",
"384 646 LINE",
"523 392 LINE",
"656 648 LINE",
"697 640 LINE"
);
},
{
closed = 1;
nodes = (
"193 589 LINE",
"193 335 LINE SMOOTH",
"193 320 OFFCURVE",
"182 312 OFFCURVE",
"170 312 CURVE SMOOTH",
"154 312 OFFCURVE",
"146 320 OFFCURVE",
"146 335 CURVE SMOOTH",
"146 581 LINE",
"49 568 LINE",
"34 568 OFFCURVE",
"24 581 OFFCURVE",
"24 593 CURVE SMOOTH",
"24 605 OFFCURVE",
"30 611 OFFCURVE",
"43 611 CURVE",
"161 628 LINE",
"168 628 LINE",
"295 646 LINE",
"310 646 OFFCURVE",
"320 633 OFFCURVE",
"320 621 CURVE SMOOTH",
"320 609 OFFCURVE",
"314 603 OFFCURVE",
"301 603 CURVE"
);
}
);
width = 765;
}
);
unicode = 2122;
},
{
glyphname = acute;
layers = (
{
layerId = "40D00E06-06D8-47EA-A1ED-37FDE38D6C1B";
name = Light;
paths = (
{
closed = 1;
nodes = (
"66 516 LINE",
"61 511 OFFCURVE",
"56 509 OFFCURVE",
"49 509 CURVE SMOOTH",
"37 509 OFFCURVE",
"26 518 OFFCURVE",
"26 529 CURVE SMOOTH",
"26 534 OFFCURVE",
"28 539 OFFCURVE",
"33 543 CURVE SMOOTH",
"158 649 LINE",
"162 652 OFFCURVE",
"167 654 OFFCURVE",
"173 654 CURVE SMOOTH",
"186 654 OFFCURVE",
"198 644 OFFCURVE",
"198 633 CURVE SMOOTH",
"198 628 OFFCURVE",
"196 624 OFFCURVE",
"191 620 CURVE SMOOTH"
);
}
);
width = 235;
}
);
unicode = 00B4;
},
{
glyphname = dieresis;
layers = (
{
layerId = "40D00E06-06D8-47EA-A1ED-37FDE38D6C1B";
name = Light;
paths = (
{
closed = 1;
nodes = (
"262 569 OFFCURVE",
"251 562 OFFCURVE",
"230 562 CURVE SMOOTH",
"209 562 OFFCURVE",
"199 569 OFFCURVE",
"199 582 CURVE SMOOTH",
"199 595 OFFCURVE",
"209 601 OFFCURVE",
"230 601 CURVE SMOOTH",
"251 601 OFFCURVE",
"262 595 OFFCURVE",
"262 582 CURVE SMOOTH"
);
},
{
closed = 1;
nodes = (
"104 569 OFFCURVE",
"93 562 OFFCURVE",
"72 562 CURVE SMOOTH",
"51 562 OFFCURVE",
"41 569 OFFCURVE",
"41 582 CURVE SMOOTH",
"41 595 OFFCURVE",
"51 601 OFFCURVE",
"72 601 CURVE SMOOTH",
"93 601 OFFCURVE",
"104 595 OFFCURVE",
"104 582 CURVE SMOOTH"
);
},
{
closed = 1;
nodes = (
"243 585 LINE",
"229 585 LINE",
"225 584 LINE",
"231 579 LINE"
);
},
{
closed = 1;
nodes = (
"85 585 LINE",
"71 585 LINE",
"67 584 LINE",
"73 579 LINE"
);
}
);
width = 302;
}
);
unicode = 00A8;
},
{
glyphname = notequal;
layers = (
{
layerId = "40D00E06-06D8-47EA-A1ED-37FDE38D6C1B";
name = Light;
paths = (
{
closed = 1;
nodes = (
"218 122 LINE",
"158 25 LINE SMOOTH",
"154 18 OFFCURVE",
"148 15 OFFCURVE",
"141 15 CURVE SMOOTH",
"128 15 OFFCURVE",
"115 26 OFFCURVE",
"115 39 CURVE SMOOTH",
"115 42 OFFCURVE",
"116 46 OFFCURVE",
"118 49 CURVE SMOOTH",
"165 122 LINE",
"53 122 LINE SMOOTH",
"37 122 OFFCURVE",
"29 130 OFFCURVE",
"29 145 CURVE SMOOTH",
"29 160 OFFCURVE",
"37 168 OFFCURVE",
"53 168 CURVE SMOOTH",
"192 168 LINE",
"278 307 LINE",
"47 307 LINE SMOOTH",
"32 307 OFFCURVE",
"22 318 OFFCURVE",
"22 329 CURVE SMOOTH",
"22 344 OFFCURVE",
"30 351 OFFCURVE",
"47 351 CURVE SMOOTH",
"306 351 LINE",
"387 484 LINE SMOOTH",
"391 491 OFFCURVE",
"397 495 OFFCURVE",
"404 495 CURVE SMOOTH",
"416 495 OFFCURVE",
"430 483 OFFCURVE",
"430 471 CURVE SMOOTH",
"430 466 OFFCURVE",
"429 462 OFFCURVE",
"426 459 CURVE",
"360 351 LINE",
"443 351 LINE SMOOTH",
"456 351 OFFCURVE",
"468 346 OFFCURVE",
"468 329 CURVE SMOOTH",
"468 314 OFFCURVE",
"460 307 OFFCURVE",
"443 307 CURVE SMOOTH",
"332 307 LINE",
"246 168 LINE",
"449 168 LINE SMOOTH",
"465 168 OFFCURVE",
"473 157 OFFCURVE",
"473 145 CURVE SMOOTH",
"473 130 OFFCURVE",
"465 122 OFFCURVE",
"449 122 CURVE SMOOTH"
);
}
);
width = 541;
}
);
unicode = 2260;
},
{
glyphname = AE;
layers = (
{
layerId = "40D00E06-06D8-47EA-A1ED-37FDE38D6C1B";
name = Light;
paths = (
{
closed = 1;
nodes = (
"425 568 LINE",
"428 349 LINE",
"678 391 LINE",
"693 391 OFFCURVE",
"702 379 OFFCURVE",
"702 366 CURVE SMOOTH",
"702 353 OFFCURVE",
"696 347 OFFCURVE",
"683 347 CURVE",
"429 303 LINE",
"431 42 LINE",
"714 95 LINE",
"729 95 OFFCURVE",
"738 84 OFFCURVE",
"738 69 CURVE SMOOTH",
"738 56 OFFCURVE",
"732 50 OFFCURVE",
"719 50 CURVE",
"406 -11 LINE",
"386 6 LINE",
"381 297 LINE",
"225 270 LINE",
"73 2 LINE",
"70 -4 OFFCURVE",
"64 -7 OFFCURVE",
"55 -7 CURVE SMOOTH",
"40 -7 OFFCURVE",
"28 2 OFFCURVE",
"28 17 CURVE SMOOTH",
"28 19 OFFCURVE",
"29 22 OFFCURVE",
"30 26 CURVE",
"183 291 LINE",
"183 300 OFFCURVE",
"186 307 OFFCURVE",
"192 310 CURVE",
"387 651 LINE",
"426 640 LINE",
"426 612 LINE",
"716 649 LINE",
"731 649 OFFCURVE",
"741 636 OFFCURVE",
"741 624 CURVE SMOOTH",
"741 611 OFFCURVE",
"735 605 OFFCURVE",
"722 605 CURVE"
);
},
{
closed = 1;
nodes = (
"389 562 LINE",
"253 321 LINE",
"381 341 LINE",
"379 562 LINE"
);
}
);
width = 776;
}
);
unicode = 00C6;
},
{
glyphname = Oslash;
layers = (
{
layerId = "40D00E06-06D8-47EA-A1ED-37FDE38D6C1B";
name = Light;
paths = (
{
closed = 1;
nodes = (
"586 535 LINE",
"610 484 OFFCURVE",
"622 428 OFFCURVE",
"622 367 CURVE SMOOTH",
"622 178 OFFCURVE",
"499 6 OFFCURVE",
"316 6 CURVE SMOOTH",
"245 6 OFFCURVE",
"192 38 OFFCURVE",
"157 93 CURVE",
"75 9 LINE SMOOTH",
"70 4 OFFCURVE",
"64 1 OFFCURVE",
"59 1 CURVE SMOOTH",
"47 1 OFFCURVE",
"35 13 OFFCURVE",
"35 25 CURVE SMOOTH",
"35 30 OFFCURVE",
"37 34 OFFCURVE",
"41 38 CURVE SMOOTH",
"135 137 LINE",
"122 173 OFFCURVE",
"113 231 OFFCURVE",
"113 272 CURVE SMOOTH",
"113 455 OFFCURVE",
"277 644 OFFCURVE",
"424 644 CURVE SMOOTH",
"483 644 OFFCURVE",
"525 620 OFFCURVE",
"560 576 CURVE",
"624 643 LINE SMOOTH",
"629 648 OFFCURVE",
"634 650 OFFCURVE",
"641 650 CURVE SMOOTH",
"654 650 OFFCURVE",
"666 638 OFFCURVE",
"666 626 CURVE SMOOTH",
"666 621 OFFCURVE",
"664 617 OFFCURVE",
"660 613 CURVE SMOOTH"
);
},
{
closed = 1;
nodes = (
"527 542 LINE",
"502 579 OFFCURVE",
"468 599 OFFCURVE",
"424 599 CURVE SMOOTH",
"308 599 OFFCURVE",
"160 427 OFFCURVE",
"160 272 CURVE SMOOTH",
"160 231 OFFCURVE",
"163 207 OFFCURVE",
"172 174 CURVE"
);
},
{
closed = 1;
nodes = (
"575 414 OFFCURVE",
"566 458 OFFCURVE",
"549 499 CURVE",
"191 128 LINE",
"215 81 OFFCURVE",
"259 51 OFFCURVE",
"316 51 CURVE SMOOTH",
"468 51 OFFCURVE",
"575 200 OFFCURVE",
"575 367 CURVE SMOOTH"
);
}
);
width = 714;
}
);
unicode = 00D8;
},
{
glyphname = infinity;
layers = (
{
layerId = "40D00E06-06D8-47EA-A1ED-37FDE38D6C1B";
name = Light;
paths = (
{
closed = 1;
nodes = (
"591 223 OFFCURVE",
"536 181 OFFCURVE",
"465 181 CURVE SMOOTH",
"404 181 OFFCURVE",
"362 211 OFFCURVE",
"305 268 CURVE",
"240 199 OFFCURVE",
"197 181 OFFCURVE",
"149 181 CURVE SMOOTH",
"80 181 OFFCURVE",
"24 230 OFFCURVE",
"24 293 CURVE SMOOTH",
"24 354 OFFCURVE",
"79 408 OFFCURVE",
"144 408 CURVE SMOOTH",
"215 408 OFFCURVE",
"253 379 OFFCURVE",
"305 330 CURVE",
"349 374 OFFCURVE",
"393 407 OFFCURVE",
"453 407 CURVE SMOOTH",
"525 407 OFFCURVE",
"591 358 OFFCURVE",
"591 298 CURVE SMOOTH"
);
},
{
closed = 1;
nodes = (
"233 334 OFFCURVE",
"189 365 OFFCURVE",
"144 365 CURVE SMOOTH",
"105 365 OFFCURVE",
"71 333 OFFCURVE",
"71 293 CURVE SMOOTH",
"71 256 OFFCURVE",
"106 223 OFFCURVE",
"149 223 CURVE SMOOTH",
"186 223 OFFCURVE",
"218 236 OFFCURVE",
"273 299 CURVE"
);
},
{
closed = 1;
nodes = (
"544 333 OFFCURVE",
"500 364 OFFCURVE",
"453 364 CURVE SMOOTH",
"414 364 OFFCURVE",
"386 341 OFFCURVE",
"337 298 CURVE",
"400 242 OFFCURVE",
"421 223 OFFCURVE",
"465 223 CURVE SMOOTH",
"514 223 OFFCURVE",
"544 245 OFFCURVE",
"544 298 CURVE SMOOTH"
);
}
);
width = 595;
}
);
unicode = 221E;
},
{
glyphname = plusminus;
layers = (
{
layerId = "40D00E06-06D8-47EA-A1ED-37FDE38D6C1B";
name = Light;
paths = (
{
closed = 1;
nodes = (
"456 232 LINE",
"273 232 LINE",
"273 94 LINE",
"226 94 LINE",
"226 232 LINE",
"38 232 LINE",
"38 276 LINE",
"226 276 LINE",
"226 412 LINE",
"273 412 LINE",
"273 276 LINE",
"456 276 LINE"
);
},
{
closed = 1;
nodes = (
"456 13 LINE",
"38 13 LINE",
"38 57 LINE",
"456 57 LINE"
);
}
);
width = 483;
}
);
unicode = 00B1;
},
{
glyphname = lessequal;
layers = (
{
layerId = "40D00E06-06D8-47EA-A1ED-37FDE38D6C1B";
name = Light;
paths = (
{
closed = 1;
nodes = (
"111 349 LINE",
"491 179 LINE",
"500 176 OFFCURVE",
"504 169 OFFCURVE",
"504 159 CURVE SMOOTH",
"504 147 OFFCURVE",
"492 135 OFFCURVE",
"479 135 CURVE SMOOTH",
"476 135 OFFCURVE",
"473 135 OFFCURVE",
"471 136 CURVE",
"43 331 LINE",
"40 366 LINE",
"471 580 LINE",
"475 581 OFFCURVE",
"478 582 OFFCURVE",
"480 582 CURVE SMOOTH",
"492 582 OFFCURVE",
"505 569 OFFCURVE",
"505 557 CURVE SMOOTH",
"505 549 OFFCURVE",
"501 543 OFFCURVE",
"492 539 CURVE"
);
},
{
closed = 1;
nodes = (
"57 29 LINE SMOOTH",
"42 29 OFFCURVE",
"32 40 OFFCURVE",
"32 51 CURVE SMOOTH",
"32 66 OFFCURVE",
"40 74 OFFCURVE",
"57 74 CURVE SMOOTH",
"484 74 LINE SMOOTH",
"500 74 OFFCURVE",
"509 64 OFFCURVE",
"509 51 CURVE SMOOTH",
"509 36 OFFCURVE",
"501 29 OFFCURVE",
"484 29 CURVE SMOOTH"
);
}
);
width = 560;
}
);
unicode = 2264;
},
{
glyphname = greaterequal;
layers = (
{
layerId = "40D00E06-06D8-47EA-A1ED-37FDE38D6C1B";
name = Light;
paths = (
{
closed = 1;
nodes = (
"475 365 LINE",
"472 331 LINE",
"52 136 LINE",
"35 131 OFFCURVE",
"19 144 OFFCURVE",
"19 160 CURVE SMOOTH",
"19 169 OFFCURVE",
"24 175 OFFCURVE",
"33 179 CURVE SMOOTH",
"402 350 LINE",
"37 535 LINE",
"30 539 OFFCURVE",
"26 545 OFFCURVE",
"26 552 CURVE SMOOTH",
"26 565 OFFCURVE",
"37 578 OFFCURVE",
"49 578 CURVE SMOOTH",
"52 578 OFFCURVE",
"56 577 OFFCURVE",
"59 575 CURVE"
);
},
{
closed = 1;
nodes = (
"37 31 LINE SMOOTH",
"21 31 OFFCURVE",
"13 39 OFFCURVE",
"13 54 CURVE SMOOTH",
"13 69 OFFCURVE",
"21 77 OFFCURVE",
"37 77 CURVE SMOOTH",
"472 77 LINE SMOOTH",
"488 77 OFFCURVE",
"496 66 OFFCURVE",
"496 54 CURVE SMOOTH",
"496 39 OFFCURVE",
"488 31 OFFCURVE",
"472 31 CURVE SMOOTH"
);
}
);
width = 532;
}
);
unicode = 2265;
},
{
glyphname = yen;
layers = (
{
layerId = "40D00E06-06D8-47EA-A1ED-37FDE38D6C1B";
name = Light;
paths = (
{
closed = 1;
nodes = (
"342 322 LINE",
"342 278 LINE",
"475 278 LINE SMOOTH",
"488 278 OFFCURVE",
"497 267 OFFCURVE",
"497 255 CURVE SMOOTH",
"497 242 OFFCURVE",
"490 232 OFFCURVE",
"475 232 CURVE SMOOTH",
"342 232 LINE",
"342 166 LINE",
"475 166 LINE SMOOTH",
"494 166 OFFCURVE",
"498 154 OFFCURVE",
"498 143 CURVE SMOOTH",
"498 128 OFFCURVE",
"490 121 OFFCURVE",
"475 121 CURVE SMOOTH",
"342 121 LINE",
"342 24 LINE SMOOTH",
"342 8 OFFCURVE",
"331 0 OFFCURVE",
"319 0 CURVE SMOOTH",
"303 0 OFFCURVE",
"295 8 OFFCURVE",
"295 24 CURVE SMOOTH",
"295 121 LINE",
"156 121 LINE SMOOTH",
"141 121 OFFCURVE",
"131 132 OFFCURVE",
"131 143 CURVE SMOOTH",
"131 158 OFFCURVE",
"139 166 OFFCURVE",
"156 166 CURVE SMOOTH",
"295 166 LINE",
"295 232 LINE",
"156 232 LINE SMOOTH",
"140 232 OFFCURVE",
"132 240 OFFCURVE",
"132 255 CURVE SMOOTH",
"132 270 OFFCURVE",
"140 278 OFFCURVE",
"156 278 CURVE SMOOTH",
"295 278 LINE",
"295 319 LINE",
"24 617 LINE",
"21 620 OFFCURVE",
"19 625 OFFCURVE",
"19 630 CURVE SMOOTH",
"19 642 OFFCURVE",
"33 654 OFFCURVE",
"45 654 CURVE SMOOTH",
"51 654 OFFCURVE",
"56 651 OFFCURVE",
"61 646 CURVE",
"317 365 LINE",
"570 646 LINE",
"575 651 OFFCURVE",
"580 654 OFFCURVE",
"586 654 CURVE SMOOTH",
"598 654 OFFCURVE",
"611 643 OFFCURVE",
"611 631 CURVE SMOOTH",
"611 626 OFFCURVE",
"609 621 OFFCURVE",
"605 617 CURVE"
);
}
);
width = 651;
}
);
unicode = 00A5;
},
{
glyphname = integral;
layers = (
{
layerId = "40D00E06-06D8-47EA-A1ED-37FDE38D6C1B";
name = Light;
paths = (
{
closed = 1;
nodes = (
"337 534 OFFCURVE",
"329 526 OFFCURVE",
"314 526 CURVE SMOOTH",
"301 526 OFFCURVE",
"291 533 OFFCURVE",
"291 549 CURVE",
"290 568 OFFCURVE",
"272 587 OFFCURVE",
"256 587 CURVE SMOOTH",
"240 587 OFFCURVE",
"225 572 OFFCURVE",
"217 536 CURVE",
"194 538 LINE",
"194 552 LINE",
"219 551 LINE",
"218 537 OFFCURVE",
"214 479 OFFCURVE",
"209 376 CURVE SMOOTH",
"197 170 OFFCURVE",
"185 -25 OFFCURVE",
"173 -86 CURVE",
"150 -83 LINE",
"150 -70 LINE",
"175 -70 LINE",
"170 -127 OFFCURVE",
"138 -156 OFFCURVE",
"98 -156 CURVE SMOOTH",
"58 -156 OFFCURVE",
"22 -126 OFFCURVE",
"22 -83 CURVE SMOOTH",
"22 -68 OFFCURVE",
"33 -60 OFFCURVE",
"46 -60 CURVE SMOOTH",
"58 -60 OFFCURVE",
"69 -68 OFFCURVE",
"69 -83 CURVE SMOOTH",
"69 -98 OFFCURVE",
"82 -110 OFFCURVE",
"97 -110 CURVE SMOOTH",
"112 -110 OFFCURVE",
"126 -98 OFFCURVE",
"127 -73 CURVE",
"138 -24 OFFCURVE",
"152 194 OFFCURVE",
"162 384 CURVE SMOOTH",
"167 479 OFFCURVE",
"171 538 OFFCURVE",
"175 561 CURVE SMOOTH",
"182 607 OFFCURVE",
"212 638 OFFCURVE",
"249 638 CURVE SMOOTH",
"293 638 OFFCURVE",
"337 594 OFFCURVE",
"337 549 CURVE SMOOTH"
);
}
);
width = 365;
}
);
unicode = 222B;
},
{
glyphname = ordfeminine;
layers = (
{
layerId = "40D00E06-06D8-47EA-A1ED-37FDE38D6C1B";
name = Light;
paths = (
{
closed = 1;
nodes = (
"352 599 LINE SMOOTH",
"355 586 OFFCURVE",
"356 555 OFFCURVE",
"356 522 CURVE SMOOTH",
"356 450 OFFCURVE",
"352 376 OFFCURVE",
"348 319 CURVE",
"348 307 OFFCURVE",
"337 300 OFFCURVE",
"326 300 CURVE SMOOTH",
"310 300 OFFCURVE",
"302 308 OFFCURVE",
"302 323 CURVE",
"303 330 OFFCURVE",
"306 350 OFFCURVE",
"306 374 CURVE",
"261 330 OFFCURVE",
"189 299 OFFCURVE",
"126 299 CURVE SMOOTH",
"82 299 OFFCURVE",
"50 315 OFFCURVE",
"33 348 CURVE",
"29 360 OFFCURVE",
"28 376 OFFCURVE",
"28 385 CURVE SMOOTH",
"28 474 OFFCURVE",
"140 523 OFFCURVE",
"249 523 CURVE SMOOTH",
"272 523 OFFCURVE",
"292 520 OFFCURVE",
"308 515 CURVE",
"308 524 OFFCURVE",
"308 533 OFFCURVE",
"308 542 CURVE SMOOTH",
"308 551 OFFCURVE",
"308 559 OFFCURVE",
"309 567 CURVE",
"309 574 OFFCURVE",
"308 581 OFFCURVE",
"307 589 CURVE",
"296 616 OFFCURVE",
"275 628 OFFCURVE",
"246 628 CURVE SMOOTH",
"193 628 OFFCURVE",
"113 578 OFFCURVE",
"117 558 CURVE",
"117 539 OFFCURVE",
"105 535 OFFCURVE",
"94 535 CURVE SMOOTH",
"82 535 OFFCURVE",
"71 543 OFFCURVE",
"71 558 CURVE",
"75 601 OFFCURVE",
"170 668 OFFCURVE",
"247 668 CURVE SMOOTH",
"291 668 OFFCURVE",
"328 650 OFFCURVE",
"351 603 CURVE"
);
},
{
closed = 1;
nodes = (
"292 479 OFFCURVE",
"276 483 OFFCURVE",
"249 483 CURVE SMOOTH",
"169 483 OFFCURVE",
"72 446 OFFCURVE",
"72 389 CURVE SMOOTH",
"72 381 OFFCURVE",
"74 372 OFFCURVE",
"78 362 CURVE",
"82 343 OFFCURVE",
"97 333 OFFCURVE",
"124 333 CURVE SMOOTH",
"192 333 OFFCURVE",
"308 405 OFFCURVE",
"308 450 CURVE SMOOTH",
"308 459 OFFCURVE",
"304 467 OFFCURVE",
"297 472 CURVE"
);
}
);
width = 403;
}
);
unicode = 00AA;
},
{
glyphname = ordmasculine;
layers = (
{
layerId = "40D00E06-06D8-47EA-A1ED-37FDE38D6C1B";
name = Light;
paths = (
{
closed = 1;
nodes = (
"340 594 OFFCURVE",
"358 555 OFFCURVE",
"358 512 CURVE SMOOTH",
"358 409 OFFCURVE",
"244 308 OFFCURVE",
"141 308 CURVE SMOOTH",
"103 308 OFFCURVE",
"73 322 OFFCURVE",
"50 349 CURVE",
"29 380 OFFCURVE",
"17 418 OFFCURVE",
"17 454 CURVE SMOOTH",
"17 561 OFFCURVE",
"110 663 OFFCURVE",
"207 663 CURVE SMOOTH",
"241 663 OFFCURVE",
"273 651 OFFCURVE",
"303 627 CURVE"
);
},
{
closed = 1;
nodes = (
"253 611 OFFCURVE",
"230 620 OFFCURVE",
"205 620 CURVE SMOOTH",
"134 620 OFFCURVE",
"62 537 OFFCURVE",
"62 454 CURVE SMOOTH",
"62 425 OFFCURVE",
"71 398 OFFCURVE",
"88 375 CURVE",
"101 355 OFFCURVE",
"121 345 OFFCURVE",
"147 345 CURVE SMOOTH",
"220 345 OFFCURVE",
"316 431 OFFCURVE",
"316 511 CURVE SMOOTH",
"316 542 OFFCURVE",
"304 569 OFFCURVE",
"273 593 CURVE"
);
}
);
width = 389;
}
);
unicode = 00BA;
},
{
glyphname = ae;
layers = (
{
layerId = "40D00E06-06D8-47EA-A1ED-37FDE38D6C1B";
name = Light;
paths = (
{
closed = 1;
nodes = (
"711 317 LINE",
"406 241 LINE",
"404 255 LINE",
"415 255 LINE",
"414 221 LINE",
"416 179 LINE",
"416 104 LINE SMOOTH",
"416 88 OFFCURVE",
"405 80 OFFCURVE",
"383 80 CURVE",
"380 97 LINE",
"380 101 OFFCURVE",
"379 106 OFFCURVE",
"378 112 CURVE",
"376 118 OFFCURVE",
"375 121 OFFCURVE",
"375 122 CURVE SMOOTH",
"375 125 OFFCURVE",
"374 132 OFFCURVE",
"372 142 CURVE",
"369 151 OFFCURVE",
"368 159 OFFCURVE",
"368 164 CURVE SMOOTH",
"368 222 LINE",
"384 211 OFFCURVE",
"395 202 OFFCURVE",
"401 195 CURVE SMOOTH",
"407 188 OFFCURVE",
"410 180 OFFCURVE",
"410 173 CURVE SMOOTH",
"410 156 OFFCURVE",
"407 139 OFFCURVE",
"400 120 CURVE",
"399 119 OFFCURVE",
"397 118 OFFCURVE",
"396 115 CURVE",
"394 112 OFFCURVE",
"393 108 OFFCURVE",
"393 102 CURVE",
"368 102 LINE",
"368 164 LINE",
"367 206 LINE",
"387 211 LINE",
"396 195 LINE",
"368 190 LINE",
"368 237 LINE",
"372 266 OFFCURVE",
"381 297 OFFCURVE",
"394 328 CURVE",
"416 324 LINE",
"416 290 LINE",
"430 294 LINE",
"421 263 OFFCURVE",
"415 241 OFFCURVE",
"414 220 CURVE",
"415 179 LINE SMOOTH",
"415 155 OFFCURVE",
"418 142 OFFCURVE",
"427 106 CURVE",
"435 62 OFFCURVE",
"459 43 OFFCURVE",
"494 43 CURVE SMOOTH",
"551 43 OFFCURVE",
"638 105 OFFCURVE",
"682 158 CURVE",
"686 164 OFFCURVE",
"692 167 OFFCURVE",
"700 167 CURVE SMOOTH",
"712 167 OFFCURVE",
"723 156 OFFCURVE",
"723 145 CURVE SMOOTH",
"723 140 OFFCURVE",
"716 129 OFFCURVE",
"701 112 CURVE SMOOTH",
"672 77 OFFCURVE",
"565 1 OFFCURVE",
"489 1 CURVE SMOOTH",
"442 1 OFFCURVE",
"404 26 OFFCURVE",
"383 83 CURVE",
"373 87 OFFCURVE",
"368 94 OFFCURVE",
"368 104 CURVE",
"383 104 LINE",
"382 90 LINE",
"350 38 OFFCURVE",
"255 2 OFFCURVE",
"168 2 CURVE SMOOTH",
"95 2 OFFCURVE",
"38 26 OFFCURVE",
"25 75 CURVE",
"16 162 OFFCURVE",
"162 233 OFFCURVE",
"293 233 CURVE SMOOTH",
"322 233 OFFCURVE",
"347 229 OFFCURVE",
"367 221 CURVE",
"368 235 LINE",
"368 353 LINE",
"368 381 LINE SMOOTH",
"368 400 OFFCURVE",
"365 412 OFFCURVE",
"358 416 CURVE",
"351 419 OFFCURVE",
"330 421 OFFCURVE",
"295 421 CURVE SMOOTH",
"242 421 OFFCURVE",
"198 388 OFFCURVE",
"138 320 CURVE",
"133 313 OFFCURVE",
"128 310 OFFCURVE",
"121 310 CURVE SMOOTH",
"109 310 OFFCURVE",
"97 322 OFFCURVE",
"97 334 CURVE SMOOTH",
"97 339 OFFCURVE",
"106 353 OFFCURVE",
"124 374 CURVE SMOOTH",
"160 417 OFFCURVE",
"222 465 OFFCURVE",
"293 465 CURVE SMOOTH",
"299 465 OFFCURVE",
"306 465 OFFCURVE",
"313 466 CURVE SMOOTH",
"320 467 OFFCURVE",
"324 467 OFFCURVE",
"327 467 CURVE SMOOTH",
"399 467 OFFCURVE",
"415 431 OFFCURVE",
"415 354 CURVE",
"416 339 LINE",
"401 343 LINE",
"444 416 OFFCURVE",
"515 459 OFFCURVE",
"584 459 CURVE SMOOTH",
"652 459 OFFCURVE",
"710 416 OFFCURVE",
"729 336 CURVE"
);
},
{
closed = 1;
nodes = (
"391 254 LINE",
"394 257 OFFCURVE",
"392 258 OFFCURVE",
"391 261 CURVE"
);
},
{
closed = 1;
nodes = (
"363 181 OFFCURVE",
"357 188 OFFCURVE",
"346 193 CURVE SMOOTH",
"334 198 OFFCURVE",
"318 200 OFFCURVE",
"297 200 CURVE SMOOTH",
"201 200 OFFCURVE",
"69 151 OFFCURVE",
"69 95 CURVE SMOOTH",
"69 92 OFFCURVE",
"70 88 OFFCURVE",
"71 83 CURVE",
"71 54 OFFCURVE",
"103 39 OFFCURVE",
"151 39 CURVE SMOOTH",
"246 39 OFFCURVE",
"364 93 OFFCURVE",
"364 160 CURVE SMOOTH",
"364 165 OFFCURVE",
"364 168 OFFCURVE",
"363 171 CURVE"
);
}
);
width = 753;
}
);
unicode = 00E6;
},
{
glyphname = oslash;
layers = (
{
layerId = "40D00E06-06D8-47EA-A1ED-37FDE38D6C1B";
name = Light;
paths = (
{
closed = 1;
nodes = (
"473 382 LINE",
"489 359 OFFCURVE",
"497 331 OFFCURVE",
"497 299 CURVE SMOOTH",
"497 238 OFFCURVE",
"468 173 OFFCURVE",
"417 110 CURVE SMOOTH",
"366 47 OFFCURVE",
"291 1 OFFCURVE",
"215 1 CURVE SMOOTH",
"183 1 OFFCURVE",
"152 10 OFFCURVE",
"122 27 CURVE SMOOTH",
"109 34 LINE",
"82 9 LINE",
"77 5 OFFCURVE",
"71 3 OFFCURVE",
"66 3 CURVE SMOOTH",
"54 3 OFFCURVE",
"42 13 OFFCURVE",
"42 26 CURVE SMOOTH",
"42 31 OFFCURVE",
"44 36 OFFCURVE",
"49 40 CURVE",
"78 68 LINE",
"61 93 OFFCURVE",
"52 123 OFFCURVE",
"52 157 CURVE SMOOTH",
"52 229 OFFCURVE",
"95 314 OFFCURVE",
"152 366 CURVE SMOOTH",
"209 417 OFFCURVE",
"276 449 OFFCURVE",
"339 449 CURVE SMOOTH",
"376 449 OFFCURVE",
"402 443 OFFCURVE",
"434 420 CURVE",
"444 414 LINE",
"487 455 LINE SMOOTH",
"492 460 OFFCURVE",
"497 462 OFFCURVE",
"503 462 CURVE SMOOTH",
"519 462 OFFCURVE",
"526 448 OFFCURVE",
"526 439 CURVE SMOOTH",
"526 434 OFFCURVE",
"524 429 OFFCURVE",
"519 424 CURVE"
);
},
{
closed = 1;
nodes = (
"391 396 OFFCURVE",
"368 403 OFFCURVE",
"341 403 CURVE SMOOTH",
"290 403 OFFCURVE",
"236 376 OFFCURVE",
"186 332 CURVE SMOOTH",
"136 288 OFFCURVE",
"98 217 OFFCURVE",
"98 157 CURVE SMOOTH",
"98 134 OFFCURVE",
"103 115 OFFCURVE",
"112 99 CURVE",
"406 379 LINE",
"410 379 OFFCURVE",
"412 380 OFFCURVE",
"412 382 CURVE"
);
},
{
closed = 1;
nodes = (
"144 67 LINE",
"148 64 LINE",
"169 51 OFFCURVE",
"191 45 OFFCURVE",
"215 45 CURVE SMOOTH",
"267 45 OFFCURVE",
"327 78 OFFCURVE",
"368 123 CURVE",
"420 187 OFFCURVE",
"450 250 OFFCURVE",
"450 301 CURVE SMOOTH",
"450 319 OFFCURVE",
"446 335 OFFCURVE",
"439 349 CURVE"
);
}
);
width = 551;
}
);
unicode = 00F8;
},
{
glyphname = questiondown;
layers = (
{
layerId = "40D00E06-06D8-47EA-A1ED-37FDE38D6C1B";
name = Light;
paths = (
{
closed = 1;
nodes = (
"308 558 OFFCURVE",
"284 536 OFFCURVE",
"257 536 CURVE SMOOTH",
"230 536 OFFCURVE",
"210 560 OFFCURVE",
"210 589 CURVE SMOOTH",
"210 618 OFFCURVE",
"232 640 OFFCURVE",
"259 640 CURVE SMOOTH",
"287 640 OFFCURVE",
"308 615 OFFCURVE",
"308 586 CURVE SMOOTH"
);
},
{
closed = 1;
nodes = (
"315 35 OFFCURVE",
"245 -4 OFFCURVE",
"173 -4 CURVE SMOOTH",
"89 -4 OFFCURVE",
"17 57 OFFCURVE",
"17 120 CURVE SMOOTH",
"17 148 OFFCURVE",
"41 182 OFFCURVE",
"88 221 CURVE",
"177 286 OFFCURVE",
"294 365 OFFCURVE",
"294 405 CURVE SMOOTH",
"294 442 OFFCURVE",
"274 456 OFFCURVE",
"243 456 CURVE SMOOTH",
"214 456 OFFCURVE",
"182 439 OFFCURVE",
"185 426 CURVE",
"185 410 OFFCURVE",
"177 402 OFFCURVE",
"161 402 CURVE SMOOTH",
"146 402 OFFCURVE",
"139 409 OFFCURVE",
"139 424 CURVE SMOOTH",
"139 460 OFFCURVE",
"198 498 OFFCURVE",
"254 498 CURVE SMOOTH",
"305 498 OFFCURVE",
"340 470 OFFCURVE",
"340 405 CURVE SMOOTH",
"340 378 OFFCURVE",
"316 344 OFFCURVE",
"267 305 CURVE",
"176 238 OFFCURVE",
"59 160 OFFCURVE",
"63 121 CURVE",
"63 81 OFFCURVE",
"110 41 OFFCURVE",
"170 41 CURVE SMOOTH",
"226 41 OFFCURVE",
"288 79 OFFCURVE",
"317 126 CURVE SMOOTH",
"332 149 OFFCURVE",
"343 161 OFFCURVE",
"351 161 CURVE SMOOTH",
"363 161 OFFCURVE",
"375 151 OFFCURVE",
"375 138 CURVE SMOOTH",
"375 135 OFFCURVE",
"374 131 OFFCURVE",
"372 127 CURVE"
);
}
);
width = 398;
}
);
unicode = 00BF;
},
{
glyphname = exclamdown;
layers = (
{
layerId = "40D00E06-06D8-47EA-A1ED-37FDE38D6C1B";
name = Light;
paths = (
{
closed = 1;
nodes = (
"152 361 OFFCURVE",
"127 338 OFFCURVE",
"100 338 CURVE SMOOTH",
"72 338 OFFCURVE",
"53 363 OFFCURVE",
"53 392 CURVE SMOOTH",
"53 421 OFFCURVE",
"77 442 OFFCURVE",
"102 442 CURVE SMOOTH",
"129 442 OFFCURVE",
"152 417 OFFCURVE",
"152 389 CURVE SMOOTH"
);
},
{
closed = 1;
nodes = (
"127 -167 LINE SMOOTH",
"127 -182 OFFCURVE",
"119 -190 OFFCURVE",
"103 -190 CURVE SMOOTH",
"87 -190 OFFCURVE",
"79 -182 OFFCURVE",
"79 -167 CURVE SMOOTH",
"79 248 LINE SMOOTH",
"79 263 OFFCURVE",
"90 271 OFFCURVE",
"103 271 CURVE SMOOTH",
"115 271 OFFCURVE",
"127 261 OFFCURVE",
"127 248 CURVE SMOOTH"
);
}
);
width = 183;
}
);
unicode = 00A1;
},
{
glyphname = logicalnot;
layers = (
{
layerId = "40D00E06-06D8-47EA-A1ED-37FDE38D6C1B";
name = Light;
paths = (
{
closed = 1;
nodes = (
"463 182 LINE SMOOTH",
"463 169 OFFCURVE",
"452 162 OFFCURVE",
"440 162 CURVE SMOOTH",
"427 162 OFFCURVE",
"416 169 OFFCURVE",
"416 182 CURVE SMOOTH",
"416 302 LINE",
"46 302 LINE SMOOTH",
"29 302 OFFCURVE",
"21 309 OFFCURVE",
"21 323 CURVE SMOOTH",
"21 337 OFFCURVE",
"29 344 OFFCURVE",
"46 344 CURVE SMOOTH",
"444 344 LINE",
"463 329 LINE"
);
}
);
width = 484;
}
);
unicode = 00AC;
},
{
glyphname = florin;
layers = (
{
layerId = "40D00E06-06D8-47EA-A1ED-37FDE38D6C1B";
name = Light;
paths = (
{
closed = 1;
nodes = (
"55 307 LINE SMOOTH",
"39 307 OFFCURVE",
"33 322 OFFCURVE",
"33 329 CURVE SMOOTH",
"33 342 OFFCURVE",
"40 352 OFFCURVE",
"55 352 CURVE SMOOTH",
"411 352 LINE SMOOTH",
"427 352 OFFCURVE",
"436 342 OFFCURVE",
"436 329 CURVE SMOOTH",
"436 314 OFFCURVE",
"428 307 OFFCURVE",
"411 307 CURVE SMOOTH"
);
},
{
closed = 1;
nodes = (
"467 540 OFFCURVE",
"456 532 OFFCURVE",
"444 532 CURVE SMOOTH",
"428 532 OFFCURVE",
"420 540 OFFCURVE",
"420 555 CURVE SMOOTH",
"420 594 OFFCURVE",
"396 614 OFFCURVE",
"364 614 CURVE SMOOTH",
"324 614 OFFCURVE",
"283 583 OFFCURVE",
"272 534 CURVE",
"249 536 LINE",
"249 550 LINE",
"274 549 LINE",
"265 470 OFFCURVE",
"190 115 OFFCURVE",
"145 -66 CURVE",
"122 -63 LINE",
"122 -47 LINE",
"147 -50 LINE",
"139 -110 OFFCURVE",
"77 -151 OFFCURVE",
"10 -151 CURVE SMOOTH",
"-51 -151 OFFCURVE",
"-98 -116 OFFCURVE",
"-98 -48 CURVE SMOOTH",
"-98 -35 OFFCURVE",
"-87 -26 OFFCURVE",
"-75 -26 CURVE SMOOTH",
"-62 -26 OFFCURVE",
"-52 -33 OFFCURVE",
"-52 -48 CURVE SMOOTH",
"-52 -88 OFFCURVE",
"-20 -109 OFFCURVE",
"19 -109 CURVE SMOOTH",
"60 -109 OFFCURVE",
"100 -86 OFFCURVE",
"100 -53 CURVE SMOOTH",
"100 -49 LINE",
"145 127 OFFCURVE",
"219 478 OFFCURVE",
"227 547 CURVE",
"240 618 OFFCURVE",
"302 660 OFFCURVE",
"366 660 CURVE SMOOTH",
"423 660 OFFCURVE",
"467 623 OFFCURVE",
"467 555 CURVE SMOOTH"
);
}
);
width = 503;
}
);
unicode = 0192;
},
{
glyphname = approxequal;
layers = (
{
layerId = "40D00E06-06D8-47EA-A1ED-37FDE38D6C1B";
name = Light;
paths = (
{
closed = 1;
nodes = (
"470 346 OFFCURVE",
"402 269 OFFCURVE",
"323 269 CURVE SMOOTH",
"294 269 OFFCURVE",
"266 289 OFFCURVE",
"238 328 CURVE SMOOTH",
"210 367 OFFCURVE",
"187 386 OFFCURVE",
"169 384 CURVE",
"128 384 OFFCURVE",
"96 323 OFFCURVE",
"81 291 CURVE SMOOTH",
"73 275 OFFCURVE",
"64 267 OFFCURVE",
"54 267 CURVE SMOOTH",
"38 267 OFFCURVE",
"25 280 OFFCURVE",
"30 297 CURVE",
"58 356 OFFCURVE",
"97 428 OFFCURVE",
"169 428 CURVE SMOOTH",
"201 428 OFFCURVE",
"230 408 OFFCURVE",
"256 369 CURVE SMOOTH",
"281 329 OFFCURVE",
"303 310 OFFCURVE",
"322 312 CURVE",
"370 312 OFFCURVE",
"423 370 OFFCURVE",
"423 407 CURVE SMOOTH",
"423 420 OFFCURVE",
"432 427 OFFCURVE",
"447 427 CURVE SMOOTH",
"458 427 OFFCURVE",
"470 423 OFFCURVE",
"470 407 CURVE SMOOTH"
);
},
{
closed = 1;
nodes = (
"470 203 OFFCURVE",
"402 126 OFFCURVE",
"323 126 CURVE SMOOTH",
"292 126 OFFCURVE",
"263 146 OFFCURVE",
"237 185 CURVE SMOOTH",
"210 224 OFFCURVE",
"188 243 OFFCURVE",
"169 241 CURVE",
"126 241 OFFCURVE",
"96 180 OFFCURVE",
"81 148 CURVE SMOOTH",
"73 131 OFFCURVE",
"64 123 OFFCURVE",
"54 123 CURVE SMOOTH",
"41 123 OFFCURVE",
"29 133 OFFCURVE",
"29 146 CURVE SMOOTH",
"29 149 OFFCURVE",
"33 159 OFFCURVE",
"40 175 CURVE",
"55 206 OFFCURVE",
"97 284 OFFCURVE",
"169 284 CURVE SMOOTH",
"201 284 OFFCURVE",
"230 264 OFFCURVE",
"256 225 CURVE SMOOTH",
"281 186 OFFCURVE",
"303 167 OFFCURVE",
"322 169 CURVE",
"369 169 OFFCURVE",
"423 226 OFFCURVE",
"423 263 CURVE SMOOTH",
"423 278 OFFCURVE",
"431 285 OFFCURVE",
"447 285 CURVE SMOOTH",
"462 285 OFFCURVE",
"470 278 OFFCURVE",
"470 263 CURVE SMOOTH"
);
}
);
width = 527;
}
);
unicode = 2248;
},
{
glyphname = guillemotleft;
layers = (
{
layerId = "40D00E06-06D8-47EA-A1ED-37FDE38D6C1B";
name = Light;
paths = (
{
closed = 1;
nodes = (
"436 82 LINE",
"441 79 OFFCURVE",
"444 74 OFFCURVE",
"444 67 CURVE SMOOTH",
"444 55 OFFCURVE",
"432 43 OFFCURVE",
"420 43 CURVE SMOOTH",
"415 43 OFFCURVE",
"410 45 OFFCURVE",
"406 49 CURVE",
"186 242 LINE",
"186 269 LINE",
"406 460 LINE",
"409 463 OFFCURVE",
"414 465 OFFCURVE",
"420 465 CURVE SMOOTH",
"432 465 OFFCURVE",
"444 453 OFFCURVE",
"444 440 CURVE SMOOTH",
"444 433 OFFCURVE",
"441 428 OFFCURVE",
"436 425 CURVE",
"240 255 LINE"
);
},
{
closed = 1;
nodes = (
"276 82 LINE",
"281 78 OFFCURVE",
"283 73 OFFCURVE",
"283 68 CURVE SMOOTH",
"283 55 OFFCURVE",
"271 43 OFFCURVE",
"258 43 CURVE SMOOTH",
"253 43 OFFCURVE",
"249 45 OFFCURVE",
"245 49 CURVE",
"25 242 LINE",
"25 269 LINE",
"245 460 LINE",
"248 463 OFFCURVE",
"253 465 OFFCURVE",
"258 465 CURVE SMOOTH",
"267 465 OFFCURVE",
"283 456 OFFCURVE",
"283 439 CURVE SMOOTH",
"283 434 OFFCURVE",
"281 429 OFFCURVE",
"276 425 CURVE",
"79 255 LINE"
);
}
);
width = 508;
}
);
unicode = 00AB;
},
{
glyphname = guillemotright;
layers = (
{
layerId = "40D00E06-06D8-47EA-A1ED-37FDE38D6C1B";
name = Light;
paths = (
{
closed = 1;
nodes = (
"433 242 LINE",
"212 51 LINE",
"208 47 OFFCURVE",
"203 45 OFFCURVE",
"198 45 CURVE SMOOTH",
"187 45 OFFCURVE",
"174 58 OFFCURVE",
"174 70 CURVE SMOOTH",
"174 75 OFFCURVE",
"176 80 OFFCURVE",
"181 84 CURVE",
"378 254 LINE",
"181 427 LINE",
"176 431 OFFCURVE",
"174 436 OFFCURVE",
"174 442 CURVE SMOOTH",
"174 451 OFFCURVE",
"183 467 OFFCURVE",
"200 467 CURVE SMOOTH",
"203 467 OFFCURVE",
"207 465 OFFCURVE",
"212 462 CURVE",
"433 267 LINE"
);
},
{
closed = 1;
nodes = (
"272 242 LINE",
"51 51 LINE",
"47 47 OFFCURVE",
"42 45 OFFCURVE",
"37 45 CURVE SMOOTH",
"25 45 OFFCURVE",
"13 57 OFFCURVE",
"13 69 CURVE SMOOTH",
"13 76 OFFCURVE",
"16 81 OFFCURVE",
"21 84 CURVE",
"217 254 LINE",
"21 427 LINE",
"16 430 OFFCURVE",
"13 436 OFFCURVE",
"13 443 CURVE SMOOTH",
"13 455 OFFCURVE",
"25 467 OFFCURVE",
"38 467 CURVE SMOOTH",
"43 467 OFFCURVE",
"48 465 OFFCURVE",
"51 462 CURVE",
"272 267 LINE"
);
}
);
width = 461;
}
);
unicode = 00BB;
},
{
glyphname = ellipsis;
layers = (
{
layerId = "40D00E06-06D8-47EA-A1ED-37FDE38D6C1B";
name = Light;
paths = (
{
closed = 1;
nodes = (
"723 27 OFFCURVE",
"703 11 OFFCURVE",
"676 11 CURVE SMOOTH",
"652 11 OFFCURVE",
"633 29 OFFCURVE",
"633 50 CURVE SMOOTH",
"633 69 OFFCURVE",
"655 84 OFFCURVE",
"680 84 CURVE SMOOTH",
"704 84 OFFCURVE",
"723 68 OFFCURVE",
"723 47 CURVE SMOOTH"
);
},
{
closed = 1;
nodes = (
"452 26 OFFCURVE",
"431 11 OFFCURVE",
"404 11 CURVE SMOOTH",
"381 11 OFFCURVE",
"362 29 OFFCURVE",
"362 50 CURVE SMOOTH",
"362 69 OFFCURVE",
"384 84 OFFCURVE",
"408 84 CURVE SMOOTH",
"433 84 OFFCURVE",
"452 68 OFFCURVE",
"452 47 CURVE SMOOTH"
);
},
{
closed = 1;
nodes = (
"169 27 OFFCURVE",
"149 11 OFFCURVE",
"122 11 CURVE SMOOTH",
"98 11 OFFCURVE",
"79 29 OFFCURVE",
"79 50 CURVE SMOOTH",
"79 69 OFFCURVE",
"101 84 OFFCURVE",
"126 84 CURVE SMOOTH",
"150 84 OFFCURVE",
"169 68 OFFCURVE",
"169 47 CURVE SMOOTH"
);
}
);
width = 837;
}
);
unicode = 2026;
},
{
glyphname = OE;
layers = (
{
layerId = "40D00E06-06D8-47EA-A1ED-37FDE38D6C1B";
name = Light;
paths = (
{
closed = 1;
nodes = (
"467 -8 LINE",
"446 11 LINE",
"446 134 LINE",
"395 37 OFFCURVE",
"303 -11 OFFCURVE",
"208 -11 CURVE SMOOTH",
"79 -11 OFFCURVE",
"16 126 OFFCURVE",
"16 274 CURVE SMOOTH",
"16 446 OFFCURVE",
"166 641 OFFCURVE",
"309 641 CURVE SMOOTH",
"330 641 OFFCURVE",
"384 638 OFFCURVE",
"431 598 CURVE",
"434 601 OFFCURVE",
"439 602 OFFCURVE",
"444 602 CURVE",
"446 609 LINE",
"446 623 OFFCURVE",
"454 630 OFFCURVE",
"470 630 CURVE SMOOTH",
"485 630 OFFCURVE",
"493 623 OFFCURVE",
"493 609 CURVE",
"787 651 LINE",
"802 651 OFFCURVE",
"812 638 OFFCURVE",
"812 626 CURVE SMOOTH",
"812 613 OFFCURVE",
"806 607 OFFCURVE",
"793 607 CURVE",
"493 563 LINE",
"493 377 LINE",
"750 426 LINE",
"765 426 OFFCURVE",
"774 415 OFFCURVE",
"774 400 CURVE SMOOTH",
"774 387 OFFCURVE",
"768 381 OFFCURVE",
"755 381 CURVE",
"493 331 LINE",
"493 44 LINE",
"787 93 LINE",
"802 93 OFFCURVE",
"812 80 OFFCURVE",
"812 67 CURVE SMOOTH",
"812 54 OFFCURVE",
"806 48 OFFCURVE",
"793 48 CURVE"
);
},
{
closed = 1;
nodes = (
"440 579 LINE",
"435 577 LINE",
"440 568 LINE"
);
},
{
closed = 1;
nodes = (
"461 534 LINE",
"461 570 LINE",
"449 570 LINE",
"438 569 LINE"
);
},
{
closed = 1;
nodes = (
"445 445 OFFCURVE",
"439 504 OFFCURVE",
"426 533 CURVE SMOOTH",
"401 589 OFFCURVE",
"321 597 OFFCURVE",
"305 597 CURVE SMOOTH",
"193 597 OFFCURVE",
"63 421 OFFCURVE",
"63 274 CURVE SMOOTH",
"63 147 OFFCURVE",
"111 35 OFFCURVE",
"208 35 CURVE SMOOTH",
"343 35 OFFCURVE",
"445 127 OFFCURVE",
"445 356 CURVE SMOOTH"
);
}
);
width = 852;
}
);
unicode = 0152;
},
{
glyphname = oe;
layers = (
{
layerId = "40D00E06-06D8-47EA-A1ED-37FDE38D6C1B";
name = Light;
paths = (
{
closed = 1;
nodes = (
"691 326 LINE",
"404 225 LINE",
"401 238 LINE",
"411 238 LINE",
"411 231 OFFCURVE",
"409 224 OFFCURVE",
"406 217 CURVE SMOOTH",
"403 210 OFFCURVE",
"400 204 OFFCURVE",
"398 199 CURVE",
"395 183 OFFCURVE",
"394 165 OFFCURVE",
"394 146 CURVE SMOOTH",
"394 109 OFFCURVE",
"401 66 OFFCURVE",
"419 50 CURVE",
"428 41 OFFCURVE",
"439 37 OFFCURVE",
"454 37 CURVE SMOOTH",
"507 37 OFFCURVE",
"603 108 OFFCURVE",
"639 144 CURVE SMOOTH",
"657 162 OFFCURVE",
"669 171 OFFCURVE",
"675 171 CURVE SMOOTH",
"687 171 OFFCURVE",
"700 160 OFFCURVE",
"700 148 CURVE SMOOTH",
"700 143 OFFCURVE",
"691 132 OFFCURVE",
"672 113 CURVE SMOOTH",
"634 76 OFFCURVE",
"523 -2 OFFCURVE",
"451 -2 CURVE SMOOTH",
"406 -2 OFFCURVE",
"371 28 OFFCURVE",
"360 61 CURVE SMOOTH",
"355 77 OFFCURVE",
"352 87 OFFCURVE",
"351 91 CURVE SMOOTH",
"350 95 OFFCURVE",
"350 100 OFFCURVE",
"349 107 CURVE",
"301 40 OFFCURVE",
"238 -3 OFFCURVE",
"173 -3 CURVE SMOOTH",
"144 -3 OFFCURVE",
"116 4 OFFCURVE",
"88 23 CURVE",
"47 55 OFFCURVE",
"26 103 OFFCURVE",
"26 158 CURVE SMOOTH",
"26 293 OFFCURVE",
"149 444 OFFCURVE",
"276 444 CURVE SMOOTH",
"311 444 OFFCURVE",
"347 433 OFFCURVE",
"379 410 CURVE SMOOTH",
"396 397 OFFCURVE",
"407 380 OFFCURVE",
"414 359 CURVE",
"459 428 OFFCURVE",
"514 470 OFFCURVE",
"569 470 CURVE SMOOTH",
"621 470 OFFCURVE",
"668 432 OFFCURVE",
"705 348 CURVE"
);
},
{
closed = 1;
nodes = (
"417 260 LINE",
"417 271 LINE",
"408 271 OFFCURVE",
"398 263 OFFCURVE",
"385 250 CURVE"
);
},
{
closed = 1;
nodes = (
"376 296 OFFCURVE",
"377 307 OFFCURVE",
"377 317 CURVE SMOOTH",
"377 344 OFFCURVE",
"368 364 OFFCURVE",
"351 376 CURVE",
"328 395 OFFCURVE",
"302 404 OFFCURVE",
"273 404 CURVE SMOOTH",
"172 404 OFFCURVE",
"67 272 OFFCURVE",
"67 160 CURVE SMOOTH",
"67 117 OFFCURVE",
"81 83 OFFCURVE",
"116 60 CURVE",
"135 45 OFFCURVE",
"154 38 OFFCURVE",
"175 38 CURVE SMOOTH",
"242 38 OFFCURVE",
"314 118 OFFCURVE",
"353 211 CURVE",
"357 238 OFFCURVE",
"362 249 OFFCURVE",
"374 284 CURVE"
);
}
);
width = 737;
}
);
unicode = 0153;
},
{
glyphname = endash;
layers = (
{
layerId = "40D00E06-06D8-47EA-A1ED-37FDE38D6C1B";
name = Light;
paths = (
{
closed = 1;
nodes = (
"7 244 LINE SMOOTH",
"-10 244 OFFCURVE",
"-18 248 OFFCURVE",
"-18 255 CURVE SMOOTH",
"-18 262 OFFCURVE",
"-10 266 OFFCURVE",
"7 266 CURVE SMOOTH",
"458 266 LINE SMOOTH",
"477 266 OFFCURVE",
"486 262 OFFCURVE",
"486 255 CURVE SMOOTH",
"486 248 OFFCURVE",
"477 244 OFFCURVE",
"458 244 CURVE SMOOTH"
);
}
);
width = 462;
}
);
unicode = 2013;
},
{
glyphname = emdash;
layers = (
{
layerId = "40D00E06-06D8-47EA-A1ED-37FDE38D6C1B";
name = Light;
paths = (
{
closed = 1;
nodes = (
"11 244 LINE SMOOTH",
"-8 244 OFFCURVE",
"-17 248 OFFCURVE",
"-17 255 CURVE SMOOTH",
"-17 262 OFFCURVE",
"-8 266 OFFCURVE",
"11 266 CURVE SMOOTH",
"923 266 LINE SMOOTH",
"942 266 OFFCURVE",
"951 262 OFFCURVE",
"951 255 CURVE SMOOTH",
"951 248 OFFCURVE",
"942 244 OFFCURVE",
"923 244 CURVE SMOOTH"
);
}
);
width = 923;
}
);
unicode = 2014;
},
{
glyphname = quotedblleft;
layers = (
{
layerId = "40D00E06-06D8-47EA-A1ED-37FDE38D6C1B";
name = Light;
paths = (
{
closed = 1;
nodes = (
"282 565 OFFCURVE",
"260 545 OFFCURVE",
"228 545 CURVE SMOOTH",
"188 545 OFFCURVE",
"164 570 OFFCURVE",
"164 615 CURVE",
"161 643 OFFCURVE",
"168 672 OFFCURVE",
"197 697 CURVE SMOOTH",
"225 722 OFFCURVE",
"243 729 OFFCURVE",
"272 729 CURVE SMOOTH",
"295 729 OFFCURVE",
"311 717 OFFCURVE",
"311 702 CURVE SMOOTH",
"311 689 OFFCURVE",
"300 681 OFFCURVE",
"278 677 CURVE",
"259 670 OFFCURVE",
"239 666 OFFCURVE",
"231 649 CURVE",
"266 654 OFFCURVE",
"286 633 OFFCURVE",
"282 598 CURVE"
);
},
{
closed = 1;
nodes = (
"152 562 OFFCURVE",
"133 545 OFFCURVE",
"100 545 CURVE SMOOTH",
"60 545 OFFCURVE",
"37 570 OFFCURVE",
"37 617 CURVE SMOOTH",
"37 646 OFFCURVE",
"43 673 OFFCURVE",
"70 698 CURVE SMOOTH",
"97 722 OFFCURVE",
"117 729 OFFCURVE",
"145 729 CURVE SMOOTH",
"166 729 OFFCURVE",
"182 718 OFFCURVE",
"182 703 CURVE SMOOTH",
"182 690 OFFCURVE",
"172 681 OFFCURVE",
"152 677 CURVE",
"143 674 OFFCURVE",
"133 671 OFFCURVE",
"124 668 CURVE",
"114 664 OFFCURVE",
"107 658 OFFCURVE",
"104 649 CURVE",
"139 654 OFFCURVE",
"159 632 OFFCURVE",
"155 597 CURVE SMOOTH"
);
}
);
width = 323;
}
);
unicode = 201C;
},
{
glyphname = quotedblright;
layers = (
{
layerId = "40D00E06-06D8-47EA-A1ED-37FDE38D6C1B";
name = Light;
paths = (
{
closed = 1;
nodes = (
"286 659 OFFCURVE",
"286 655 OFFCURVE",
"286 652 CURVE SMOOTH",
"286 628 OFFCURVE",
"277 601 OFFCURVE",
"253 578 CURVE",
"222 554 OFFCURVE",
"206 548 OFFCURVE",
"178 548 CURVE SMOOTH",
"155 548 OFFCURVE",
"139 561 OFFCURVE",
"139 574 CURVE SMOOTH",
"139 587 OFFCURVE",
"148 595 OFFCURVE",
"167 600 CURVE",
"203 608 OFFCURVE",
"212 611 OFFCURVE",
"219 628 CURVE",
"186 624 OFFCURVE",
"167 645 OFFCURVE",
"167 676 CURVE SMOOTH",
"167 713 OFFCURVE",
"190 731 OFFCURVE",
"223 731 CURVE SMOOTH",
"264 731 OFFCURVE",
"285 709 OFFCURVE",
"285 665 CURVE"
);
},
{
closed = 1;
nodes = (
"154 662 OFFCURVE",
"154 657 OFFCURVE",
"154 651 CURVE SMOOTH",
"154 626 OFFCURVE",
"145 601 OFFCURVE",
"121 578 CURVE",
"92 554 OFFCURVE",
"75 548 OFFCURVE",
"47 548 CURVE SMOOTH",
"21 548 OFFCURVE",
"8 556 OFFCURVE",
"8 573 CURVE SMOOTH",
"8 586 OFFCURVE",
"17 595 OFFCURVE",
"35 600 CURVE",
"71 608 OFFCURVE",
"80 611 OFFCURVE",
"87 628 CURVE",
"54 624 OFFCURVE",
"31 649 OFFCURVE",
"36 680 CURVE",
"40 713 OFFCURVE",
"61 731 OFFCURVE",
"90 731 CURVE SMOOTH",
"143 731 OFFCURVE",
"153 697 OFFCURVE",
"153 665 CURVE"
);
}
);
width = 323;
}
);
unicode = 201D;
},
{
glyphname = quoteleft;
layers = (
{
layerId = "40D00E06-06D8-47EA-A1ED-37FDE38D6C1B";
name = Light;
paths = (
{
closed = 1;
nodes = (
"156 568 OFFCURVE",
"133 547 OFFCURVE",
"102 547 CURVE SMOOTH",
"62 547 OFFCURVE",
"39 573 OFFCURVE",
"39 616 CURVE",
"38 619 OFFCURVE",
"38 623 OFFCURVE",
"38 630 CURVE SMOOTH",
"38 657 OFFCURVE",
"46 679 OFFCURVE",
"70 702 CURVE",
"99 725 OFFCURVE",
"117 730 OFFCURVE",
"146 730 CURVE SMOOTH",
"171 730 OFFCURVE",
"184 721 OFFCURVE",
"184 704 CURVE SMOOTH",
"184 691 OFFCURVE",
"174 682 OFFCURVE",
"155 678 CURVE",
"135 673 OFFCURVE",
"123 670 OFFCURVE",
"118 668 CURVE SMOOTH",
"113 666 OFFCURVE",
"108 661 OFFCURVE",
"105 652 CURVE",
"137 656 OFFCURVE",
"157 638 OFFCURVE",
"157 610 CURVE",
"156 606 OFFCURVE",
"156 603 OFFCURVE",
"156 601 CURVE SMOOTH"
);
}
);
width = 189;
}
);
unicode = 2018;
},
{
glyphname = quoteright;
layers = (
{
layerId = "40D00E06-06D8-47EA-A1ED-37FDE38D6C1B";
name = Light;
paths = (
{
closed = 1;
nodes = (
"156 662 OFFCURVE",
"156 657 OFFCURVE",
"156 650 CURVE SMOOTH",
"156 625 OFFCURVE",
"147 601 OFFCURVE",
"123 578 CURVE",
"94 554 OFFCURVE",
"77 548 OFFCURVE",
"49 548 CURVE SMOOTH",
"26 548 OFFCURVE",
"11 559 OFFCURVE",
"11 574 CURVE SMOOTH",
"11 587 OFFCURVE",
"20 595 OFFCURVE",
"38 600 CURVE",
"73 608 OFFCURVE",
"82 611 OFFCURVE",
"89 628 CURVE",
"56 624 OFFCURVE",
"33 649 OFFCURVE",
"38 680 CURVE",
"42 713 OFFCURVE",
"63 731 OFFCURVE",
"92 731 CURVE SMOOTH",
"145 731 OFFCURVE",
"155 697 OFFCURVE",
"155 665 CURVE"
);
}
);
width = 189;
}
);
unicode = 2019;
},
{
glyphname = divide;
layers = (
{
layerId = "40D00E06-06D8-47EA-A1ED-37FDE38D6C1B";
name = Light;
paths = (
{
closed = 1;
nodes = (
"295 364 OFFCURVE",
"271 342 OFFCURVE",
"243 342 CURVE SMOOTH",
"215 342 OFFCURVE",
"196 365 OFFCURVE",
"196 394 CURVE SMOOTH",
"196 423 OFFCURVE",
"218 443 OFFCURVE",
"246 443 CURVE SMOOTH",
"274 443 OFFCURVE",
"295 420 OFFCURVE",
"295 391 CURVE SMOOTH"
);
},
{
closed = 1;
nodes = (
"47 234 LINE SMOOTH",
"32 234 OFFCURVE",
"22 245 OFFCURVE",
"22 256 CURVE SMOOTH",
"22 271 OFFCURVE",
"30 278 OFFCURVE",
"47 278 CURVE SMOOTH",
"449 278 LINE SMOOTH",
"462 278 OFFCURVE",
"474 273 OFFCURVE",
"474 256 CURVE SMOOTH",
"474 241 OFFCURVE",
"466 234 OFFCURVE",
"449 234 CURVE SMOOTH"
);
},
{
closed = 1;
nodes = (
"295 97 OFFCURVE",
"270 76 OFFCURVE",
"243 76 CURVE SMOOTH",
"216 76 OFFCURVE",
"196 100 OFFCURVE",
"196 128 CURVE SMOOTH",
"196 156 OFFCURVE",
"218 178 OFFCURVE",
"246 178 CURVE SMOOTH",
"271 178 OFFCURVE",
"295 153 OFFCURVE",
"295 125 CURVE SMOOTH"
);
}
);
width = 488;
}
);
unicode = 00F7;
},
{
glyphname = lozenge;
layers = (
{
layerId = "40D00E06-06D8-47EA-A1ED-37FDE38D6C1B";
name = Light;
paths = (
{
closed = 1;
nodes = (
"441 325 LINE",
"247 0 LINE",
"215 0 LINE",
"20 325 LINE",
"20 342 LINE",
"215 654 LINE",
"247 654 LINE",
"441 342 LINE"
);
},
{
closed = 1;
nodes = (
"394 333 LINE",
"231 594 LINE",
"68 333 LINE",
"231 62 LINE"
);
}
);
width = 470;
}
);
unicode = 25CA;
},
{
glyphname = fraction;
layers = (
{
layerId = "40D00E06-06D8-47EA-A1ED-37FDE38D6C1B";
name = Light;
paths = (
{
closed = 1;
nodes = (
"-36 12 LINE SMOOTH",
"-41 3 OFFCURVE",
"-48 -2 OFFCURVE",
"-58 -2 CURVE SMOOTH",
"-70 -2 OFFCURVE",
"-82 8 OFFCURVE",
"-82 19 CURVE SMOOTH",
"-82 24 OFFCURVE",
"-81 28 OFFCURVE",
"-78 31 CURVE",
"242 646 LINE",
"246 655 OFFCURVE",
"253 659 OFFCURVE",
"263 659 CURVE SMOOTH",
"276 659 OFFCURVE",
"288 651 OFFCURVE",
"288 639 CURVE SMOOTH",
"288 636 OFFCURVE",
"287 632 OFFCURVE",
"284 627 CURVE"
);
}
);
width = 239;
}
);
unicode = 2215;
},
{
glyphname = currency;
layers = (
{
layerId = "40D00E06-06D8-47EA-A1ED-37FDE38D6C1B";
name = Light;
paths = (
{
closed = 1;
nodes = (
"452 29 LINE SMOOTH",
"456 25 OFFCURVE",
"458 21 OFFCURVE",
"458 16 CURVE SMOOTH",
"458 4 OFFCURVE",
"444 -8 OFFCURVE",
"432 -8 CURVE SMOOTH",
"426 -8 OFFCURVE",
"421 -6 OFFCURVE",
"417 -1 CURVE",
"375 44 LINE",
"340 11 OFFCURVE",
"292 -10 OFFCURVE",
"241 -10 CURVE SMOOTH",
"191 -10 OFFCURVE",
"148 6 OFFCURVE",
"112 38 CURVE",
"70 -2 LINE SMOOTH",
"65 -7 OFFCURVE",
"60 -9 OFFCURVE",
"55 -9 CURVE SMOOTH",
"42 -9 OFFCURVE",
"29 2 OFFCURVE",
"29 15 CURVE SMOOTH",
"29 19 OFFCURVE",
"31 23 OFFCURVE",
"35 27 CURVE SMOOTH",
"79 72 LINE",
"49 111 OFFCURVE",
"34 155 OFFCURVE",
"34 203 CURVE SMOOTH",
"34 211 OFFCURVE",
"34 217 OFFCURVE",
"35 221 CURVE",
"35 269 OFFCURVE",
"54 313 OFFCURVE",
"86 352 CURVE",
"40 393 LINE",
"35 398 OFFCURVE",
"32 404 OFFCURVE",
"32 409 CURVE SMOOTH",
"32 421 OFFCURVE",
"44 433 OFFCURVE",
"56 433 CURVE SMOOTH",
"61 433 OFFCURVE",
"66 431 OFFCURVE",
"71 427 CURVE",
"120 384 LINE",
"155 409 OFFCURVE",
"196 422 OFFCURVE",
"241 422 CURVE SMOOTH",
"289 422 OFFCURVE",
"330 408 OFFCURVE",
"365 381 CURVE",
"416 426 LINE",
"421 430 OFFCURVE",
"426 432 OFFCURVE",
"431 432 CURVE SMOOTH",
"447 432 OFFCURVE",
"455 424 OFFCURVE",
"455 408 CURVE SMOOTH",
"455 403 OFFCURVE",
"453 398 OFFCURVE",
"448 394 CURVE",
"397 348 LINE",
"426 315 OFFCURVE",
"444 269 OFFCURVE",
"444 224 CURVE",
"445 219 OFFCURVE",
"445 212 OFFCURVE",
"445 203 CURVE SMOOTH",
"445 160 OFFCURVE",
"432 118 OFFCURVE",
"405 77 CURVE"
);
},
{
closed = 1;
nodes = (
"398 304 OFFCURVE",
"328 377 OFFCURVE",
"241 377 CURVE SMOOTH",
"153 377 OFFCURVE",
"81 305 OFFCURVE",
"81 217 CURVE SMOOTH",
"81 121 OFFCURVE",
"149 35 OFFCURVE",
"241 35 CURVE SMOOTH",
"333 35 OFFCURVE",
"398 123 OFFCURVE",
"398 220 CURVE SMOOTH"
);
}
);
width = 494;
}
);
unicode = 00A4;
},
{
glyphname = guilsinglleft;
layers = (
{
layerId = "40D00E06-06D8-47EA-A1ED-37FDE38D6C1B";
name = Light;
paths = (
{
closed = 1;
nodes = (
"279 80 LINE",
"284 75 OFFCURVE",
"286 70 OFFCURVE",
"286 65 CURVE SMOOTH",
"286 53 OFFCURVE",
"275 40 OFFCURVE",
"262 40 CURVE SMOOTH",
"257 40 OFFCURVE",
"252 42 OFFCURVE",
"247 46 CURVE",
"25 239 LINE",
"25 266 LINE",
"244 463 LINE",
"248 467 OFFCURVE",
"253 469 OFFCURVE",
"259 469 CURVE SMOOTH",
"275 469 OFFCURVE",
"283 461 OFFCURVE",
"283 445 CURVE SMOOTH",
"283 440 OFFCURVE",
"281 435 OFFCURVE",
"276 430 CURVE",
"79 253 LINE"
);
}
);
width = 345;
}
);
unicode = 2039;
},
{
glyphname = guilsinglright;
layers = (
{
layerId = "40D00E06-06D8-47EA-A1ED-37FDE38D6C1B";
name = Light;
paths = (
{
closed = 1;
nodes = (
"277 242 LINE",
"56 45 LINE",
"52 41 OFFCURVE",
"47 39 OFFCURVE",
"41 39 CURVE SMOOTH",
"29 39 OFFCURVE",
"18 50 OFFCURVE",
"18 63 CURVE SMOOTH",
"18 69 OFFCURVE",
"20 74 OFFCURVE",
"25 79 CURVE",
"222 254 LINE",
"22 428 LINE",
"17 433 OFFCURVE",
"14 439 OFFCURVE",
"14 444 CURVE SMOOTH",
"14 456 OFFCURVE",
"26 468 OFFCURVE",
"38 468 CURVE SMOOTH",
"43 468 OFFCURVE",
"48 466 OFFCURVE",
"53 462 CURVE",
"277 267 LINE"
);
}
);
width = 298;
}
);
unicode = 203A;
},
{
glyphname = fi;
layers = (
{
layerId = "40D00E06-06D8-47EA-A1ED-37FDE38D6C1B";
name = Light;
paths = (
{
closed = 1;
nodes = (
"428 13 LINE SMOOTH",
"428 -2 OFFCURVE",
"420 -10 OFFCURVE",
"404 -10 CURVE SMOOTH",
"388 -10 OFFCURVE",
"380 -2 OFFCURVE",
"380 13 CURVE SMOOTH",
"380 421 LINE",
"195 376 LINE",
"195 13 LINE SMOOTH",
"195 -2 OFFCURVE",
"184 -10 OFFCURVE",
"172 -10 CURVE SMOOTH",
"156 -10 OFFCURVE",
"148 -2 OFFCURVE",
"148 13 CURVE SMOOTH",
"148 366 LINE",
"53 343 LINE",
"37 343 OFFCURVE",
"26 356 OFFCURVE",
"26 371 CURVE SMOOTH",
"26 382 OFFCURVE",
"32 388 OFFCURVE",
"44 388 CURVE",
"148 413 LINE",
"148 561 LINE SMOOTH",
"148 628 OFFCURVE",
"204 670 OFFCURVE",
"272 670 CURVE SMOOTH",
"355 670 OFFCURVE",
"426 613 OFFCURVE",
"426 509 CURVE SMOOTH",
"426 494 OFFCURVE",
"414 485 OFFCURVE",
"401 485 CURVE SMOOTH",
"389 485 OFFCURVE",
"380 491 OFFCURVE",
"380 507 CURVE",
"373 584 OFFCURVE",
"322 625 OFFCURVE",
"266 625 CURVE SMOOTH",
"223 625 OFFCURVE",
"194 602 OFFCURVE",
"194 561 CURVE SMOOTH",
"195 424 LINE",
"405 475 LINE",
"427 458 LINE"
);
}
);
width = 464;
}
);
unicode = F001;
},
{
glyphname = fl;
layers = (
{
layerId = "40D00E06-06D8-47EA-A1ED-37FDE38D6C1B";
name = Light;
paths = (
{
closed = 1;
nodes = (
"429 13 LINE SMOOTH",
"429 -2 OFFCURVE",
"421 -10 OFFCURVE",
"405 -10 CURVE SMOOTH",
"389 -10 OFFCURVE",
"381 -2 OFFCURVE",
"381 13 CURVE SMOOTH",
"382 422 LINE",
"196 376 LINE",
"196 13 LINE SMOOTH",
"196 -2 OFFCURVE",
"185 -10 OFFCURVE",
"173 -10 CURVE SMOOTH",
"157 -10 OFFCURVE",
"149 -2 OFFCURVE",
"149 13 CURVE SMOOTH",
"149 366 LINE",
"54 342 LINE",
"38 342 OFFCURVE",
"27 356 OFFCURVE",
"27 369 CURVE SMOOTH",
"27 380 OFFCURVE",
"33 386 OFFCURVE",
"45 386 CURVE",
"149 411 LINE",
"149 558 LINE SMOOTH",
"149 629 OFFCURVE",
"204 670 OFFCURVE",
"273 670 CURVE SMOOTH",
"317 670 OFFCURVE",
"358 652 OFFCURVE",
"382 617 CURVE",
"382 597 LINE",
"382 613 OFFCURVE",
"390 621 OFFCURVE",
"406 621 CURVE SMOOTH",
"421 621 OFFCURVE",
"429 613 OFFCURVE",
"429 597 CURVE SMOOTH"
);
},
{
closed = 1;
nodes = (
"382 469 LINE",
"382 495 LINE",
"380 504 LINE",
"380 580 OFFCURVE",
"328 622 OFFCURVE",
"271 622 CURVE SMOOTH",
"228 622 OFFCURVE",
"195 598 OFFCURVE",
"195 558 CURVE SMOOTH",
"196 423 LINE"
);
}
);
width = 464;
}
);
unicode = F002;
},
{
glyphname = daggerdbl;
layers = (
{
layerId = "40D00E06-06D8-47EA-A1ED-37FDE38D6C1B";
name = Light;
paths = (
{
closed = 1;
nodes = (
"237 198 LINE",
"237 13 LINE SMOOTH",
"237 -2 OFFCURVE",
"226 -10 OFFCURVE",
"214 -10 CURVE SMOOTH",
"198 -10 OFFCURVE",
"190 -2 OFFCURVE",
"190 13 CURVE SMOOTH",
"190 198 LINE",
"42 198 LINE SMOOTH",
"27 198 OFFCURVE",
"17 209 OFFCURVE",
"17 220 CURVE SMOOTH",
"17 235 OFFCURVE",
"25 243 OFFCURVE",
"42 243 CURVE SMOOTH",
"190 243 LINE",
"190 419 LINE",
"42 419 LINE SMOOTH",
"27 419 OFFCURVE",
"17 430 OFFCURVE",
"17 441 CURVE SMOOTH",
"17 456 OFFCURVE",
"25 464 OFFCURVE",
"42 464 CURVE SMOOTH",
"190 464 LINE",
"190 634 LINE SMOOTH",
"190 650 OFFCURVE",
"207 656 OFFCURVE",
"214 656 CURVE SMOOTH",
"229 656 OFFCURVE",
"237 645 OFFCURVE",
"237 634 CURVE SMOOTH",
"237 464 LINE",
"377 464 LINE SMOOTH",
"393 464 OFFCURVE",
"402 454 OFFCURVE",
"402 441 CURVE SMOOTH",
"402 426 OFFCURVE",
"394 419 OFFCURVE",
"377 419 CURVE SMOOTH",
"237 419 LINE",
"237 243 LINE",
"377 243 LINE SMOOTH",
"393 243 OFFCURVE",
"402 233 OFFCURVE",
"402 220 CURVE SMOOTH",
"402 205 OFFCURVE",
"394 198 OFFCURVE",
"377 198 CURVE SMOOTH"
);
}
);
width = 422;
}
);
unicode = 2021;
},
{
glyphname = periodcentered;
layers = (
{
layerId = "40D00E06-06D8-47EA-A1ED-37FDE38D6C1B";
name = Light;
paths = (
{
closed = 1;
nodes = (
"121 238 OFFCURVE",
"99 223 OFFCURVE",
"74 223 CURVE SMOOTH",
"49 223 OFFCURVE",
"31 240 OFFCURVE",
"31 261 CURVE SMOOTH",
"31 281 OFFCURVE",
"53 296 OFFCURVE",
"78 296 CURVE SMOOTH",
"102 296 OFFCURVE",
"121 278 OFFCURVE",
"121 257 CURVE SMOOTH"
);
}
);
width = 145;
}
);
unicode = 00B7;
},
{
glyphname = perthousand;
layers = (
{
layerId = "40D00E06-06D8-47EA-A1ED-37FDE38D6C1B";
name = Light;
paths = (
{
closed = 1;
nodes = (
"232 430 OFFCURVE",
"180 391 OFFCURVE",
"127 391 CURVE SMOOTH",
"96 391 OFFCURVE",
"57 408 OFFCURVE",
"37 445 CURVE SMOOTH",
"27 464 OFFCURVE",
"22 484 OFFCURVE",
"22 506 CURVE SMOOTH",
"22 557 OFFCURVE",
"49 609 OFFCURVE",
"94 643 CURVE SMOOTH",
"116 660 OFFCURVE",
"140 668 OFFCURVE",
"167 668 CURVE SMOOTH",
"194 668 OFFCURVE",
"234 657 OFFCURVE",
"256 617 CURVE SMOOTH",
"267 597 OFFCURVE",
"272 575 OFFCURVE",
"272 551 CURVE SMOOTH",
"272 526 OFFCURVE",
"267 503 OFFCURVE",
"257 482 CURVE SMOOTH"
);
},
{
closed = 1;
nodes = (
"199 4 LINE",
"196 -7 OFFCURVE",
"190 -12 OFFCURVE",
"179 -12 CURVE SMOOTH",
"164 -12 OFFCURVE",
"150 1 OFFCURVE",
"154 18 CURVE",
"359 646 LINE SMOOTH",
"362 656 OFFCURVE",
"369 661 OFFCURVE",
"379 661 CURVE SMOOTH",
"394 661 OFFCURVE",
"408 648 OFFCURVE",
"404 632 CURVE"
);
},
{
closed = 1;
nodes = (
"791 24 OFFCURVE",
"739 -15 OFFCURVE",
"687 -15 CURVE SMOOTH",
"655 -15 OFFCURVE",
"616 2 OFFCURVE",
"596 39 CURVE SMOOTH",
"586 58 OFFCURVE",
"581 78 OFFCURVE",
"581 100 CURVE SMOOTH",
"581 124 OFFCURVE",
"588 150 OFFCURVE",
"599 173 CURVE",
"627 222 OFFCURVE",
"674 262 OFFCURVE",
"726 262 CURVE SMOOTH",
"754 262 OFFCURVE",
"793 251 OFFCURVE",
"815 211 CURVE SMOOTH",
"826 191 OFFCURVE",
"831 169 OFFCURVE",
"831 145 CURVE SMOOTH",
"831 120 OFFCURVE",
"826 97 OFFCURVE",
"816 76 CURVE SMOOTH"
);
},
{
closed = 1;
nodes = (
"520 24 OFFCURVE",
"468 -15 OFFCURVE",
"416 -15 CURVE SMOOTH",
"384 -15 OFFCURVE",
"345 2 OFFCURVE",
"325 39 CURVE SMOOTH",
"315 58 OFFCURVE",
"310 78 OFFCURVE",
"310 100 CURVE SMOOTH",
"310 151 OFFCURVE",
"337 203 OFFCURVE",
"382 237 CURVE SMOOTH",
"404 254 OFFCURVE",
"428 262 OFFCURVE",
"455 262 CURVE SMOOTH",
"482 262 OFFCURVE",
"522 251 OFFCURVE",
"544 211 CURVE SMOOTH",
"555 191 OFFCURVE",
"560 169 OFFCURVE",
"560 145 CURVE SMOOTH",
"560 120 OFFCURVE",
"555 97 OFFCURVE",
"545 76 CURVE SMOOTH"
);
},
{
closed = 1;
nodes = (
"196 464 OFFCURVE",
"163 437 OFFCURVE",
"128 437 CURVE SMOOTH",
"109 437 OFFCURVE",
"88 445 OFFCURVE",
"77 465 CURVE",
"72 475 OFFCURVE",
"69 487 OFFCURVE",
"69 502 CURVE SMOOTH",
"69 523 OFFCURVE",
"76 548 OFFCURVE",
"88 572 CURVE",
"60 577 LINE",
"60 562 LINE",
"81 558 LINE",
"101 595 OFFCURVE",
"133 623 OFFCURVE",
"165 623 CURVE SMOOTH",
"181 623 OFFCURVE",
"202 617 OFFCURVE",
"215 594 CURVE",
"221 582 OFFCURVE",
"224 568 OFFCURVE",
"224 553 CURVE SMOOTH",
"224 535 OFFCURVE",
"220 517 OFFCURVE",
"212 500 CURVE SMOOTH"
);
},
{
closed = 1;
nodes = (
"757 59 OFFCURVE",
"720 31 OFFCURVE",
"688 31 CURVE SMOOTH",
"669 31 OFFCURVE",
"648 39 OFFCURVE",
"637 59 CURVE",
"632 69 OFFCURVE",
"629 81 OFFCURVE",
"629 96 CURVE SMOOTH",
"629 119 OFFCURVE",
"635 142 OFFCURVE",
"648 166 CURVE",
"620 171 LINE",
"620 156 LINE",
"641 152 LINE",
"661 189 OFFCURVE",
"693 217 OFFCURVE",
"725 217 CURVE SMOOTH",
"741 217 OFFCURVE",
"762 211 OFFCURVE",
"775 188 CURVE",
"781 176 OFFCURVE",
"784 162 OFFCURVE",
"784 147 CURVE SMOOTH",
"784 129 OFFCURVE",
"780 111 OFFCURVE",
"772 94 CURVE"
);
},
{
closed = 1;
nodes = (
"485 59 OFFCURVE",
"448 31 OFFCURVE",
"416 31 CURVE SMOOTH",
"397 31 OFFCURVE",
"376 39 OFFCURVE",
"365 59 CURVE",
"360 69 OFFCURVE",
"357 81 OFFCURVE",
"357 96 CURVE SMOOTH",
"357 117 OFFCURVE",
"364 142 OFFCURVE",
"376 166 CURVE",
"348 171 LINE",
"348 156 LINE",
"369 152 LINE",
"389 189 OFFCURVE",
"421 217 OFFCURVE",
"453 217 CURVE SMOOTH",
"469 217 OFFCURVE",
"490 211 OFFCURVE",
"503 188 CURVE",
"509 176 OFFCURVE",
"512 162 OFFCURVE",
"512 147 CURVE SMOOTH",
"512 129 OFFCURVE",
"508 111 OFFCURVE",
"500 94 CURVE"
);
}
);
width = 866;
}
);
unicode = 2030;
},
{
glyphname = apple;
layers = (
{
layerId = "40D00E06-06D8-47EA-A1ED-37FDE38D6C1B";
name = Light;
paths = (
{
closed = 1;
nodes = (
"483 639 OFFCURVE",
"477 614 OFFCURVE",
"471 589 CURVE SMOOTH",
"465 564 OFFCURVE",
"447 529 OFFCURVE",
"428 506 CURVE SMOOTH",
"408 483 OFFCURVE",
"375 468 OFFCURVE",
"350 460 CURVE SMOOTH",
"337 456 OFFCURVE",
"322 454 OFFCURVE",
"304 454 CURVE",
"299 472 OFFCURVE",
"297 486 OFFCURVE",
"297 497 CURVE SMOOTH",
"297 512 OFFCURVE",
"301 546 OFFCURVE",
"315 567 CURVE SMOOTH",
"329 587 OFFCURVE",
"348 612 OFFCURVE",
"368 626 CURVE SMOOTH",
"388 640 OFFCURVE",
"410 651 OFFCURVE",
"438 660 CURVE SMOOTH",
"452 664 OFFCURVE",
"468 668 OFFCURVE",
"486 671 CURVE"
);
},
{
closed = 1;
nodes = (
"558 163 OFFCURVE",
"552 145 OFFCURVE",
"545 128 CURVE",
"538 115 OFFCURVE",
"533 104 OFFCURVE",
"528 95 CURVE",
"519 76 OFFCURVE",
"513 65 OFFCURVE",
"490 42 CURVE SMOOTH",
"467 18 OFFCURVE",
"436 0 OFFCURVE",
"395 0 CURVE SMOOTH",
"380 0 OFFCURVE",
"363 3 OFFCURVE",
"357 5 CURVE SMOOTH",
"354 6 OFFCURVE",
"345 10 OFFCURVE",
"331 17 CURVE SMOOTH",
"316 24 OFFCURVE",
"307 27 OFFCURVE",
"304 27 CURVE SMOOTH",
"300 27 OFFCURVE",
"296 27 OFFCURVE",
"291 27 CURVE",
"286 26 OFFCURVE",
"281 26 OFFCURVE",
"275 26 CURVE SMOOTH",
"260 26 OFFCURVE",
"242 17 OFFCURVE",
"221 8 CURVE",
"211 5 OFFCURVE",
"201 4 OFFCURVE",
"192 4 CURVE SMOOTH",
"175 4 OFFCURVE",
"140 13 OFFCURVE",
"123 29 CURVE SMOOTH",
"106 45 OFFCURVE",
"77 84 OFFCURVE",
"65 115 CURVE SMOOTH",
"52 146 OFFCURVE",
"18 230 OFFCURVE",
"18 274 CURVE SMOOTH",
"18 289 OFFCURVE",
"21 313 OFFCURVE",
"22 325 CURVE",
"22 365 OFFCURVE",
"36 381 OFFCURVE",
"55 410 CURVE SMOOTH",
"74 438 OFFCURVE",
"79 444 OFFCURVE",
"91 452 CURVE",
"122 477 OFFCURVE",
"154 494 OFFCURVE",
"194 494 CURVE SMOOTH",
"205 494 OFFCURVE",
"216 493 OFFCURVE",
"226 490 CURVE SMOOTH",
"236 487 OFFCURVE",
"245 484 OFFCURVE",
"254 482 CURVE",
"262 479 OFFCURVE",
"272 474 OFFCURVE",
"283 466 CURVE SMOOTH",
"294 458 OFFCURVE",
"303 454 OFFCURVE",
"311 454 CURVE SMOOTH",
"326 454 OFFCURVE",
"339 457 OFFCURVE",
"352 462 CURVE SMOOTH",
"366 467 OFFCURVE",
"380 472 OFFCURVE",
"394 477 CURVE SMOOTH",
"408 482 OFFCURVE",
"422 484 OFFCURVE",
"435 484 CURVE SMOOTH",
"460 484 OFFCURVE",
"485 476 OFFCURVE",
"508 459 CURVE",
"524 450 OFFCURVE",
"540 434 OFFCURVE",
"555 411 CURVE",
"538 400 OFFCURVE",
"534 398 OFFCURVE",
"518 382 CURVE SMOOTH",
"501 366 OFFCURVE",
"484 351 OFFCURVE",
"480 314 CURVE",
"480 278 OFFCURVE",
"489 254 OFFCURVE",
"508 230 CURVE SMOOTH",
"527 206 OFFCURVE",
"536 199 OFFCURVE",
"563 184 CURVE"
);
}
);
width = 573;
}
);
unicode = F000;
},
{
glyphname = dotlessi;
layers = (
{
layerId = "40D00E06-06D8-47EA-A1ED-37FDE38D6C1B";
name = Light;
paths = (
{
closed = 1;
nodes = (
"118 13 LINE SMOOTH",
"118 -2 OFFCURVE",
"107 -10 OFFCURVE",
"95 -10 CURVE SMOOTH",
"79 -10 OFFCURVE",
"71 -2 OFFCURVE",
"71 13 CURVE SMOOTH",
"71 453 LINE SMOOTH",
"71 466 OFFCURVE",
"80 473 OFFCURVE",
"95 473 CURVE SMOOTH",
"106 473 OFFCURVE",
"118 469 OFFCURVE",
"118 453 CURVE SMOOTH"
);
}
);
width = 187;
}
);
unicode = 0131;
},
{
glyphname = circumflex;
layers = (
{
layerId = "40D00E06-06D8-47EA-A1ED-37FDE38D6C1B";
name = Light;
paths = (
{
closed = 1;
nodes = (
"319 533 LINE SMOOTH",
"323 529 OFFCURVE",
"325 525 OFFCURVE",
"325 521 CURVE SMOOTH",
"325 510 OFFCURVE",
"313 500 OFFCURVE",
"300 500 CURVE SMOOTH",
"294 500 OFFCURVE",
"289 502 OFFCURVE",
"285 506 CURVE SMOOTH",
"172 613 LINE",
"62 506 LINE SMOOTH",
"58 502 OFFCURVE",
"53 500 OFFCURVE",
"47 500 CURVE SMOOTH",
"35 500 OFFCURVE",
"22 511 OFFCURVE",
"22 523 CURVE SMOOTH",
"22 527 OFFCURVE",
"23 530 OFFCURVE",
"26 533 CURVE SMOOTH",
"158 659 LINE",
"185 659 LINE"
);
}
);
width = 355;
}
);
unicode = 02C6;
},
{
glyphname = tilde;
layers = (
{
layerId = "40D00E06-06D8-47EA-A1ED-37FDE38D6C1B";
name = Light;
paths = (
{
closed = 1;
nodes = (
"435 577 OFFCURVE",
"387 498 OFFCURVE",
"307 498 CURVE SMOOTH",
"276 498 OFFCURVE",
"248 519 OFFCURVE",
"223 561 CURVE SMOOTH",
"197 603 OFFCURVE",
"175 623 OFFCURVE",
"156 621 CURVE",
"112 621 OFFCURVE",
"83 565 OFFCURVE",
"83 518 CURVE SMOOTH",
"83 505 OFFCURVE",
"72 498 OFFCURVE",
"60 498 CURVE SMOOTH",
"47 498 OFFCURVE",
"36 505 OFFCURVE",
"36 518 CURVE SMOOTH",
"36 586 OFFCURVE",
"77 661 OFFCURVE",
"156 661 CURVE SMOOTH",
"189 661 OFFCURVE",
"218 641 OFFCURVE",
"243 600 CURVE SMOOTH",
"267 559 OFFCURVE",
"288 538 OFFCURVE",
"306 538 CURVE SMOOTH",
"353 538 OFFCURVE",
"388 595 OFFCURVE",
"388 644 CURVE SMOOTH",
"388 657 OFFCURVE",
"396 663 OFFCURVE",
"412 663 CURVE SMOOTH",
"427 663 OFFCURVE",
"435 657 OFFCURVE",
"435 644 CURVE SMOOTH"
);
}
);
width = 470;
}
);
unicode = 02DC;
},
{
glyphname = macron;
layers = (
{
layerId = "40D00E06-06D8-47EA-A1ED-37FDE38D6C1B";
name = Light;
paths = (
{
closed = 1;
nodes = (
"40 548 LINE",
"23 548 OFFCURVE",
"14 553 OFFCURVE",
"14 564 CURVE SMOOTH",
"14 573 OFFCURVE",
"22 578 OFFCURVE",
"38 578 CURVE SMOOTH",
"307 587 LINE SMOOTH",
"324 587 OFFCURVE",
"333 582 OFFCURVE",
"333 572 CURVE SMOOTH",
"333 563 OFFCURVE",
"325 558 OFFCURVE",
"308 558 CURVE"
);
}
);
width = 360;
}
);
unicode = 00AF;
},
{
glyphname = breve;
layers = (
{
layerId = "40D00E06-06D8-47EA-A1ED-37FDE38D6C1B";
name = Light;
paths = (
{
closed = 1;
nodes = (
"348 586 OFFCURVE",
"271 500 OFFCURVE",
"183 500 CURVE SMOOTH",
"98 500 OFFCURVE",
"30 569 OFFCURVE",
"30 632 CURVE SMOOTH",
"30 645 OFFCURVE",
"39 652 OFFCURVE",
"54 652 CURVE SMOOTH",
"65 652 OFFCURVE",
"77 648 OFFCURVE",
"77 632 CURVE SMOOTH",
"77 592 OFFCURVE",
"128 541 OFFCURVE",
"183 541 CURVE SMOOTH",
"243 541 OFFCURVE",
"301 606 OFFCURVE",
"301 647 CURVE SMOOTH",
"301 660 OFFCURVE",
"309 666 OFFCURVE",
"325 666 CURVE SMOOTH",
"340 666 OFFCURVE",
"348 660 OFFCURVE",
"348 647 CURVE SMOOTH"
);
}
);
width = 374;
}
);
unicode = 02D8;
},
{
glyphname = dotaccent;
layers = (
{
layerId = "40D00E06-06D8-47EA-A1ED-37FDE38D6C1B";
name = Light;
paths = (
{
closed = 1;
nodes = (
"121 559 OFFCURVE",
"101 543 OFFCURVE",
"74 543 CURVE SMOOTH",
"49 543 OFFCURVE",
"31 560 OFFCURVE",
"31 581 CURVE SMOOTH",
"31 601 OFFCURVE",
"53 616 OFFCURVE",
"78 616 CURVE SMOOTH",
"101 616 OFFCURVE",
"121 599 OFFCURVE",
"121 579 CURVE SMOOTH"
);
}
);
width = 145;
}
);
unicode = 02D9;
},
{
glyphname = ring;
layers = (
{
layerId = "40D00E06-06D8-47EA-A1ED-37FDE38D6C1B";
name = Light;
paths = (
{
closed = 1;
nodes = (
"243 665 OFFCURVE",
"254 641 OFFCURVE",
"254 613 CURVE SMOOTH",
"254 546 OFFCURVE",
"190 490 OFFCURVE",
"118 490 CURVE SMOOTH",
"66 490 OFFCURVE",
"33 518 OFFCURVE",
"21 546 CURVE SMOOTH",
"15 559 OFFCURVE",
"12 573 OFFCURVE",
"12 587 CURVE SMOOTH",
"12 620 OFFCURVE",
"26 654 OFFCURVE",
"66 687 CURVE SMOOTH",
"86 703 OFFCURVE",
"113 711 OFFCURVE",
"146 711 CURVE SMOOTH",
"174 711 OFFCURVE",
"199 704 OFFCURVE",
"220 685 CURVE SMOOTH"
);
},
{
closed = 1;
nodes = (
"177 663 OFFCURVE",
"162 668 OFFCURVE",
"144 668 CURVE SMOOTH",
"122 668 OFFCURVE",
"103 661 OFFCURVE",
"87 647 CURVE",
"68 633 OFFCURVE",
"58 613 OFFCURVE",
"58 588 CURVE SMOOTH",
"58 569 OFFCURVE",
"62 558 OFFCURVE",
"83 543 CURVE SMOOTH",
"93 536 OFFCURVE",
"105 532 OFFCURVE",
"120 532 CURVE SMOOTH",
"139 532 OFFCURVE",
"160 540 OFFCURVE",
"188 565 CURVE SMOOTH",
"201 577 OFFCURVE",
"208 593 OFFCURVE",
"208 614 CURVE SMOOTH",
"208 629 OFFCURVE",
"202 642 OFFCURVE",
"190 652 CURVE SMOOTH"
);
}
);
width = 273;
}
);
unicode = 02DA;
},
{
glyphname = hungarumlaut;
layers = (
{
layerId = "40D00E06-06D8-47EA-A1ED-37FDE38D6C1B";
name = Light;
paths = (
{
closed = 1;
nodes = (
"249 503 LINE",
"244 498 OFFCURVE",
"238 495 OFFCURVE",
"232 495 CURVE SMOOTH",
"220 495 OFFCURVE",
"209 506 OFFCURVE",
"209 517 CURVE SMOOTH",
"209 522 OFFCURVE",
"211 527 OFFCURVE",
"216 531 CURVE",
"358 655 LINE",
"362 658 OFFCURVE",
"367 660 OFFCURVE",
"374 660 CURVE SMOOTH",
"386 660 OFFCURVE",
"398 649 OFFCURVE",
"398 640 CURVE SMOOTH",
"398 635 OFFCURVE",
"395 629 OFFCURVE",
"389 624 CURVE SMOOTH"
);
},
{
closed = 1;
nodes = (
"97 503 LINE",
"92 498 OFFCURVE",
"86 495 OFFCURVE",
"80 495 CURVE SMOOTH",
"68 495 OFFCURVE",
"57 506 OFFCURVE",
"57 517 CURVE SMOOTH",
"57 522 OFFCURVE",
"59 527 OFFCURVE",
"64 531 CURVE",
"205 655 LINE",
"209 658 OFFCURVE",
"214 660 OFFCURVE",
"220 660 CURVE SMOOTH",
"232 660 OFFCURVE",
"245 649 OFFCURVE",
"245 638 CURVE SMOOTH",
"245 633 OFFCURVE",
"243 628 OFFCURVE",
"238 624 CURVE SMOOTH"
);
}
);
width = 431;
}
);
unicode = 02BA;
},
{
glyphname = caron;
layers = (
{
layerId = "40D00E06-06D8-47EA-A1ED-37FDE38D6C1B";
name = Light;
paths = (
{
closed = 1;
nodes = (
"184 503 LINE",
"159 503 LINE",
"24 627 LINE",
"20 631 OFFCURVE",
"18 635 OFFCURVE",
"18 639 CURVE SMOOTH",
"18 650 OFFCURVE",
"29 660 OFFCURVE",
"44 660 CURVE SMOOTH",
"50 660 OFFCURVE",
"55 658 OFFCURVE",
"59 654 CURVE",
"172 551 LINE",
"281 656 LINE",
"285 661 OFFCURVE",
"290 663 OFFCURVE",
"296 663 CURVE SMOOTH",
"312 663 OFFCURVE",
"322 649 OFFCURVE",
"322 641 CURVE SMOOTH",
"322 637 OFFCURVE",
"320 633 OFFCURVE",
"316 629 CURVE SMOOTH"
);
}
